<?xml version="1.0" encoding="utf-8"?>
<!-- Generator: Adobe Illustrator 16.0.0, SVG Export Plug-In . SVG Version: 6.00 Build 0)  -->
<!DOCTYPE svg PUBLIC "-//W3C//DTD SVG 1.1//EN" "http://www.w3.org/Graphics/SVG/1.1/DTD/svg11.dtd">
<svg version="1.1" id="圖層_1" xmlns="http://www.w3.org/2000/svg" xmlns:xlink="http://www.w3.org/1999/xlink" x="0px" y="0px"
	 width="82px" height="84px" viewBox="0 0 82 84" enable-background="new 0 0 82 84" xml:space="preserve">
<g id="放大圖">
	<g>
		<g>
			<circle fill="#FFFFFF" cx="29.961" cy="30.485" r="28.374"/>
			<path fill="#3AB8F8" d="M29.961,60.227c-7.944,0-15.413-3.094-21.03-8.711c-11.595-11.597-11.595-30.465,0-42.061
				c5.618-5.617,13.086-8.711,21.03-8.711c7.944,0,15.413,3.094,21.03,8.711c11.597,11.596,11.597,30.464,0,42.061
				C45.374,57.133,37.905,60.227,29.961,60.227z M29.961,3.479c-7.214,0-13.996,2.81-19.097,7.91
				c-10.529,10.529-10.529,27.663,0,38.193c5.101,5.101,11.883,7.909,19.097,7.909c7.213,0,13.996-2.809,19.096-7.909
				c10.53-10.53,10.53-27.664,0-38.193C43.957,6.288,37.175,3.479,29.961,3.479z"/>
		</g>
		<g>
			<circle fill="#FFFFFF" cx="29.961" cy="30.485" r="21.366"/>
			<path fill="#3AB8F8" d="M29.961,53.146c-6.053,0-11.744-2.357-16.024-6.637c-8.834-8.836-8.834-23.212,0-32.047
				c4.28-4.28,9.971-6.637,16.024-6.637s11.743,2.356,16.024,6.637c8.835,8.835,8.835,23.211,0,32.047
				C41.705,50.788,36.014,53.146,29.961,53.146z M29.961,10.415c-5.361,0-10.401,2.088-14.193,5.878
				c-7.824,7.826-7.824,20.559,0,28.384c3.792,3.791,8.832,5.879,14.193,5.879c5.361,0,10.401-2.088,14.192-5.879
				c7.826-7.825,7.826-20.558,0-28.384C40.362,12.503,35.322,10.415,29.961,10.415z"/>
		</g>
		<g>
			<path fill="#FFFFFF" d="M79.097,80.587L79.097,80.587c-1.735,1.735-4.55,1.735-6.285,0L52.805,60.58
				c-1.735-1.735-1.735-4.55,0-6.285l0,0c1.735-1.735,4.55-1.735,6.285,0l20.007,20.007C80.832,76.037,80.832,78.852,79.097,80.587z
				"/>
			<path fill="#3AB8F8" d="M75.954,83.256c-1.553,0-3.012-0.604-4.109-1.702L51.838,61.547c-2.266-2.266-2.266-5.953,0-8.219
				c1.098-1.098,2.557-1.702,4.109-1.702s3.012,0.604,4.109,1.702l20.007,20.007c1.098,1.098,1.702,2.557,1.702,4.109
				s-0.604,3.012-1.702,4.109S77.507,83.256,75.954,83.256z M55.947,54.36c-0.822,0-1.595,0.32-2.176,0.901
				c-1.199,1.2-1.199,3.151,0,4.352L73.778,79.62c1.162,1.162,3.189,1.162,4.352,0c0.581-0.581,0.901-1.354,0.901-2.176
				s-0.32-1.595-0.901-2.176L58.123,55.262C57.542,54.681,56.77,54.36,55.947,54.36z"/>
		</g>
	</g>
	<g>
		<path fill="#3AB8F8" d="M39.378,26.484h-1.869c-2.236,0-4.049-1.813-4.049-4.049v-1.868c0-2.236-1.813-4.05-4.049-4.05l0,0
			c-2.236,0-4.049,1.813-4.049,4.05v1.868c0,2.236-1.813,4.049-4.05,4.049h-1.868c-2.236,0-4.049,1.813-4.049,4.05l0,0
			c0,2.235,1.813,4.049,4.049,4.049h1.868c2.236,0,4.05,1.813,4.05,4.049v1.869c0,2.235,1.813,4.049,4.049,4.049l0,0
			c2.236,0,4.049-1.813,4.049-4.049v-1.869c0-2.236,1.813-4.049,4.049-4.049h1.869c2.236,0,4.049-1.813,4.049-4.049l0,0
			C43.428,28.298,41.615,26.484,39.378,26.484z"/>
	</g>
</g>
</svg>
