<?xml version="1.0" encoding="utf-8"?>
<!-- Generator: Adobe Illustrator 16.0.0, SVG Export Plug-In . SVG Version: 6.00 Build 0)  -->
<!DOCTYPE svg PUBLIC "-//W3C//DTD SVG 1.1//EN" "http://www.w3.org/Graphics/SVG/1.1/DTD/svg11.dtd">
<svg version="1.1" id="圖層_1" xmlns="http://www.w3.org/2000/svg" xmlns:xlink="http://www.w3.org/1999/xlink" x="0px" y="0px"
	 width="64px" height="64px" viewBox="0 0 64 64" enable-background="new 0 0 64 64" xml:space="preserve">
<g>
	<g>
		<linearGradient id="SVGID_1_" gradientUnits="userSpaceOnUse" x1="0.6104" y1="32" x2="63.3896" y2="32">
			<stop  offset="0" style="stop-color:#FFFFFF;stop-opacity:0.5"/>
			<stop  offset="1" style="stop-color:#FFFFFF;stop-opacity:0.5"/>
		</linearGradient>
		<circle fill="url(#SVGID_1_)" cx="32" cy="32" r="31.39"/>
		<linearGradient id="SVGID_2_" gradientUnits="userSpaceOnUse" x1="0" y1="32" x2="64" y2="32">
			<stop  offset="0" style="stop-color:#D5D5E9;stop-opacity:0"/>
			<stop  offset="1" style="stop-color:#D5D5E9"/>
		</linearGradient>
		<path fill="url(#SVGID_2_)" d="M32,64C14.355,64,0,49.646,0,32C0,14.355,14.355,0,32,0c17.646,0,32,14.355,32,32
			C64,49.646,49.646,64,32,64z M32,1.22C15.028,1.22,1.22,15.028,1.22,32S15.028,62.779,32,62.779S62.779,48.972,62.779,32
			S48.972,1.22,32,1.22z"/>
	</g>
	
		<line fill="none" stroke="#FFFFFF" stroke-width="1.2206" stroke-miterlimit="10" x1="16.305" y1="16.305" x2="47.695" y2="47.695"/>
	
		<line fill="none" stroke="#FFFFFF" stroke-width="1.2206" stroke-miterlimit="10" x1="47.695" y1="16.305" x2="16.305" y2="47.695"/>
</g>
</svg>
