<?xml version="1.0" encoding="utf-8"?>
<!-- Generator: Adobe Illustrator 16.0.0, SVG Export Plug-In . SVG Version: 6.00 Build 0)  -->
<!DOCTYPE svg PUBLIC "-//W3C//DTD SVG 1.1//EN" "http://www.w3.org/Graphics/SVG/1.1/DTD/svg11.dtd">
<svg version="1.1" id="圖層_1" xmlns="http://www.w3.org/2000/svg" xmlns:xlink="http://www.w3.org/1999/xlink" x="0px" y="0px"
	 width="806px" height="770px" viewBox="0 -95 806 770" enable-background="new 0 -95 806 770" xml:space="preserve">
<g>
	<g>
		<g>
			<path fill="#233EAB" d="M76.421,555.072H64.794v35.088h-6.296v-35.088h-11.6v-5.383h29.523V555.072z"/>
		</g>
		<g>
			<path fill="#233EAB" d="M107.041,590.16h-6.14v-16.564c0-5.398-1.995-8.1-5.983-8.1c-2.021,0-3.701,0.775-5.042,2.326
				s-2.012,3.527-2.012,5.93v16.408h-6.14v-42.77h6.14v18.498h0.131c2.194-3.535,5.286-5.305,9.275-5.305
				c6.514,0,9.771,3.938,9.771,11.811V590.16z"/>
		</g>
		<g>
			<path fill="#233EAB" d="M139.359,577.357h-19.856c0.261,5.836,3.231,8.752,8.909,8.752c3.205,0,6.122-0.957,8.752-2.873v5.068
				c-2.578,1.689-5.966,2.535-10.163,2.535c-4.285,0-7.638-1.307-10.059-3.92c-2.421-2.613-3.632-6.27-3.632-10.973
				c0-4.459,1.302-8.135,3.906-11.025s5.866-4.338,9.785-4.338c3.901,0,6.937,1.232,9.105,3.697s3.252,5.857,3.252,10.176V577.357z
				 M133.402,572.891c-0.018-2.473-0.584-4.373-1.698-5.695c-1.115-1.324-2.7-1.986-4.755-1.986c-1.864,0-3.484,0.701-4.86,2.104
				s-2.229,3.262-2.56,5.578H133.402z"/>
		</g>
		<g>
			<path fill="#233EAB" d="M179.62,588.932c-2.126,1.271-4.852,1.908-8.178,1.908c-4.216,0-7.629-1.334-10.241-3.998
				c-2.613-2.666-3.919-6.148-3.919-10.451c0-4.824,1.401-8.664,4.206-11.521c2.804-2.855,6.54-4.285,11.208-4.285
				c2.874,0,5.199,0.463,6.976,1.385v5.748c-2.056-1.48-4.276-2.221-6.662-2.221c-2.821,0-5.107,0.945-6.858,2.836
				c-1.75,1.889-2.625,4.428-2.625,7.615c0,3.117,0.831,5.561,2.495,7.328c1.663,1.768,3.896,2.652,6.701,2.652
				c2.438,0,4.737-0.785,6.897-2.352V588.932z"/>
		</g>
		<g>
			<path fill="#233EAB" d="M184.349,575.973c0-4.754,1.354-8.508,4.063-11.26c2.708-2.752,6.396-4.129,11.064-4.129
				c4.406,0,7.89,1.334,10.45,3.998s3.841,6.305,3.841,10.92c0,4.65-1.351,8.371-4.05,11.156c-2.7,2.787-6.306,4.182-10.816,4.182
				c-4.424,0-7.955-1.35-10.594-4.051C185.668,584.09,184.349,580.484,184.349,575.973z M190.593,575.842
				c0,3.172,0.771,5.645,2.312,7.42c1.542,1.777,3.636,2.666,6.283,2.666c5.557,0,8.335-3.424,8.335-10.268
				c0-3.311-0.715-5.83-2.143-7.564c-1.429-1.732-3.492-2.6-6.192-2.6c-2.699,0-4.807,0.924-6.322,2.77
				S190.593,572.639,190.593,575.842z"/>
		</g>
		<g>
			<path fill="#233EAB" d="M245.955,590.16h-6.114v-16.33c0-5.555-2.021-8.334-6.061-8.334c-2.038,0-3.724,0.771-5.056,2.313
				c-1.333,1.541-1.999,3.496-1.999,5.865v16.486h-6.14v-28.896h6.14v4.729h0.131c2.143-3.605,5.277-5.408,9.405-5.408
				c6.462,0,9.693,3.973,9.693,11.914V590.16z"/>
		</g>
		<g>
			<path fill="#233EAB" d="M268.919,589.846c-1.133,0.645-2.761,0.967-4.886,0.967c-5.486,0-8.229-2.979-8.229-8.936v-15.754h-4.886
				v-4.859h4.886v-6.766l6.113-1.855v8.621h7.002v4.859h-7.002v14.684c0,1.793,0.317,3.092,0.954,3.893
				c0.635,0.801,1.658,1.201,3.069,1.201c1.098,0,2.09-0.313,2.979-0.939V589.846z"/>
		</g>
		<g>
			<path fill="#233EAB" d="M298.443,577.357h-19.856c0.262,5.836,3.23,8.752,8.909,8.752c3.204,0,6.122-0.957,8.752-2.873v5.068
				c-2.577,1.689-5.966,2.535-10.163,2.535c-4.284,0-7.638-1.307-10.059-3.92s-3.631-6.27-3.631-10.973
				c0-4.459,1.302-8.135,3.905-11.025s5.865-4.338,9.784-4.338c3.901,0,6.937,1.232,9.105,3.697
				c2.168,2.465,3.253,5.857,3.253,10.176V577.357z M292.486,572.891c-0.018-2.473-0.584-4.373-1.698-5.695
				c-1.115-1.324-2.7-1.986-4.755-1.986c-1.864,0-3.484,0.701-4.859,2.104c-1.376,1.402-2.23,3.262-2.561,5.578H292.486z"/>
		</g>
		<g>
			<path fill="#233EAB" d="M330.212,590.16h-6.114v-16.33c0-5.555-2.021-8.334-6.061-8.334c-2.038,0-3.724,0.771-5.056,2.313
				c-1.333,1.541-1.999,3.496-1.999,5.865v16.486h-6.14v-28.896h6.14v4.729h0.131c2.143-3.605,5.277-5.408,9.405-5.408
				c6.462,0,9.693,3.973,9.693,11.914V590.16z"/>
		</g>
		<g>
			<path fill="#233EAB" d="M353.177,589.846c-1.133,0.645-2.761,0.967-4.886,0.967c-5.486,0-8.229-2.979-8.229-8.936v-15.754h-4.886
				v-4.859h4.886v-6.766l6.113-1.855v8.621h7.002v4.859h-7.002v14.684c0,1.793,0.317,3.092,0.954,3.893
				c0.635,0.801,1.658,1.201,3.069,1.201c1.098,0,2.09-0.313,2.979-0.939V589.846z"/>
		</g>
		<g>
			<path fill="#233EAB" d="M371.674,551.336c0-1.027,0.353-1.877,1.059-2.547c0.705-0.67,1.598-1.006,2.678-1.006
				c1.063,0,1.959,0.336,2.691,1.006c0.731,0.67,1.097,1.52,1.097,2.547s-0.365,1.877-1.097,2.547
				c-0.732,0.672-1.629,1.006-2.691,1.006s-1.951-0.34-2.665-1.018C372.031,553.191,371.674,552.346,371.674,551.336z
				 M372.276,590.16v-28.896h6.14v28.896H372.276z"/>
		</g>
		<g>
			<path fill="#233EAB" d="M385.704,583.445c2.699,1.828,5.504,2.742,8.412,2.742c3.832,0,5.748-1.184,5.748-3.553
				c0-0.992-0.4-1.807-1.201-2.441c-0.802-0.637-2.604-1.477-5.408-2.521c-2.944-1.133-4.93-2.34-5.957-3.619
				c-1.028-1.279-1.542-2.887-1.542-4.82c0-2.664,1.115-4.771,3.345-6.322s4.99-2.326,8.282-2.326c2.525,0,4.886,0.418,7.08,1.254
				v5.436c-2.194-1.359-4.65-2.039-7.368-2.039c-1.55,0-2.804,0.324-3.762,0.967c-0.958,0.645-1.438,1.49-1.438,2.535
				c0,1.027,0.354,1.838,1.059,2.43s2.329,1.375,4.872,2.352c3.136,1.148,5.273,2.373,6.414,3.67
				c1.141,1.299,1.712,2.914,1.712,4.848c0,2.734-1.115,4.885-3.345,6.453c-2.229,1.566-5.155,2.352-8.778,2.352
				c-3.101,0-5.809-0.541-8.125-1.621V583.445z"/>
		</g>
		<g>
			<path fill="#233EAB" d="M425.05,551.336c0-1.027,0.353-1.877,1.059-2.547c0.705-0.67,1.598-1.006,2.678-1.006
				c1.063,0,1.959,0.336,2.691,1.006c0.731,0.67,1.097,1.52,1.097,2.547s-0.365,1.877-1.097,2.547
				c-0.732,0.672-1.629,1.006-2.691,1.006s-1.951-0.34-2.665-1.018C425.407,553.191,425.05,552.346,425.05,551.336z M425.652,590.16
				v-28.896h6.14v28.896H425.652z"/>
		</g>
		<g>
			<path fill="#233EAB" d="M465.808,590.16h-6.114v-16.33c0-5.555-2.021-8.334-6.061-8.334c-2.038,0-3.724,0.771-5.056,2.313
				c-1.333,1.541-1.999,3.496-1.999,5.865v16.486h-6.14v-28.896h6.14v4.729h0.131c2.143-3.605,5.277-5.408,9.405-5.408
				c6.462,0,9.693,3.973,9.693,11.914V590.16z"/>
		</g>
		<g>
			<path fill="#233EAB" d="M512.626,590.16h-6.14v-16.564c0-5.398-1.994-8.1-5.982-8.1c-2.021,0-3.702,0.775-5.043,2.326
				c-1.342,1.551-2.012,3.527-2.012,5.93v16.408h-6.14v-42.77h6.14v18.498h0.131c2.194-3.535,5.286-5.305,9.274-5.305
				c6.515,0,9.771,3.938,9.771,11.811V590.16z"/>
		</g>
		<g>
			<path fill="#233EAB" d="M518.897,575.973c0-4.754,1.354-8.508,4.063-11.26c2.708-2.752,6.396-4.129,11.064-4.129
				c4.406,0,7.89,1.334,10.45,3.998s3.841,6.305,3.841,10.92c0,4.65-1.351,8.371-4.05,11.156c-2.7,2.787-6.306,4.182-10.816,4.182
				c-4.424,0-7.955-1.35-10.594-4.051C520.216,584.09,518.897,580.484,518.897,575.973z M525.141,575.842
				c0,3.172,0.771,5.645,2.312,7.42c1.542,1.777,3.636,2.666,6.283,2.666c5.557,0,8.335-3.424,8.335-10.268
				c0-3.311-0.715-5.83-2.143-7.564c-1.429-1.732-3.492-2.6-6.192-2.6c-2.699,0-4.807,0.924-6.322,2.77
				S525.141,572.639,525.141,575.842z"/>
		</g>
		<g>
			<path fill="#233EAB" d="M571.541,567.117c-0.905-0.594-2.107-0.889-3.605-0.889c-1.985,0-3.592,0.871-4.82,2.611
				c-1.228,1.742-1.842,4.051-1.842,6.924v14.396h-6.14v-28.896h6.14v5.748h0.131c1.428-4.162,3.953-6.244,7.576-6.244
				c1.08,0,1.934,0.121,2.561,0.365V567.117z"/>
		</g>
		<g>
			<path fill="#233EAB" d="M575.59,551.336c0-1.027,0.353-1.877,1.059-2.547c0.705-0.67,1.598-1.006,2.678-1.006
				c1.063,0,1.959,0.336,2.691,1.006c0.731,0.67,1.097,1.52,1.097,2.547s-0.365,1.877-1.097,2.547
				c-0.732,0.672-1.629,1.006-2.691,1.006s-1.951-0.34-2.665-1.018C575.948,553.191,575.59,552.346,575.59,551.336z M576.192,590.16
				v-28.896h6.14v28.896H576.192z"/>
		</g>
		<g>
			<path fill="#233EAB" d="M612.011,590.16h-24.507v-2.221l16.172-21.816h-14.631v-4.859h23.018v2.404l-15.911,21.633h15.859V590.16
				z"/>
		</g>
		<g>
			<path fill="#233EAB" d="M615.799,575.973c0-4.754,1.354-8.508,4.063-11.26c2.708-2.752,6.396-4.129,11.064-4.129
				c4.406,0,7.89,1.334,10.45,3.998s3.841,6.305,3.841,10.92c0,4.65-1.351,8.371-4.05,11.156c-2.7,2.787-6.306,4.182-10.816,4.182
				c-4.424,0-7.955-1.35-10.594-4.051C617.118,584.09,615.799,580.484,615.799,575.973z M622.043,575.842
				c0,3.172,0.771,5.645,2.312,7.42c1.542,1.777,3.636,2.666,6.283,2.666c5.557,0,8.335-3.424,8.335-10.268
				c0-3.311-0.715-5.83-2.143-7.564c-1.429-1.732-3.492-2.6-6.192-2.6c-2.699,0-4.807,0.924-6.322,2.77
				S622.043,572.639,622.043,575.842z"/>
		</g>
		<g>
			<path fill="#233EAB" d="M677.406,590.16h-6.114v-16.33c0-5.555-2.021-8.334-6.061-8.334c-2.038,0-3.724,0.771-5.056,2.313
				c-1.333,1.541-1.999,3.496-1.999,5.865v16.486h-6.14v-28.896h6.14v4.729h0.131c2.143-3.605,5.277-5.408,9.405-5.408
				c6.462,0,9.693,3.973,9.693,11.914V590.16z"/>
		</g>
		<g>
			<path fill="#233EAB" d="M700.37,589.846c-1.133,0.645-2.761,0.967-4.886,0.967c-5.486,0-8.229-2.979-8.229-8.936v-15.754h-4.886
				v-4.859h4.886v-6.766l6.113-1.855v8.621h7.002v4.859h-7.002v14.684c0,1.793,0.317,3.092,0.954,3.893
				c0.635,0.801,1.658,1.201,3.069,1.201c1.098,0,2.09-0.313,2.979-0.939V589.846z"/>
		</g>
		<g>
			<path fill="#233EAB" d="M706.849,563.197c2.943-1.742,6.349-2.613,10.216-2.613c7.298,0,10.947,3.771,10.947,11.313v18.264
				h-5.957v-4.391h-0.131c-1.969,3.381-4.895,5.07-8.778,5.07c-2.839,0-5.073-0.768-6.701-2.301
				c-1.629-1.531-2.443-3.596-2.443-6.191c0-5.434,3.231-8.604,9.693-9.51l8.387-1.15c0-4.301-1.891-6.453-5.67-6.453
				c-3.466,0-6.653,1.125-9.563,3.371V563.197z M715.706,576.73c-2.09,0.279-3.566,0.811-4.429,1.594s-1.293,1.934-1.293,3.449
				c0,1.271,0.461,2.313,1.385,3.121c0.923,0.811,2.107,1.215,3.553,1.215c2.056,0,3.763-0.727,5.121-2.182
				c1.358-1.453,2.038-3.287,2.038-5.498v-2.561L715.706,576.73z"/>
		</g>
		<g>
			<path fill="#233EAB" d="M736.085,590.16v-42.77h6.14v42.77H736.085z"/>
		</g>
		<g>
			<path fill="#233EAB" d="M749.461,587.129c0-1.063,0.383-1.941,1.15-2.639c0.766-0.697,1.681-1.045,2.743-1.045
				c1.045,0,1.95,0.344,2.717,1.031c0.767,0.689,1.149,1.572,1.149,2.652c0,1.01-0.365,1.877-1.098,2.6
				c-0.731,0.723-1.672,1.084-2.821,1.084c-1.063,0-1.969-0.352-2.717-1.059C749.836,589.049,749.461,588.174,749.461,587.129z"/>
		</g>
		<g>
			<path fill="#233EAB" d="M63.553,650.256v14.813h-6.271V624.6H69.51c4.581,0,8.09,1.059,10.529,3.174
				c2.438,2.117,3.658,5.186,3.658,9.209c0,4.059-1.455,7.32-4.363,9.785c-2.909,2.465-6.505,3.627-10.79,3.488H63.553z
				 M63.553,629.85v15.18h4.494c6.044,0,9.066-2.594,9.066-7.785c0-4.93-2.9-7.395-8.7-7.395H63.553z"/>
		</g>
		<g>
			<path fill="#233EAB" d="M89.967,665.068v-42.768h6.14v42.768H89.967z"/>
		</g>
		<g>
			<path fill="#233EAB" d="M128.948,652.268h-19.856c0.261,5.834,3.231,8.752,8.909,8.752c3.205,0,6.122-0.957,8.752-2.875v5.07
				c-2.578,1.689-5.966,2.533-10.163,2.533c-4.285,0-7.638-1.307-10.059-3.918c-2.421-2.613-3.632-6.271-3.632-10.975
				c0-4.457,1.302-8.133,3.906-11.025c2.604-2.891,5.866-4.336,9.785-4.336c3.901,0,6.937,1.232,9.105,3.697
				s3.252,5.855,3.252,10.176V652.268z M122.991,647.799c-0.018-2.473-0.584-4.371-1.698-5.695c-1.115-1.322-2.7-1.984-4.755-1.984
				c-1.864,0-3.484,0.701-4.86,2.102c-1.376,1.402-2.229,3.262-2.56,5.578H122.991z"/>
		</g>
		<g>
			<path fill="#233EAB" d="M136.054,638.107c2.943-1.742,6.349-2.613,10.216-2.613c7.297,0,10.947,3.771,10.947,11.313v18.262
				h-5.957v-4.389h-0.131c-1.969,3.379-4.895,5.068-8.779,5.068c-2.839,0-5.073-0.766-6.702-2.299s-2.442-3.596-2.442-6.191
				c0-5.436,3.23-8.605,9.693-9.51l8.386-1.15c0-4.303-1.891-6.453-5.67-6.453c-3.466,0-6.653,1.123-9.562,3.369V638.107z
				 M144.91,651.641c-2.09,0.277-3.566,0.809-4.428,1.594c-0.862,0.783-1.293,1.932-1.293,3.447c0,1.271,0.461,2.313,1.384,3.123
				s2.107,1.215,3.554,1.215c2.055,0,3.762-0.727,5.121-2.182c1.357-1.455,2.037-3.287,2.037-5.5v-2.561L144.91,651.641z"/>
		</g>
		<g>
			<path fill="#233EAB" d="M163.984,658.354c2.699,1.83,5.504,2.744,8.412,2.744c3.832,0,5.748-1.184,5.748-3.553
				c0-0.994-0.4-1.807-1.201-2.443c-0.802-0.635-2.604-1.477-5.408-2.521c-2.944-1.131-4.93-2.338-5.957-3.617
				c-1.028-1.281-1.542-2.889-1.542-4.82c0-2.666,1.115-4.773,3.345-6.324c2.229-1.549,4.99-2.324,8.282-2.324
				c2.525,0,4.886,0.418,7.08,1.254v5.434c-2.194-1.357-4.65-2.037-7.368-2.037c-1.55,0-2.804,0.322-3.762,0.967
				s-1.438,1.488-1.438,2.533c0,1.029,0.354,1.838,1.059,2.43c0.705,0.594,2.329,1.377,4.872,2.352
				c3.136,1.15,5.273,2.373,6.414,3.672c1.141,1.297,1.712,2.912,1.712,4.846c0,2.734-1.115,4.887-3.345,6.453
				c-2.229,1.568-5.155,2.352-8.778,2.352c-3.101,0-5.809-0.539-8.125-1.619V658.354z"/>
		</g>
		<g>
			<path fill="#233EAB" d="M214.799,652.268h-19.856c0.262,5.834,3.23,8.752,8.909,8.752c3.204,0,6.122-0.957,8.752-2.875v5.07
				c-2.577,1.689-5.966,2.533-10.163,2.533c-4.284,0-7.638-1.307-10.059-3.918c-2.421-2.613-3.631-6.271-3.631-10.975
				c0-4.457,1.302-8.133,3.905-11.025c2.604-2.891,5.865-4.336,9.784-4.336c3.901,0,6.937,1.232,9.105,3.697
				c2.168,2.465,3.253,5.855,3.253,10.176V652.268z M208.842,647.799c-0.018-2.473-0.584-4.371-1.698-5.695
				c-1.115-1.322-2.7-1.984-4.755-1.984c-1.864,0-3.484,0.701-4.859,2.102c-1.376,1.402-2.23,3.262-2.561,5.578H208.842z"/>
		</g>
		<g>
			<path fill="#233EAB" d="M249.416,664.756c-1.133,0.645-2.761,0.967-4.886,0.967c-5.486,0-8.229-2.979-8.229-8.936v-15.754h-4.886
				v-4.859h4.886v-6.768l6.113-1.855v8.623h7.002v4.859h-7.002v14.682c0,1.795,0.317,3.092,0.954,3.895
				c0.635,0.801,1.658,1.201,3.069,1.201c1.098,0,2.09-0.314,2.979-0.941V664.756z"/>
		</g>
		<g>
			<path fill="#233EAB" d="M280.01,665.068h-6.114v-4.52h-0.13c-2.004,3.467-4.964,5.199-8.883,5.199
				c-6.811,0-10.216-4.084-10.216-12.254v-17.32h6.113v16.563c0,5.4,2.073,8.1,6.219,8.1c2.02,0,3.675-0.74,4.964-2.221
				c1.288-1.48,1.933-3.422,1.933-5.826v-16.615h6.114V665.068z"/>
		</g>
		<g>
			<path fill="#233EAB" d="M305.091,642.025c-0.905-0.592-2.107-0.889-3.605-0.889c-1.985,0-3.592,0.871-4.82,2.613
				c-1.228,1.742-1.842,4.049-1.842,6.924v14.395h-6.14v-28.895h6.14v5.746h0.131c1.428-4.162,3.953-6.244,7.576-6.244
				c1.08,0,1.934,0.123,2.561,0.367V642.025z"/>
		</g>
		<g>
			<path fill="#233EAB" d="M335.059,665.068h-6.114V648.74c0-5.557-2.021-8.334-6.061-8.334c-2.038,0-3.724,0.77-5.056,2.311
				c-1.333,1.543-1.999,3.498-1.999,5.867v16.484h-6.14v-28.895h6.14v4.729h0.131c2.143-3.605,5.277-5.408,9.405-5.408
				c6.462,0,9.693,3.971,9.693,11.914V665.068z"/>
		</g>
		<g>
			<path fill="#233EAB" d="M381.146,636.174l-12.724,32.709c-2.525,6.514-6.184,9.771-10.973,9.771c-1.568,0-2.84-0.166-3.814-0.496
				v-5.174c1.01,0.453,2.055,0.68,3.135,0.68c2.299,0,3.997-1.279,5.095-3.84l2.012-4.809l-11.443-28.842h6.819l6.949,20.613
				c0.157,0.436,0.383,1.357,0.68,2.77h0.13c0.087-0.559,0.322-1.463,0.706-2.717l7.236-20.666H381.146z"/>
		</g>
		<g>
			<path fill="#233EAB" d="M383.471,650.883c0-4.756,1.354-8.508,4.063-11.262c2.708-2.752,6.396-4.127,11.064-4.127
				c4.406,0,7.89,1.332,10.45,3.996c2.561,2.666,3.841,6.307,3.841,10.922c0,4.65-1.351,8.369-4.05,11.156
				c-2.7,2.787-6.306,4.18-10.816,4.18c-4.424,0-7.955-1.35-10.594-4.049C384.79,658.998,383.471,655.393,383.471,650.883z
				 M389.715,650.752c0,3.17,0.771,5.643,2.312,7.42c1.542,1.775,3.636,2.664,6.283,2.664c5.557,0,8.335-3.422,8.335-10.268
				c0-3.309-0.715-5.83-2.143-7.563c-1.429-1.734-3.492-2.6-6.192-2.6c-2.699,0-4.807,0.922-6.322,2.77
				C390.472,645.021,389.715,647.547,389.715,650.752z"/>
		</g>
		<g>
			<path fill="#233EAB" d="M444.528,665.068h-6.114v-4.52h-0.13c-2.004,3.467-4.964,5.199-8.883,5.199
				c-6.811,0-10.216-4.084-10.216-12.254v-17.32h6.113v16.563c0,5.4,2.073,8.1,6.219,8.1c2.02,0,3.675-0.74,4.964-2.221
				c1.288-1.48,1.933-3.422,1.933-5.826v-16.615h6.114V665.068z"/>
		</g>
		<g>
			<path fill="#233EAB" d="M469.609,642.025c-0.905-0.592-2.107-0.889-3.605-0.889c-1.985,0-3.592,0.871-4.82,2.613
				c-1.228,1.742-1.842,4.049-1.842,6.924v14.395h-6.14v-28.895h6.14v5.746h0.131c1.428-4.162,3.953-6.244,7.576-6.244
				c1.08,0,1.934,0.123,2.561,0.367V642.025z"/>
		</g>
		<g>
			<path fill="#233EAB" d="M513.632,665.068h-6.113v-4.572h-0.131c-2.09,3.502-5.277,5.252-9.563,5.252
				c-3.657,0-6.57-1.301-8.739-3.906c-2.168-2.604-3.252-6.117-3.252-10.541c0-4.791,1.219-8.623,3.657-11.496
				s5.617-4.311,9.536-4.311s6.705,1.48,8.36,4.441h0.131v-17.635h6.113V665.068z M507.571,648.139c0-2.193-0.71-4.031-2.129-5.512
				c-1.42-1.48-3.175-2.221-5.265-2.221c-2.474,0-4.441,0.949-5.904,2.848s-2.194,4.494-2.194,7.785
				c0,3.031,0.688,5.422,2.063,7.172s3.248,2.625,5.617,2.625c2.299,0,4.176-0.865,5.63-2.6c1.454-1.732,2.182-3.922,2.182-6.57
				V648.139z"/>
		</g>
		<g>
			<path fill="#233EAB" d="M546.499,652.268h-19.856c0.262,5.834,3.23,8.752,8.909,8.752c3.204,0,6.122-0.957,8.752-2.875v5.07
				c-2.577,1.689-5.966,2.533-10.163,2.533c-4.284,0-7.638-1.307-10.059-3.918c-2.421-2.613-3.631-6.271-3.631-10.975
				c0-4.457,1.302-8.133,3.905-11.025c2.604-2.891,5.865-4.336,9.784-4.336c3.901,0,6.937,1.232,9.105,3.697
				c2.168,2.465,3.253,5.855,3.253,10.176V652.268z M540.542,647.799c-0.018-2.473-0.584-4.371-1.698-5.695
				c-1.115-1.322-2.7-1.984-4.755-1.984c-1.864,0-3.484,0.701-4.859,2.102c-1.376,1.402-2.23,3.262-2.561,5.578H540.542z"/>
		</g>
		<g>
			<path fill="#233EAB" d="M577.327,636.174l-11.26,28.895h-6.506l-10.712-28.895h6.662l6.506,19.881
				c0.558,1.707,0.896,3.18,1.019,4.416h0.131c0.157-1.428,0.471-2.855,0.94-4.285l6.767-20.012H577.327z"/>
		</g>
		<g>
			<path fill="#233EAB" d="M581.195,626.244c0-1.027,0.353-1.875,1.059-2.547c0.705-0.67,1.598-1.006,2.678-1.006
				c1.063,0,1.959,0.336,2.691,1.006c0.731,0.672,1.097,1.52,1.097,2.547c0,1.029-0.365,1.879-1.097,2.549
				c-0.732,0.67-1.629,1.006-2.691,1.006s-1.951-0.34-2.665-1.02S581.195,627.256,581.195,626.244z M581.796,665.068v-28.895h6.14
				v28.895H581.796z"/>
		</g>
		<g>
			<path fill="#233EAB" d="M617.067,663.842c-2.126,1.27-4.852,1.906-8.178,1.906c-4.216,0-7.629-1.332-10.241-3.998
				c-2.613-2.664-3.919-6.148-3.919-10.449c0-4.824,1.401-8.666,4.206-11.521c2.804-2.857,6.54-4.285,11.208-4.285
				c2.874,0,5.199,0.461,6.976,1.385v5.748c-2.056-1.48-4.276-2.221-6.662-2.221c-2.821,0-5.107,0.945-6.858,2.834
				c-1.75,1.891-2.625,4.428-2.625,7.615c0,3.119,0.831,5.561,2.495,7.328c1.663,1.77,3.896,2.652,6.701,2.652
				c2.438,0,4.737-0.783,6.897-2.352V663.842z"/>
		</g>
		<g>
			<path fill="#233EAB" d="M647.843,652.268h-19.856c0.262,5.834,3.23,8.752,8.909,8.752c3.204,0,6.122-0.957,8.752-2.875v5.07
				c-2.577,1.689-5.966,2.533-10.163,2.533c-4.284,0-7.638-1.307-10.059-3.918c-2.421-2.613-3.631-6.271-3.631-10.975
				c0-4.457,1.302-8.133,3.905-11.025c2.604-2.891,5.865-4.336,9.784-4.336c3.901,0,6.937,1.232,9.105,3.697
				c2.168,2.465,3.253,5.855,3.253,10.176V652.268z M641.886,647.799c-0.018-2.473-0.584-4.371-1.698-5.695
				c-1.115-1.322-2.7-1.984-4.755-1.984c-1.864,0-3.484,0.701-4.859,2.102c-1.376,1.402-2.23,3.262-2.561,5.578H641.886z"/>
		</g>
		<g>
			<path fill="#233EAB" d="M668.012,658.852c2.247,1.322,4.694,1.984,7.342,1.984c3.536,0,6.253-1.34,8.151-4.023
				c1.898-2.682,2.848-6.443,2.848-11.287c-0.052,0-0.096-0.008-0.131-0.025c-1.759,3.17-4.668,4.756-8.726,4.756
				c-3.432,0-6.24-1.193-8.426-3.58c-2.187-2.387-3.279-5.373-3.279-8.961c0-4.041,1.241-7.35,3.724-9.928
				c2.481-2.578,5.717-3.867,9.706-3.867c4.197,0,7.449,1.619,9.758,4.859c2.308,3.24,3.462,7.838,3.462,13.795
				c0,7.246-1.455,12.92-4.363,17.021c-2.909,4.102-7.071,6.152-12.488,6.152c-2.909,0-5.435-0.471-7.577-1.41V658.852z
				 M671.906,637.035c0,2.508,0.64,4.508,1.92,5.996s3.053,2.234,5.316,2.234c1.969,0,3.609-0.68,4.925-2.039
				c1.315-1.357,1.973-3.021,1.973-4.99c0-2.594-0.648-4.807-1.946-6.635c-1.298-1.83-3.044-2.744-5.238-2.744
				c-2.038,0-3.706,0.793-5.003,2.377C672.554,632.82,671.906,634.754,671.906,637.035z"/>
		</g>
		<g>
			<path fill="#233EAB" d="M697.431,645.605c0-7.107,1.215-12.498,3.645-16.174c2.43-3.674,5.952-5.512,10.567-5.512
				c8.796,0,13.194,6.906,13.194,20.719c0,6.758-1.202,11.965-3.605,15.623s-5.888,5.486-10.45,5.486
				c-4.407,0-7.733-1.725-9.98-5.174C698.554,657.127,697.431,652.137,697.431,645.605z M703.675,645.369
				c0,10.313,2.499,15.467,7.498,15.467c4.929,0,7.394-5.26,7.394-15.779c0-10.799-2.412-16.199-7.237-16.199
				C706.226,628.857,703.675,634.361,703.675,645.369z"/>
		</g>
		<g>
			<path fill="#233EAB" d="M750.859,634.527c0,1.76-0.627,3.248-1.881,4.467c-1.254,1.221-2.77,1.83-4.546,1.83
				c-1.551,0-2.975-0.592-4.271-1.777c-1.298-1.184-1.947-2.691-1.947-4.52c0-1.863,0.61-3.393,1.829-4.586
				c1.219-1.191,2.743-1.789,4.572-1.789c1.759,0,3.239,0.627,4.441,1.881S750.859,632.785,750.859,634.527z M744.458,636.67
				c1.515,0,2.272-0.715,2.272-2.143c0-0.68-0.227-1.232-0.68-1.66c-0.453-0.426-0.976-0.639-1.567-0.639
				c-0.609,0-1.119,0.213-1.528,0.639c-0.409,0.428-0.614,0.98-0.614,1.66c0,0.627,0.205,1.141,0.614,1.541
				S743.865,636.67,744.458,636.67z"/>
		</g>
	</g>
	<g>
		<g>
			<path fill="#233EAB" d="M186.877,494.334c-3.136,2.699-6.201,5.033-9.196,7.002l-2.091-3.998c0.436-0.33,0.653-0.889,0.653-1.672
				v-20.223h-4.833v-4.545h9.483v22.521c1.829-1.377,3.223-2.465,4.181-3.266L186.877,494.334z M183.141,465.385l-4.128,2.404
				c-1.638-2.855-3.797-5.783-6.479-8.777l3.972-2.613C179.431,459.76,181.643,462.756,183.141,465.385z M217.811,476.672h-33.703
				v-3.893h14.762v-2.533h-11.705v-3.736h11.705v-2.352h-13.325v-3.92h13.325v-3.266h4.598v3.266h13.377v3.92h-13.377v2.352h11.339
				v3.736h-11.339v2.533h14.344V476.672z M214.074,498.514c0,1.689-0.462,2.965-1.385,3.828c-0.923,0.861-2.543,1.293-4.859,1.293
				h-3.763l-1.463-4.207c1.149,0.035,3.065,0.053,5.748,0.053c0.662,0,0.993-0.375,0.993-1.123v-2.744H192.39v7.969h-4.65v-24.453
				h26.335V498.514z M209.346,485.451v-2.404H192.39v2.404H209.346z M209.346,491.877v-2.689H192.39v2.689H209.346z"/>
		</g>
		<g>
			<path fill="#233EAB" d="M244.846,503.582h-4.677v-16.955c-3.223,2.979-6,5.277-8.334,6.896l-2.561-3.945
				c3.031-1.934,6.662-4.895,10.895-8.883v-23.592h4.677V503.582z M238.889,475.549l-4.337,1.986
				c-0.731-3.484-2.212-7.5-4.441-12.045l4.076-2.09C236.207,467.303,237.775,471.352,238.889,475.549z M276.511,485.189h-5.773
				v13.742c0,1.742-0.506,2.979-1.516,3.711c-1.011,0.73-2.856,1.096-5.539,1.096c-0.818,0-1.854-0.035-3.108-0.104l-1.516-4.441
				c3.657,0.139,5.722,0.113,6.192-0.078c0.47-0.191,0.705-0.523,0.705-0.994v-12.932h-19.203v-4.547h19.203v-3.918h4.781v3.918
				h5.773V485.189z M275.283,460.734c-8.535,2.283-17.436,3.475-26.701,3.58l-1.672-4.338c9.37-0.051,18.079-1.123,26.126-3.213
				L275.283,460.734z M255.271,475.393l-4.023,1.984c-1.463-4.248-2.831-7.357-4.103-9.326l3.894-2.117
				C252.64,468.635,254.051,471.787,255.271,475.393z M259.163,495.928l-3.736,2.691c-1.428-2.893-3.623-5.975-6.584-9.25
				l3.685-2.691C255.732,490.059,257.944,493.141,259.163,495.928z M264.049,474.008l-4.181,1.332
				c-0.888-3.502-1.925-6.41-3.108-8.727l4.128-1.438C262.333,467.842,263.387,470.785,264.049,474.008z M275.649,465.752
				c-1.637,3.865-3.597,7.201-5.878,10.006l-4.39-1.75c2.195-2.613,4.224-5.932,6.088-9.955L275.649,465.752z"/>
		</g>
		<g>
			<path fill="#233EAB" d="M335.526,488.926h-19.517v9.744c0,1.238-0.379,2.273-1.137,3.109s-1.572,1.346-2.442,1.529
				c-0.871,0.182-2.874,0.273-6.01,0.273c-1.394,0-3.179-0.018-5.355-0.053l-1.385-4.701c2.961,0.104,5.33,0.156,7.106,0.156
				c1.829,0,3-0.035,3.514-0.105c0.514-0.068,0.771-0.66,0.771-1.775v-8.178h-21.999v-4.65h21.999v-7.916H291.92v-4.703h19.151
				v-6.977c-5.069,0.506-11.218,0.881-18.445,1.123l-1.516-4.389c15.31-0.4,28.364-1.916,39.163-4.545l2.743,4.074
				c-3.814,1.045-9.483,2.082-17.008,3.109v7.604h16.564v4.703h-16.564v7.916h19.517V488.926z"/>
		</g>
		<g>
			<path fill="#233EAB" d="M368.753,483.309l-3.37,3.318c-1.568-2.926-3.188-5.479-4.86-7.656v24.768h-4.729v-23.486
				c-2.021,4.232-4.119,7.619-6.297,10.162l-2.246-4.701c3.239-3.955,5.982-8.691,8.229-14.213h-7.655v-4.572h7.969v-9.877h4.729
				v9.877h7.864v4.572h-7.864v1.332C364.181,476.785,366.924,480.277,368.753,483.309z M395.193,490.701
				c-0.035,1.813-0.126,3.668-0.274,5.566s-0.274,3.148-0.379,3.748c-0.104,0.602-0.466,1.246-1.084,1.934s-1.372,1.127-2.26,1.32
				c-0.889,0.191-1.951,0.287-3.188,0.287c-2.403,0-3.932-0.463-4.585-1.385c-0.653-0.924-0.98-2.039-0.98-3.344v-35.689h-7.629
				v20.822c0,7.891-2.177,14.666-6.531,20.326l-3.214-3.787c3.414-4.406,5.121-10.721,5.121-18.941v-23.176h16.982v39.479
				c0,0.678,0.531,1.018,1.594,1.018c0.487,0,0.849-0.152,1.084-0.457s0.409-1.418,0.522-3.344c0.113-1.924,0.152-3.992,0.118-6.205
				L395.193,490.701z"/>
		</g>
		<g>
			<path fill="#233EAB" d="M426.539,491.773c-1.847,0.557-4.059,1.105-6.637,1.646v10.449h-4.546v-9.273
				c-3.814,0.818-6.575,1.322-8.281,1.514l-0.862-4.389c3.135-0.383,6.183-0.939,9.144-1.672v-7.211h-8.125v-4.441
				c1.411-4.494,2.465-8.334,3.161-11.521h-3.605v-4.338h4.546c0.471-1.602,0.889-3.543,1.254-5.826l4.39,0.654
				c-0.244,0.992-0.584,2.717-1.019,5.172h10.319v4.338h-11.234c-1.254,5.398-2.203,9.311-2.848,11.73h3.161v-9.379h4.546v9.379
				h5.304v4.232h-5.304v6.141c1.342-0.262,3.414-0.793,6.219-1.594L426.539,491.773z M453.136,477.377h-16.747
				c-0.645,2.09-1.237,3.91-1.776,5.461h16.224v4.207c-2.647,3.762-5.434,6.975-8.36,9.641c2.561,2.072,4.346,3.623,5.356,4.65
				l-3.475,2.951c-3.937-3.797-9.128-7.541-15.571-11.234l3.108-3.316c2.438,1.41,4.72,2.838,6.846,4.283
				c2.752-2.682,4.842-5.006,6.27-6.975h-15.205v-4.363c0.487-1.271,1.08-3.039,1.776-5.305h-5.617v-4.283h6.846
				c0.557-1.795,1.036-3.633,1.437-5.514h-6.322v-4.285h7.341l1.438-6.949l4.441,0.863c-0.297,2.02-0.705,4.049-1.228,6.086h11.495
				v4.285h-12.515l-1.385,5.514h15.624V477.377z"/>
		</g>
		<g>
			<path fill="#233EAB" d="M510.504,468.338c0.052,2.16,0.078,4.398,0.078,6.715c0,5.678-0.179,11.135-0.535,16.367
				c-0.357,5.234-0.876,8.34-1.555,9.314c-0.68,0.975-1.489,1.715-2.43,2.221s-3.354,0.758-7.237,0.758
				c-1.063,0-2.151-0.025-3.266-0.078l-1.751-4.756c1.829,0.105,3.605,0.158,5.33,0.158c2.508,0,4.02-0.135,4.533-0.406
				c0.514-0.27,0.862-0.662,1.045-1.176s0.388-3.443,0.614-8.791c0.226-5.348,0.356-10.555,0.392-15.623h-16.799
				c-1.237,12.785-8.248,23.148-21.032,31.09l-2.979-4.127c12.019-7.229,18.384-16.217,19.099-26.963h-18.079v-4.703h18.34
				c0.14-2.316,0.209-6.123,0.209-11.418l4.886,0.053c0,3.711-0.052,7.498-0.156,11.365H510.504z M481.007,463.453l-3.161,3.656
				c-2.856-2.334-6.026-4.389-9.51-6.166l3.108-3.734C474.823,458.949,478.011,461.031,481.007,463.453z M502.953,490.363
				l-3.37,3.004c-2.839-4.162-6.175-8.195-10.007-12.098l3.267-3.029C496.814,482.141,500.184,486.182,502.953,490.363z"/>
		</g>
		<g>
			<path fill="#233EAB" d="M540.936,480.199l-3.214,3.527c-0.679-1.934-1.498-3.744-2.455-5.434v25.236l-4.494-0.051v-22.836
				c-1.516,4.008-3.101,7.264-4.755,9.771l-2.09-5.277c2.508-4.076,4.615-8.822,6.322-14.238h-5.748v-4.389h6.271v-9.406h4.494
				v9.406h3.108v4.389h-3.108v0.758C537.357,474.338,539.246,477.186,540.936,480.199z M552.379,499.428
				c-4.25,2.09-8.491,3.623-12.724,4.6l-2.403-4.076c4.006-0.715,8.038-1.994,12.097-3.842L552.379,499.428z M570.798,474.635
				h-31.194v-4.102h7.002v-4.939h-6.297v-4.049h6.297v-4.441h4.598v4.441h7.289v-4.441h4.599v4.441h6.636v4.049h-6.636v4.939h7.707
				V474.635z M568.342,495.301h-26.91v-17.924h26.91V495.301z M552.771,484.484v-3.162h-6.896v3.162H552.771z M552.771,491.328
				v-3.213h-6.896v3.213H552.771z M558.545,470.533v-4.939h-7.342v4.939H558.545z M564.005,484.484v-3.162h-6.897v3.162H564.005z
				 M564.005,491.328v-3.213h-6.897v3.213H564.005z M571.164,500.422l-2.3,3.709c-4.215-2.004-8.099-3.465-11.652-4.389l2.352-3.684
				C564.737,497.574,568.604,499.027,571.164,500.422z"/>
		</g>
		<g>
			<path fill="#233EAB" d="M629.813,492.244c-0.627,7.785-2.822,11.678-6.584,11.678c-3.292,0-6.136-3.092-8.53-9.275
				c-2.396-6.182-3.74-14.334-4.036-24.453h-27.407v-4.494h27.303c-0.192-3.623-0.262-6.531-0.21-8.727h4.756
				c-0.035,2.057,0.034,4.965,0.209,8.727h14.447v4.494h-14.238c0.209,10.066,1.293,17.387,3.252,21.959
				c1.96,4.572,3.384,6.857,4.272,6.857c1.079,0,1.75-3.074,2.012-9.223L629.813,492.244z M610.061,495.457
				c-9.894,2.473-18.219,4.129-24.977,4.965l-1.071-4.363c3.101-0.383,6.593-0.941,10.477-1.672v-14.24h-8.596v-4.545h22.626v4.545
				h-9.145v13.115c4.354-0.939,7.864-1.775,10.529-2.508L610.061,495.457z M628.271,462.068l-3.475,3.004
				c-2.265-2.037-4.493-3.588-6.688-4.65l3.632-3.213C624.421,458.654,626.599,460.273,628.271,462.068z"/>
		</g>
	</g>
	<g>
		<g id="XMLID_43_">
			<g id="XMLID_45_">
				<g id="XMLID_51_">
					<path fill="#FFFFFF" d="M656.666,165.657V1.845c0-22.092-17.91-40.002-40.002-40.002H190.862
						c-22.093,0-40.002,17.91-40.002,40.002v163.813c0,22.093,17.91,40.003,40.002,40.003h425.802
						C638.756,205.66,656.666,187.75,656.666,165.657z"/>
				</g>
				<g id="XMLID_50_">
					<rect x="196.292" y="-38.157" fill="#161922" width="414.943" height="243.817"/>
				</g>
				<g id="XMLID_49_">
					<path fill="#161922" d="M175.09,59.607v54.344c0,1.465-1.187,2.65-2.65,2.65l0,0c-1.463,0-2.65-1.186-2.65-2.65V59.607
						c0-1.463,1.187-2.649,2.65-2.649l0,0C173.904,56.958,175.09,58.145,175.09,59.607z"/>
				</g>
				<g id="XMLID_48_" opacity="0.73">
					<path fill="#161922" d="M635.916,59.973v47.557c0,1.504-1.219,2.724-2.723,2.724l0,0c-1.504,0-2.724-1.22-2.724-2.724V59.973
						c0-1.504,1.22-2.724,2.724-2.724l0,0C634.698,57.249,635.916,58.469,635.916,59.973z"/>
				</g>
				<g id="XMLID_47_">
					<path id="XMLID_33_" fill="#BCBDC2" d="M171.719,37.137c1.534,0,2.921,0.621,3.926,1.626s1.626,2.393,1.626,3.927
						c0,1.533-0.622,2.921-1.626,3.926s-2.393,1.627-3.926,1.627s-2.921-0.622-3.926-1.627s-1.626-2.393-1.626-3.926
						c0-1.534,0.622-2.922,1.626-3.927S170.186,37.137,171.719,37.137z"/>
					<path fill="#BBBCC1" d="M167.796,38.76c0.022-0.021,0.044-0.042,0.066-0.063c0.784-0.751,1.804-1.26,2.947-1.408
						c0.262-0.033,0.53-0.049,0.804-0.043c1.5,0.025,2.863,0.656,3.858,1.658c0.096,0.098,0.188,0.197,0.277,0.3
						c0.834,0.968,1.347,2.221,1.367,3.586c0.008,0.595-0.076,1.168-0.241,1.704c-0.207,0.67-0.54,1.281-0.969,1.807
						c-0.018,0.022-0.036,0.045-0.055,0.066c-0.08,0.096-0.165,0.189-0.252,0.277c-0.473,0.466-1.029,0.846-1.645,1.118
						c-0.699,0.308-1.472,0.474-2.285,0.47c-1.514-0.01-2.882-0.624-3.876-1.617c-1.005-1.005-1.626-2.393-1.626-3.926
						C166.167,41.154,166.789,39.766,167.796,38.76z"/>
					<path fill="#BABBC0" d="M167.799,38.758c0.021-0.021,0.043-0.04,0.064-0.06c0.753-0.717,1.744-1.192,2.858-1.316
						c0.256-0.028,0.518-0.038,0.786-0.028c1.465,0.053,2.806,0.693,3.791,1.693c0.095,0.096,0.186,0.195,0.274,0.299
						c0.828,0.963,1.346,2.201,1.386,3.545c0.018,0.586-0.056,1.148-0.207,1.676c-0.19,0.658-0.502,1.257-0.909,1.771
						c-0.017,0.021-0.034,0.044-0.052,0.064c-0.076,0.094-0.156,0.186-0.239,0.272c-0.476,0.459-1.034,0.834-1.651,1.099
						c-0.7,0.301-1.473,0.459-2.282,0.448c-1.493-0.019-2.844-0.625-3.826-1.606c-1.005-1.005-1.626-2.393-1.626-3.926
						C166.167,41.153,166.791,39.764,167.799,38.758z"/>
					<path fill="#B9BABF" d="M167.801,38.756c0.021-0.02,0.042-0.039,0.063-0.057c0.724-0.683,1.684-1.127,2.77-1.225
						c0.25-0.021,0.505-0.026,0.767-0.012c1.431,0.078,2.747,0.729,3.723,1.727c0.094,0.096,0.185,0.195,0.272,0.297
						c0.821,0.959,1.345,2.183,1.405,3.505c0.026,0.577-0.036,1.13-0.173,1.646c-0.173,0.646-0.459,1.237-0.848,1.737
						c-0.017,0.021-0.033,0.043-0.049,0.063c-0.071,0.092-0.147,0.182-0.225,0.268c-0.479,0.453-1.04,0.821-1.658,1.08
						c-0.702,0.294-1.473,0.441-2.279,0.426c-1.473-0.027-2.806-0.626-3.775-1.596c-1.005-1.005-1.626-2.393-1.626-3.926
						C166.167,41.151,166.792,39.761,167.801,38.756z"/>
					<path fill="#B8B9BF" d="M167.803,38.753c0.021-0.019,0.042-0.036,0.062-0.054c0.695-0.646,1.623-1.06,2.681-1.133
						c0.243-0.016,0.493-0.014,0.748,0.006c1.397,0.107,2.689,0.765,3.655,1.758c0.093,0.097,0.183,0.195,0.27,0.297
						c0.815,0.954,1.344,2.164,1.425,3.465c0.035,0.568-0.016,1.111-0.139,1.618c-0.157,0.634-0.425,1.211-0.787,1.702
						c-0.016,0.021-0.03,0.041-0.046,0.062c-0.067,0.089-0.139,0.177-0.213,0.261c-0.481,0.447-1.044,0.81-1.664,1.063
						c-0.704,0.285-1.474,0.424-2.276,0.404c-1.453-0.037-2.767-0.628-3.725-1.586c-1.005-1.005-1.626-2.393-1.626-3.927
						C166.167,41.15,166.793,39.759,167.803,38.753z"/>
					<path fill="#B7B9BE" d="M167.806,38.751c0.02-0.019,0.04-0.035,0.06-0.051c0.666-0.613,1.563-0.993,2.593-1.04
						c0.236-0.011,0.479-0.004,0.729,0.021c1.363,0.133,2.631,0.8,3.588,1.791c0.092,0.096,0.181,0.194,0.267,0.295
						c0.809,0.949,1.343,2.145,1.444,3.426c0.043,0.558,0.005,1.092-0.105,1.589c-0.139,0.623-0.389,1.187-0.727,1.667
						c-0.014,0.02-0.028,0.04-0.043,0.06c-0.063,0.088-0.13,0.173-0.2,0.255c-0.485,0.441-1.049,0.798-1.67,1.044
						c-0.706,0.278-1.475,0.409-2.273,0.383c-1.432-0.046-2.729-0.629-3.675-1.575c-1.005-1.005-1.627-2.393-1.627-3.926
						C166.166,41.148,166.794,39.756,167.806,38.751z"/>
					<path fill="#B6B8BD" d="M167.808,38.749c0.02-0.019,0.039-0.032,0.059-0.047c0.636-0.579,1.502-0.931,2.504-0.95
						c0.23-0.004,0.466,0.01,0.709,0.039c1.328,0.159,2.573,0.836,3.52,1.824c0.092,0.096,0.18,0.193,0.265,0.294
						c0.802,0.944,1.343,2.126,1.463,3.385c0.052,0.549,0.025,1.074-0.072,1.562c-0.122,0.61-0.354,1.16-0.666,1.631
						c-0.013,0.02-0.026,0.039-0.04,0.059c-0.059,0.086-0.122,0.17-0.187,0.249c-0.488,0.436-1.054,0.786-1.677,1.025
						c-0.707,0.271-1.475,0.393-2.271,0.361c-1.411-0.056-2.69-0.63-3.625-1.565c-1.005-1.005-1.626-2.393-1.626-3.926
						C166.167,41.148,166.795,39.755,167.808,38.749z"/>
					<path fill="#B5B7BC" d="M167.811,38.746c0.019-0.017,0.038-0.031,0.058-0.044c0.607-0.544,1.442-0.864,2.416-0.857
						c0.223,0.001,0.454,0.021,0.69,0.055c1.294,0.183,2.515,0.872,3.452,1.857c0.09,0.096,0.178,0.193,0.262,0.294
						c0.796,0.939,1.342,2.105,1.483,3.344c0.061,0.54,0.045,1.055-0.038,1.533c-0.104,0.598-0.32,1.133-0.605,1.596
						c-0.012,0.02-0.024,0.039-0.037,0.057c-0.055,0.084-0.113,0.166-0.173,0.243c-0.491,0.431-1.06,0.774-1.684,1.008
						c-0.708,0.264-1.475,0.376-2.267,0.34c-1.392-0.063-2.651-0.633-3.574-1.556c-1.005-1.005-1.626-2.393-1.626-3.926
						C166.167,41.146,166.796,39.752,167.811,38.746z"/>
					<path fill="#B4B6BB" d="M167.813,38.744c0.019-0.016,0.037-0.029,0.056-0.041c0.578-0.51,1.382-0.799,2.327-0.766
						c0.217,0.008,0.441,0.031,0.671,0.07c1.26,0.209,2.458,0.908,3.384,1.892c0.09,0.095,0.176,0.192,0.26,0.292
						c0.79,0.936,1.341,2.088,1.502,3.304c0.069,0.53,0.065,1.036-0.004,1.505c-0.087,0.586-0.272,1.115-0.544,1.561
						c-0.011,0.019-0.023,0.037-0.034,0.056c-0.051,0.081-0.104,0.161-0.161,0.237c-0.493,0.424-1.064,0.762-1.689,0.988
						c-0.71,0.258-1.476,0.359-2.264,0.318c-1.371-0.072-2.612-0.634-3.524-1.545c-1.004-1.005-1.626-2.393-1.626-3.926
						C166.166,41.146,166.797,39.75,167.813,38.744z"/>
					<path fill="#B3B5BA" d="M167.816,38.742c0.018-0.016,0.037-0.027,0.055-0.038c0.548-0.476,1.322-0.731,2.239-0.674
						c0.21,0.013,0.428,0.044,0.652,0.087c1.226,0.237,2.399,0.943,3.317,1.924c0.088,0.095,0.174,0.192,0.258,0.291
						c0.783,0.932,1.34,2.068,1.521,3.264c0.078,0.521,0.086,1.018,0.03,1.477c-0.07,0.574-0.236,1.091-0.484,1.525
						c-0.011,0.019-0.021,0.037-0.031,0.055c-0.046,0.079-0.096,0.157-0.147,0.23c-0.497,0.418-1.069,0.751-1.696,0.971
						c-0.712,0.25-1.476,0.344-2.261,0.297c-1.351-0.08-2.574-0.635-3.474-1.535c-1.004-1.004-1.626-2.393-1.626-3.926
						C166.167,41.145,166.799,39.748,167.816,38.742z"/>
					<path fill="#B2B4BA" d="M167.819,38.739c0.017-0.015,0.035-0.024,0.053-0.034c0.519-0.441,1.261-0.666,2.15-0.582
						c0.204,0.02,0.416,0.055,0.633,0.104c1.191,0.265,2.341,0.979,3.249,1.957c0.088,0.094,0.172,0.191,0.255,0.289
						c0.779,0.926,1.339,2.051,1.541,3.225c0.086,0.512,0.107,0.998,0.064,1.447c-0.054,0.563-0.202,1.065-0.424,1.49
						c-0.009,0.018-0.019,0.035-0.028,0.053c-0.042,0.078-0.087,0.154-0.134,0.225c-0.5,0.413-1.074,0.739-1.703,0.953
						c-0.713,0.242-1.477,0.327-2.258,0.275c-1.33-0.088-2.536-0.637-3.424-1.525c-1.005-1.005-1.626-2.393-1.626-3.926
						C166.167,41.143,166.799,39.746,167.819,38.739z"/>
					<path fill="#B1B3B9" d="M167.821,38.737c0.017-0.015,0.035-0.023,0.052-0.031c0.489-0.407,1.201-0.601,2.062-0.491
						c0.197,0.025,0.402,0.067,0.614,0.121c1.157,0.291,2.283,1.014,3.181,1.99c0.087,0.094,0.171,0.189,0.253,0.288
						c0.771,0.922,1.338,2.03,1.56,3.184c0.095,0.502,0.127,0.979,0.098,1.419c-0.037,0.55-0.166,1.04-0.363,1.455
						c-0.008,0.018-0.017,0.035-0.025,0.052c-0.038,0.075-0.078,0.149-0.122,0.219c-0.502,0.407-1.079,0.727-1.708,0.935
						c-0.715,0.234-1.478,0.311-2.256,0.254c-1.309-0.097-2.497-0.64-3.373-1.516c-1.005-1.005-1.626-2.393-1.626-3.926
						C166.167,41.142,166.801,39.744,167.821,38.737z"/>
					<path fill="#B0B2B8" d="M167.823,38.734c0.017-0.012,0.033-0.021,0.051-0.027c0.46-0.373,1.142-0.535,1.974-0.398
						c0.19,0.031,0.39,0.078,0.595,0.136c1.123,0.316,2.225,1.05,3.113,2.023c0.086,0.094,0.17,0.19,0.251,0.287
						c0.764,0.917,1.337,2.012,1.579,3.144c0.104,0.492,0.147,0.961,0.131,1.391c-0.02,0.538-0.126,1.018-0.302,1.42
						c-0.007,0.017-0.015,0.034-0.022,0.05c-0.034,0.073-0.07,0.146-0.108,0.214c-0.505,0.4-1.085,0.715-1.716,0.915
						c-0.716,0.228-1.477,0.295-2.252,0.231c-1.29-0.104-2.459-0.639-3.323-1.504c-1.005-1.005-1.627-2.393-1.627-3.926
						C166.166,41.141,166.802,39.742,167.823,38.734z"/>
					<path fill="#AFB2B7" d="M167.826,38.732c0.016-0.012,0.032-0.02,0.049-0.024c0.431-0.338,1.081-0.468,1.885-0.308
						c0.185,0.037,0.377,0.09,0.576,0.152c1.089,0.343,2.167,1.087,3.046,2.057c0.085,0.094,0.167,0.189,0.249,0.287
						c0.76,0.91,1.336,1.992,1.598,3.103c0.112,0.483,0.167,0.941,0.165,1.362c-0.002,0.525-0.086,0.994-0.241,1.385
						c-0.007,0.017-0.014,0.033-0.02,0.049c-0.029,0.071-0.061,0.142-0.095,0.207c-0.508,0.395-1.089,0.703-1.722,0.897
						c-0.719,0.22-1.478,0.278-2.25,0.21c-1.269-0.113-2.42-0.642-3.272-1.494c-1.005-1.005-1.627-2.393-1.627-3.927
						C166.166,41.14,166.803,39.739,167.826,38.732z"/>
					<path fill="#AEB1B6" d="M167.829,38.73c0.015-0.012,0.031-0.018,0.047-0.021c0.401-0.304,1.021-0.403,1.796-0.216
						c0.179,0.043,0.364,0.101,0.557,0.169c1.054,0.37,2.106,1.125,2.978,2.09c0.084,0.094,0.166,0.188,0.246,0.285
						c0.751,0.908,1.335,1.974,1.618,3.063c0.121,0.475,0.187,0.923,0.199,1.334c0.015,0.514-0.057,0.967-0.181,1.35
						c-0.005,0.016-0.011,0.032-0.017,0.047c-0.024,0.069-0.052,0.138-0.082,0.202c-0.511,0.389-1.095,0.69-1.728,0.878
						c-0.72,0.213-1.478,0.264-2.247,0.189c-1.248-0.121-2.381-0.643-3.223-1.484c-1.005-1.005-1.627-2.393-1.627-3.926
						C166.166,41.138,166.804,39.737,167.829,38.73z"/>
					<path fill="#ADB0B5" d="M167.831,38.729c0.015-0.012,0.03-0.016,0.046-0.019c0.372-0.27,0.961-0.336,1.708-0.124
						c0.172,0.049,0.351,0.112,0.539,0.186c1.019,0.396,2.05,1.157,2.91,2.122c0.083,0.094,0.164,0.188,0.244,0.285
						c0.745,0.903,1.335,1.954,1.637,3.022c0.13,0.465,0.208,0.903,0.233,1.306c0.031,0.501-0.015,0.944-0.121,1.313
						c-0.004,0.016-0.009,0.031-0.014,0.046c-0.021,0.066-0.044,0.134-0.069,0.195c-0.514,0.384-1.1,0.68-1.734,0.86
						c-0.722,0.205-1.479,0.248-2.244,0.168c-1.228-0.129-2.342-0.645-3.172-1.475c-1.005-1.005-1.626-2.393-1.626-3.926
						C166.167,41.137,166.805,39.735,167.831,38.729z"/>
					<path fill="#ACAFB5" d="M167.834,38.726c0.014-0.01,0.03-0.014,0.045-0.015c0.342-0.234,0.9-0.27,1.619-0.032
						c0.166,0.055,0.338,0.124,0.519,0.202c0.985,0.422,1.993,1.193,2.843,2.154c0.082,0.094,0.162,0.188,0.241,0.285
						c0.739,0.897,1.334,1.935,1.656,2.98c0.139,0.456,0.228,0.885,0.267,1.278c0.048,0.487,0.028,0.921-0.06,1.278
						c-0.003,0.015-0.007,0.03-0.012,0.045c-0.016,0.064-0.035,0.129-0.056,0.188c-0.518,0.378-1.104,0.668-1.741,0.843
						c-0.723,0.198-1.479,0.231-2.241,0.146c-1.207-0.136-2.305-0.646-3.122-1.464c-1.005-1.005-1.626-2.393-1.626-3.927
						C166.167,41.136,166.806,39.733,167.834,38.726z"/>
					<path fill="#ABAEB4" d="M167.837,38.724c0.014-0.009,0.028-0.012,0.043-0.012c0.313-0.2,0.84-0.203,1.531,0.06
						c0.159,0.061,0.325,0.135,0.5,0.218c0.95,0.448,1.937,1.228,2.775,2.188c0.081,0.093,0.16,0.188,0.239,0.283
						c0.733,0.894,1.333,1.916,1.675,2.941c0.147,0.446,0.249,0.865,0.301,1.248c0.065,0.477,0.065,0.896,0.001,1.244
						c-0.002,0.014-0.005,0.029-0.009,0.043c-0.012,0.063-0.026,0.126-0.043,0.184c-0.521,0.372-1.109,0.656-1.747,0.824
						c-0.725,0.19-1.479,0.215-2.238,0.124c-1.187-0.143-2.266-0.647-3.072-1.454c-1.005-1.005-1.626-2.393-1.626-3.926
						C166.167,41.135,166.807,39.73,167.837,38.724z"/>
					<path fill="#AAADB3" d="M167.839,38.721c0.013-0.008,0.027-0.01,0.042-0.008c0.283-0.166,0.78-0.137,1.442,0.151
						c0.152,0.066,0.313,0.147,0.48,0.234c0.915,0.476,1.877,1.265,2.707,2.222c0.081,0.092,0.159,0.186,0.237,0.281
						c0.726,0.89,1.333,1.897,1.695,2.901c0.156,0.437,0.268,0.847,0.334,1.221c0.082,0.464,0.097,0.871,0.062,1.208
						c-0.001,0.014-0.003,0.028-0.005,0.041c-0.008,0.062-0.018,0.122-0.03,0.178c-0.523,0.366-1.114,0.645-1.754,0.806
						c-0.726,0.184-1.479,0.2-2.234,0.103c-1.166-0.149-2.227-0.648-3.021-1.443c-1.005-1.005-1.626-2.393-1.626-3.926
						C166.167,41.133,166.808,39.729,167.839,38.721z"/>
					<path fill="#A9ACB2" d="M167.842,38.719c0.013-0.008,0.026-0.008,0.041-0.005c0.254-0.132,0.721-0.071,1.354,0.243
						c0.146,0.072,0.3,0.158,0.462,0.25c0.881,0.501,1.821,1.299,2.639,2.255c0.079,0.093,0.157,0.186,0.234,0.28
						c0.72,0.885,1.332,1.879,1.714,2.861c0.165,0.428,0.289,0.828,0.368,1.192c0.099,0.452,0.128,0.847,0.122,1.173
						c0,0.014-0.001,0.027-0.002,0.04c-0.003,0.059-0.009,0.118-0.017,0.171c-0.526,0.361-1.119,0.633-1.76,0.788
						c-0.728,0.176-1.479,0.185-2.232,0.081c-1.146-0.156-2.188-0.65-2.971-1.434c-1.005-1.005-1.626-2.393-1.626-3.927
						C166.167,41.132,166.809,39.727,167.842,38.719z"/>
					<path fill="#A8ABB1" d="M167.844,38.717c0.012-0.007,0.025-0.007,0.039-0.003c0.225-0.097,0.661-0.005,1.266,0.336
						c0.14,0.079,0.287,0.169,0.443,0.267c0.847,0.526,1.761,1.336,2.571,2.287c0.078,0.093,0.155,0.186,0.231,0.28
						c0.711,0.882,1.333,1.858,1.733,2.821c0.174,0.418,0.309,0.808,0.402,1.163c0.116,0.44,0.177,0.822,0.183,1.138
						c0,0.013,0,0.025,0,0.039c0.001,0.057,0,0.113-0.003,0.166c-0.53,0.354-1.125,0.619-1.768,0.769
						c-0.729,0.169-1.48,0.169-2.229,0.06c-1.125-0.164-2.15-0.652-2.921-1.424c-1.005-1.005-1.626-2.393-1.626-3.926
						C166.167,41.131,166.811,39.725,167.844,38.717z"/>
					<path fill="#A7AAB0" d="M167.847,38.714c0.011-0.006,0.024-0.004,0.037,0.001c0.196-0.063,0.601,0.063,1.177,0.428
						c0.133,0.084,0.274,0.181,0.424,0.283c0.813,0.552,1.703,1.372,2.503,2.32c0.078,0.092,0.154,0.185,0.23,0.278
						c0.707,0.876,1.33,1.841,1.752,2.78c0.182,0.41,0.329,0.79,0.436,1.136c0.132,0.427,0.214,0.798,0.244,1.103
						c0.001,0.012,0.002,0.025,0.003,0.037c0.005,0.055,0.008,0.109,0.009,0.16c-0.532,0.348-1.129,0.607-1.773,0.75
						c-0.731,0.162-1.48,0.153-2.226,0.038c-1.104-0.171-2.111-0.653-2.871-1.413c-1.005-1.005-1.626-2.393-1.626-3.926
						C166.167,41.129,166.811,39.723,167.847,38.714z"/>
					<path fill="#A7AAB0" d="M167.849,38.712c0.011-0.005,0.023-0.003,0.037,0.004c0.166-0.028,0.54,0.129,1.088,0.519
						c0.127,0.091,0.261,0.193,0.405,0.3c0.778,0.579,1.643,1.41,2.436,2.354c0.077,0.091,0.152,0.184,0.228,0.277
						c0.701,0.87,1.329,1.82,1.771,2.74c0.19,0.399,0.349,0.77,0.47,1.107c0.149,0.414,0.24,0.774,0.304,1.066
						c0.003,0.012,0.005,0.024,0.007,0.035c0.009,0.053,0.016,0.106,0.022,0.154c-0.535,0.343-1.134,0.597-1.779,0.732
						c-0.733,0.154-1.481,0.138-2.223,0.017c-1.084-0.177-2.072-0.655-2.82-1.403c-1.005-1.005-1.626-2.393-1.626-3.926
						C166.167,41.128,166.813,39.72,167.849,38.712z"/>
					<path fill="#A6A9AF" d="M167.852,38.709c0.011-0.004,0.022,0,0.035,0.008c0.137,0.007,0.48,0.195,1,0.611
						c0.12,0.096,0.248,0.203,0.386,0.315c0.742,0.604,1.586,1.443,2.368,2.387c0.075,0.091,0.15,0.184,0.225,0.276
						c0.694,0.866,1.328,1.802,1.791,2.7c0.199,0.39,0.369,0.751,0.503,1.078c0.166,0.403,0.285,0.75,0.365,1.031
						c0.003,0.013,0.006,0.024,0.01,0.035c0.013,0.051,0.024,0.103,0.035,0.147c-0.538,0.338-1.14,0.585-1.786,0.715
						c-0.735,0.146-1.481,0.123-2.22-0.006c-1.064-0.184-2.034-0.656-2.771-1.393c-1.005-1.005-1.626-2.393-1.626-3.926
						C166.167,41.127,166.814,39.718,167.852,38.709z"/>
					<path fill="#A5A8AE" d="M167.854,38.707c0.01-0.004,0.022,0.002,0.034,0.011c0.107,0.04,0.419,0.262,0.911,0.702
						c0.114,0.103,0.235,0.215,0.367,0.332c0.709,0.631,1.529,1.48,2.301,2.421c0.075,0.091,0.149,0.183,0.223,0.274
						c0.688,0.861,1.329,1.783,1.81,2.66c0.209,0.381,0.389,0.732,0.537,1.05c0.183,0.391,0.326,0.725,0.426,0.996
						c0.004,0.011,0.008,0.022,0.012,0.034c0.018,0.048,0.034,0.098,0.048,0.142c-0.541,0.331-1.144,0.573-1.792,0.696
						c-0.736,0.139-1.481,0.106-2.217-0.027c-1.043-0.189-1.996-0.658-2.72-1.383c-1.005-1.005-1.626-2.393-1.626-3.926
						C166.167,41.126,166.815,39.716,167.854,38.707z"/>
					<path fill="#A4A7AD" d="M167.857,38.705c0.01-0.003,0.021,0.003,0.032,0.014c0.078,0.075,0.361,0.326,0.823,0.794
						c0.107,0.108,0.222,0.227,0.348,0.349c0.675,0.656,1.47,1.516,2.232,2.453c0.074,0.091,0.147,0.183,0.221,0.274
						c0.682,0.856,1.329,1.763,1.83,2.619c0.217,0.372,0.409,0.714,0.571,1.022c0.198,0.378,0.352,0.703,0.485,0.96
						c0.006,0.011,0.011,0.022,0.016,0.032c0.022,0.047,0.042,0.094,0.062,0.137c-0.544,0.324-1.15,0.561-1.799,0.677
						c-0.738,0.132-1.481,0.092-2.214-0.048c-1.022-0.196-1.957-0.66-2.67-1.373c-1.005-1.005-1.626-2.393-1.626-3.927
						C166.167,41.125,166.816,39.713,167.857,38.705z"/>
					<path fill="#A3A6AC" d="M167.859,38.703c0.009-0.002,0.02,0.005,0.031,0.017c0.049,0.109,0.3,0.395,0.734,0.886
						c0.102,0.115,0.209,0.238,0.329,0.365c0.64,0.682,1.413,1.551,2.166,2.486c0.073,0.09,0.146,0.182,0.218,0.273
						c0.675,0.852,1.328,1.743,1.849,2.578c0.226,0.362,0.429,0.695,0.605,0.994c0.215,0.365,0.395,0.678,0.546,0.925
						c0.006,0.011,0.012,0.021,0.018,0.03c0.026,0.045,0.051,0.091,0.074,0.131c-0.547,0.319-1.154,0.549-1.805,0.659
						c-0.74,0.124-1.482,0.077-2.211-0.069c-1.002-0.203-1.918-0.662-2.619-1.363c-1.005-1.005-1.626-2.393-1.626-3.926
						C166.167,41.123,166.817,39.712,167.859,38.703z"/>
					<path fill="#A2A5AB" d="M167.862,38.7c0.009-0.001,0.019,0.008,0.03,0.021c0.019,0.144,0.24,0.461,0.646,0.978
						c0.095,0.12,0.196,0.249,0.31,0.381c0.607,0.707,1.35,1.591,2.097,2.52c0.073,0.091,0.145,0.182,0.216,0.272
						c0.668,0.848,1.326,1.725,1.868,2.539c0.234,0.352,0.449,0.676,0.639,0.965c0.232,0.354,0.432,0.653,0.607,0.891
						c0.007,0.009,0.014,0.02,0.021,0.028c0.03,0.042,0.059,0.086,0.087,0.125c-0.55,0.313-1.159,0.536-1.812,0.64
						c-0.741,0.117-1.482,0.063-2.208-0.091c-0.981-0.208-1.88-0.663-2.569-1.353c-1.005-1.005-1.626-2.393-1.626-3.926
						C166.167,41.122,166.818,39.709,167.862,38.7z"/>
					<path fill="#A1A4AB" d="M167.865,38.697c0.008,0,0.018,0.01,0.028,0.023c-0.011,0.18,0.178,0.529,0.557,1.07
						c0.088,0.127,0.184,0.261,0.291,0.397c0.571,0.733,1.297,1.622,2.03,2.552c0.071,0.091,0.143,0.182,0.214,0.271
						c0.664,0.842,1.325,1.705,1.887,2.499c0.243,0.343,0.468,0.656,0.672,0.937c0.249,0.342,0.469,0.629,0.668,0.855
						c0.008,0.008,0.016,0.019,0.023,0.027c0.035,0.04,0.068,0.082,0.101,0.118c-0.553,0.308-1.164,0.524-1.817,0.622
						c-0.743,0.11-1.483,0.047-2.206-0.113c-0.96-0.213-1.841-0.664-2.519-1.342c-1.005-1.005-1.626-2.393-1.626-3.927
						C166.167,41.121,166.82,39.707,167.865,38.697z"/>
					<path fill="#A0A3AA" d="M167.867,38.695c0.007,0.001,0.016,0.012,0.027,0.027c-0.04,0.213,0.118,0.594,0.469,1.161
						c0.082,0.132,0.171,0.271,0.271,0.413c0.538,0.76,1.238,1.658,1.962,2.586c0.07,0.09,0.14,0.18,0.211,0.271
						c0.656,0.838,1.325,1.687,1.907,2.458c0.252,0.334,0.488,0.637,0.706,0.908c0.265,0.329,0.503,0.609,0.728,0.819
						c0.01,0.009,0.019,0.019,0.027,0.026c0.039,0.038,0.076,0.078,0.113,0.113c-0.556,0.301-1.169,0.513-1.824,0.604
						c-0.744,0.103-1.483,0.033-2.202-0.135c-0.941-0.219-1.803-0.666-2.469-1.332c-1.005-1.005-1.626-2.393-1.626-3.926
						C166.167,41.12,166.821,39.705,167.867,38.695z"/>
					<path fill="#9FA2A9" d="M167.869,38.693c0.007,0.001,0.016,0.014,0.025,0.03c-0.069,0.247,0.058,0.661,0.38,1.252
						c0.076,0.14,0.159,0.284,0.253,0.431c0.503,0.785,1.182,1.692,1.895,2.618c0.069,0.09,0.139,0.18,0.208,0.27
						c0.648,0.835,1.325,1.667,1.927,2.418c0.26,0.324,0.508,0.619,0.739,0.88c0.282,0.318,0.546,0.58,0.79,0.784
						c0.01,0.009,0.02,0.018,0.029,0.025c0.043,0.036,0.085,0.074,0.126,0.106c-0.559,0.296-1.174,0.502-1.83,0.586
						c-0.746,0.096-1.483,0.019-2.2-0.156c-0.92-0.225-1.764-0.668-2.418-1.322c-1.005-1.005-1.626-2.393-1.626-3.926
						C166.167,41.119,166.821,39.703,167.869,38.693z"/>
					<path fill="#9EA2A8" d="M167.872,38.69c0.006,0.003,0.015,0.016,0.023,0.034c-0.099,0.281-0.002,0.727,0.292,1.344
						c0.069,0.145,0.146,0.295,0.233,0.447c0.469,0.811,1.122,1.729,1.827,2.651c0.068,0.089,0.137,0.179,0.207,0.269
						c0.643,0.829,1.322,1.647,1.945,2.378c0.269,0.314,0.527,0.599,0.773,0.851c0.298,0.305,0.583,0.557,0.85,0.749
						c0.011,0.008,0.021,0.017,0.032,0.023c0.048,0.034,0.094,0.07,0.14,0.101c-0.562,0.291-1.179,0.49-1.837,0.568
						c-0.748,0.088-1.483,0.003-2.197-0.179c-0.9-0.229-1.725-0.669-2.368-1.312c-1.005-1.005-1.626-2.393-1.626-3.927
						C166.167,41.117,166.823,39.701,167.872,38.69z"/>
					<path fill="#9DA1A7" d="M167.874,38.688c0.006,0.003,0.014,0.017,0.023,0.036c-0.128,0.316-0.063,0.795,0.203,1.437
						c0.063,0.151,0.133,0.306,0.214,0.463c0.435,0.837,1.064,1.767,1.759,2.685c0.067,0.09,0.135,0.179,0.204,0.268
						c0.637,0.824,1.32,1.631,1.965,2.338c0.277,0.307,0.547,0.58,0.808,0.822c0.314,0.293,0.619,0.533,0.91,0.714
						c0.012,0.007,0.023,0.016,0.035,0.022c0.052,0.032,0.103,0.066,0.152,0.095c-0.564,0.284-1.184,0.478-1.843,0.549
						c-0.749,0.081-1.484-0.011-2.194-0.2c-0.88-0.234-1.687-0.67-2.317-1.301c-1.005-1.005-1.626-2.393-1.626-3.926
						C166.167,41.116,166.823,39.698,167.874,38.688z"/>
					<path fill="#9CA0A6" d="M167.877,38.687c0.005,0.003,0.013,0.019,0.021,0.04c-0.158,0.35-0.124,0.86,0.115,1.527
						c0.056,0.157,0.12,0.318,0.195,0.479c0.401,0.862,1.005,1.803,1.691,2.718c0.067,0.089,0.134,0.178,0.202,0.266
						c0.631,0.82,1.321,1.61,1.984,2.298c0.286,0.296,0.567,0.562,0.841,0.794c0.331,0.281,0.654,0.514,0.97,0.679
						c0.014,0.007,0.026,0.015,0.039,0.021c0.056,0.03,0.111,0.063,0.166,0.089c-0.567,0.278-1.189,0.466-1.849,0.531
						c-0.751,0.073-1.485-0.024-2.191-0.222c-0.859-0.238-1.647-0.672-2.267-1.291c-1.005-1.005-1.626-2.393-1.626-3.926
						C166.167,41.115,166.824,39.696,167.877,38.687z"/>
					<path fill="#9B9FA6" d="M167.88,38.684c0.004,0.005,0.012,0.021,0.019,0.043c-0.186,0.385-0.183,0.928,0.027,1.62
						c0.049,0.163,0.106,0.329,0.176,0.495c0.368,0.887,0.949,1.838,1.624,2.752c0.065,0.088,0.132,0.177,0.199,0.265
						c0.625,0.814,1.319,1.593,2.003,2.257c0.294,0.287,0.588,0.543,0.875,0.766c0.347,0.27,0.693,0.485,1.032,0.644
						c0.014,0.007,0.027,0.014,0.041,0.02c0.061,0.028,0.12,0.059,0.179,0.083c-0.57,0.272-1.195,0.453-1.856,0.512
						c-0.752,0.066-1.486-0.038-2.188-0.242c-0.84-0.244-1.61-0.674-2.217-1.281c-1.005-1.005-1.627-2.393-1.627-3.926
						C166.166,41.113,166.826,39.694,167.88,38.684z"/>
					<path fill="#9A9EA5" d="M167.882,38.682c0.004,0.005,0.011,0.022,0.018,0.046c-0.216,0.42-0.245,0.994-0.062,1.712
						c0.043,0.169,0.095,0.34,0.157,0.512c0.333,0.914,0.891,1.873,1.556,2.783c0.065,0.09,0.13,0.178,0.197,0.265
						c0.622,0.808,1.317,1.573,2.022,2.218c0.303,0.277,0.607,0.523,0.91,0.736c0.364,0.258,0.73,0.462,1.092,0.608
						c0.015,0.006,0.029,0.013,0.044,0.019c0.065,0.025,0.128,0.054,0.192,0.076c-0.573,0.267-1.199,0.442-1.862,0.494
						c-0.754,0.059-1.487-0.053-2.186-0.264c-0.82-0.249-1.571-0.676-2.167-1.271c-1.005-1.005-1.627-2.393-1.627-3.926
						C166.166,41.112,166.827,39.691,167.882,38.682z"/>
					<path fill="#999DA4" d="M167.885,38.68c0.004,0.006,0.01,0.024,0.016,0.049c-0.245,0.454-0.305,1.061-0.15,1.803
						c0.037,0.176,0.082,0.352,0.138,0.529c0.3,0.938,0.835,1.906,1.488,2.816c0.063,0.089,0.128,0.176,0.194,0.264
						c0.612,0.806,1.317,1.555,2.042,2.177c0.312,0.269,0.627,0.505,0.943,0.709c0.38,0.245,0.768,0.439,1.152,0.572
						c0.016,0.005,0.032,0.012,0.047,0.017c0.069,0.023,0.137,0.051,0.205,0.071c-0.576,0.261-1.205,0.43-1.869,0.476
						c-0.756,0.051-1.488-0.066-2.182-0.285c-0.801-0.254-1.532-0.678-2.117-1.262c-1.005-1.005-1.626-2.393-1.626-3.927
						C166.167,41.111,166.828,39.689,167.885,38.68z"/>
					<path fill="#989CA3" d="M167.887,38.678c0.003,0.006,0.009,0.025,0.016,0.052c-0.275,0.488-0.367,1.126-0.239,1.896
						c0.03,0.181,0.069,0.362,0.119,0.545c0.267,0.964,0.774,1.943,1.42,2.85c0.063,0.088,0.127,0.176,0.192,0.262
						c0.605,0.801,1.316,1.535,2.061,2.137c0.32,0.26,0.647,0.486,0.977,0.681c0.396,0.233,0.803,0.421,1.213,0.537
						c0.017,0.005,0.034,0.011,0.05,0.015c0.073,0.022,0.146,0.047,0.218,0.066c-0.58,0.255-1.209,0.418-1.875,0.456
						c-0.757,0.044-1.489-0.079-2.179-0.307c-0.78-0.258-1.494-0.679-2.066-1.251c-1.005-1.005-1.626-2.393-1.626-3.926
						C166.167,41.109,166.829,39.688,167.887,38.678z"/>
					<path fill="#979BA2" d="M167.89,38.674c0.002,0.009,0.008,0.029,0.014,0.057c-0.304,0.522-0.428,1.193-0.327,1.986
						c0.023,0.188,0.056,0.375,0.1,0.562c0.233,0.99,0.717,1.979,1.353,2.883c0.062,0.088,0.125,0.175,0.19,0.261
						c0.602,0.795,1.314,1.518,2.08,2.097c0.329,0.25,0.667,0.468,1.011,0.652c0.414,0.222,0.842,0.396,1.274,0.502
						c0.017,0.005,0.035,0.01,0.053,0.014c0.077,0.021,0.154,0.043,0.23,0.06c-0.582,0.249-1.214,0.406-1.881,0.438
						c-0.759,0.036-1.49-0.093-2.176-0.329c-0.76-0.262-1.456-0.68-2.016-1.24c-1.005-1.005-1.626-2.393-1.626-3.926
						C166.167,41.109,166.83,39.686,167.89,38.674z"/>
					<path fill="#969BA1" d="M167.893,38.672c0.002,0.009,0.006,0.031,0.012,0.06c-0.333,0.557-0.488,1.259-0.416,2.079
						c0.017,0.192,0.043,0.385,0.081,0.576c0.201,1.017,0.658,2.016,1.285,2.917c0.061,0.087,0.124,0.175,0.188,0.26
						c0.593,0.792,1.314,1.497,2.1,2.056c0.337,0.241,0.687,0.449,1.044,0.624c0.43,0.21,0.879,0.372,1.335,0.467
						c0.019,0.004,0.037,0.009,0.056,0.012c0.082,0.019,0.163,0.039,0.244,0.054c-0.585,0.244-1.22,0.395-1.889,0.421
						c-0.76,0.029-1.49-0.106-2.173-0.351c-0.741-0.266-1.417-0.682-1.966-1.23c-1.005-1.005-1.626-2.393-1.626-3.926
						C166.167,41.107,166.831,39.684,167.893,38.672z"/>
					<path fill="#959AA1" d="M167.895,38.67c0.002,0.01,0.006,0.033,0.011,0.063c-0.363,0.592-0.549,1.325-0.504,2.17
						c0.01,0.199,0.031,0.397,0.062,0.594c0.167,1.042,0.601,2.051,1.217,2.949c0.06,0.088,0.122,0.174,0.185,0.26
						c0.586,0.787,1.314,1.479,2.119,2.016c0.346,0.23,0.707,0.43,1.078,0.595c0.447,0.198,0.916,0.351,1.395,0.432
						c0.02,0.003,0.04,0.008,0.059,0.011c0.086,0.016,0.171,0.035,0.256,0.047c-0.587,0.238-1.224,0.384-1.894,0.402
						c-0.763,0.022-1.492-0.117-2.17-0.371c-0.722-0.271-1.378-0.684-1.916-1.221c-1.005-1.005-1.626-2.393-1.626-3.926
						C166.167,41.106,166.833,39.682,167.895,38.67z"/>
					<path fill="#9499A0" d="M167.898,38.668c0.001,0.01,0.004,0.034,0.009,0.064c-0.392,0.627-0.608,1.393-0.593,2.263
						c0.004,0.205,0.019,0.408,0.043,0.61c0.133,1.067,0.542,2.088,1.149,2.982c0.06,0.087,0.12,0.173,0.183,0.258
						c0.58,0.783,1.313,1.459,2.139,1.975c0.355,0.223,0.727,0.412,1.112,0.567c0.462,0.187,0.955,0.32,1.455,0.396
						c0.021,0.004,0.042,0.008,0.062,0.01c0.09,0.015,0.18,0.031,0.27,0.042c-0.591,0.231-1.229,0.371-1.901,0.384
						c-0.764,0.015-1.493-0.131-2.167-0.394c-0.702-0.273-1.339-0.685-1.865-1.21c-1.005-1.005-1.626-2.393-1.626-3.926
						C166.167,41.105,166.833,39.68,167.898,38.668z"/>
					<path fill="#93989F" d="M167.9,38.666c0,0.011,0.004,0.035,0.009,0.068c-0.422,0.66-0.669,1.457-0.682,2.354
						c-0.003,0.211,0.005,0.42,0.023,0.627c0.099,1.094,0.485,2.123,1.082,3.015c0.059,0.087,0.119,0.173,0.181,0.257
						c0.575,0.776,1.312,1.441,2.157,1.936c0.363,0.213,0.747,0.394,1.146,0.539c0.479,0.174,0.992,0.295,1.517,0.359
						c0.021,0.003,0.043,0.007,0.064,0.009c0.094,0.012,0.188,0.026,0.282,0.036c-0.593,0.226-1.234,0.358-1.907,0.365
						c-0.766,0.008-1.496-0.144-2.165-0.415c-0.684-0.277-1.301-0.687-1.815-1.2c-1.005-1.005-1.626-2.393-1.626-3.926
						C166.167,41.104,166.835,39.677,167.9,38.666z"/>
					<path id="XMLID_29_" fill="#92979E" d="M173.337,47.865c-0.022-0.002-0.045-0.006-0.067-0.008
						c-0.547-0.059-1.081-0.162-1.577-0.324c-1.375-0.45-2.545-1.3-3.356-2.406c-0.811-1.105-1.262-2.469-1.197-3.946
						c0.041-0.921,0.319-1.751,0.77-2.446c-0.004-0.033-0.007-0.06-0.007-0.071c-1.067,1.012-1.736,2.439-1.736,4.026
						c0,1.533,0.622,2.921,1.626,3.926c0.502,0.502,1.101,0.909,1.765,1.189c0.665,0.281,1.395,0.438,2.162,0.438
						c0.674,0,1.317-0.127,1.914-0.348C173.534,47.888,173.436,47.875,173.337,47.865z"/>
				</g>
				<g id="XMLID_46_">
					<circle id="XMLID_28_" fill="#878B92" cx="171.679" cy="42.648" r="2.287"/>
					<circle fill="#898D94" cx="171.678" cy="42.647" r="2.274"/>
					<circle fill="#8A8F96" cx="171.677" cy="42.647" r="2.261"/>
					<circle fill="#8C9198" cx="171.677" cy="42.646" r="2.248"/>
					<circle fill="#8E929A" cx="171.675" cy="42.645" r="2.234"/>
					<circle fill="#90949C" cx="171.675" cy="42.644" r="2.221"/>
					<circle fill="#91969E" cx="171.674" cy="42.644" r="2.208"/>
					<circle fill="#93989F" cx="171.673" cy="42.642" r="2.195"/>
					<circle fill="#959AA1" cx="171.672" cy="42.641" r="2.181"/>
					<circle fill="#969CA3" cx="171.671" cy="42.641" r="2.168"/>
					<circle fill="#989EA5" cx="171.671" cy="42.64" r="2.155"/>
					<circle fill="#9AA0A7" cx="171.67" cy="42.64" r="2.142"/>
					<circle fill="#9CA1A9" cx="171.669" cy="42.638" r="2.128"/>
					<circle fill="#9DA3AB" cx="171.668" cy="42.637" r="2.115"/>
					<circle fill="#9FA5AD" cx="171.667" cy="42.637" r="2.102"/>
					<circle fill="#A1A7AF" cx="171.666" cy="42.636" r="2.088"/>
					<circle fill="#A2A9B1" cx="171.665" cy="42.635" r="2.075"/>
					<circle fill="#A4ABB3" cx="171.664" cy="42.634" r="2.062"/>
					<circle fill="#A6ADB5" cx="171.663" cy="42.633" r="2.049"/>
					<circle fill="#A7AEB6" cx="171.663" cy="42.633" r="2.035"/>
					<circle fill="#A9B0B8" cx="171.662" cy="42.631" r="2.022"/>
					<circle fill="#ABB2BA" cx="171.661" cy="42.63" r="2.008"/>
					<circle fill="#ADB4BC" cx="171.66" cy="42.63" r="1.995"/>
					<circle fill="#AEB6BE" cx="171.659" cy="42.629" r="1.982"/>
					<circle fill="#B0B8C0" cx="171.658" cy="42.628" r="1.969"/>
					<circle fill="#B2BAC2" cx="171.657" cy="42.627" r="1.955"/>
					<circle fill="#B3BCC4" cx="171.656" cy="42.626" r="1.942"/>
					<circle fill="#B5BDC6" cx="171.656" cy="42.625" r="1.929"/>
					<circle fill="#B7BFC8" cx="171.655" cy="42.625" r="1.916"/>
					<circle fill="#B9C1CA" cx="171.655" cy="42.624" r="1.902"/>
					<circle fill="#BAC3CC" cx="171.654" cy="42.623" r="1.889"/>
					<circle fill="#BCC5CE" cx="171.653" cy="42.622" r="1.876"/>
					<circle fill="#BEC7CF" cx="171.652" cy="42.621" r="1.862"/>
					<circle fill="#BFC9D1" cx="171.651" cy="42.621" r="1.849"/>
					<circle fill="#C1CBD3" cx="171.65" cy="42.62" r="1.835"/>
					<circle fill="#C3CCD5" cx="171.649" cy="42.619" r="1.823"/>
					<circle fill="#C5CED7" cx="171.648" cy="42.618" r="1.809"/>
					<circle fill="#C6D0D9" cx="171.648" cy="42.617" r="1.796"/>
					<circle id="XMLID_27_" fill="#C8D2DB" cx="171.647" cy="42.616" r="1.782"/>
				</g>
			</g>
			<g id="XMLID_44_" opacity="0.1">
				<path fill="#FFFFFF" d="M157.338-28.791c-4.568,4.884-7.362,11.445-7.344,18.66l0.486,189.363
					c0.039,15.037,12.26,27.195,27.296,27.156l18.205-0.047l439.069-2.329L157.338-28.791z"/>
			</g>
		</g>
		<g>
			<g>
				<g>
					<path fill="#FFFFFF" d="M234.875,137.632c-20.857-3.084-28.916,26.852-32.549,43.679c-1.387,6.457-4.814,27.934-5.21,34.812
						c-2.039,35.39-22.517,58.345-32.301,62.774c-13.467,6.102-11.625-23.925-11.874-25.172
						c-1.321-6.857-3.526-138.561-3.526-138.561V71.551c-7.266-2.502-13.996,1.383-18.008,2.543
						c-20.775,6.023-21.08,41.83-31.476,60.359c-7.514,13.376-44.266,51.791-49.178,73.544
						c-4.22,18.678,0.851,116.676-2.337,137.074C44.7,368.942,2.342,425.325,2.342,425.325l78.375,62.848
						c0,0,38.75-64.974,68.186-78.264c12.022-5.429,33.507-28.234,44.728-45.888c20.535-32.314,57.526-84.746,58.724-125.58
						c0.264-8.963-4.393-37.351-2.898-49.319C250.382,184.193,248.714,139.68,234.875,137.632z"/>
					<path fill="#999999" d="M80.718,490.484c-0.521,0-1.033-0.177-1.446-0.509L0.896,427.128c-0.974-0.78-1.152-2.193-0.402-3.191
						c0.42-0.559,42.054-56.192,45.638-79.221c1.461-9.352,1.15-35.468,0.821-63.117c-0.374-31.417-0.761-63.904,1.545-74.11
						c3.387-14.998,20.679-36.751,34.573-54.229c6.667-8.387,12.424-15.629,14.845-19.938c3.416-6.089,5.705-14.133,8.128-22.649
						c4.822-16.949,9.808-34.475,24.719-38.797c0.738-0.215,1.613-0.543,2.626-0.924c3.001-1.13,6.737-2.535,11.013-2.535
						c1.995,0,3.935,0.319,5.765,0.949c0.933,0.321,1.559,1.199,1.559,2.186v43.613c0.612,36.538,2.432,132.66,3.484,138.123
						c0.072,0.359,0.071,0.742,0.071,2.01c-0.001,2.83-0.004,8.719,1.014,13.892c0.737,3.747,2.234,8.214,5.175,8.214
						c0.691,0,1.495-0.206,2.39-0.611c9.519-4.31,29.015-27.266,30.947-60.802c0.41-7.116,3.906-28.868,5.258-35.164
						c2.442-11.312,9.873-45.726,31.874-45.726c1.069,0,2.17,0.082,3.273,0.246c2.848,0.422,5.39,2.175,7.554,5.211
						c8.863,12.438,9.675,44.652,8.977,48.903c-0.856,6.974,0.501,20.37,1.592,31.14c0.772,7.62,1.438,14.202,1.33,17.91
						c-1.086,37.052-30.457,82.444-51.901,115.589c-2.543,3.93-4.959,7.664-7.182,11.162
						c-10.986,17.285-32.876,40.952-45.728,46.755c-28.436,12.839-66.768,76.697-67.152,77.341
						c-0.342,0.574-0.917,0.973-1.574,1.091C80.991,490.472,80.854,490.484,80.718,490.484z M5.527,424.916l74.582,59.806
						c7.272-11.837,40.887-64.748,67.844-76.919c10.895-4.92,32.146-26.799,43.729-45.021c2.229-3.508,4.652-7.253,7.203-11.193
						c21.148-32.687,50.113-77.452,51.161-113.214c0.101-3.407-0.583-10.159-1.308-17.309c-1.175-11.602-2.508-24.751-1.574-32.229
						c0.006-0.047,0.013-0.094,0.022-0.141c0.628-3.349-0.31-34.408-8.183-45.455c-1.407-1.975-2.909-3.092-4.466-3.322
						c-0.88-0.13-1.754-0.195-2.597-0.195c-12.293,0-21.241,13.763-27.354,42.076c-1.329,6.187-4.762,27.514-5.162,34.456
						c-2.07,35.925-22.941,59.896-33.656,64.747c-1.498,0.679-2.943,1.023-4.296,1.023c-4.884,0-8.151-4.019-9.711-11.944
						c-1.105-5.616-1.103-11.81-1.101-14.786c0-0.594,0.004-1.026-0.008-1.251c-1.347-8.305-3.457-133.485-3.547-138.841V73.308
						c-0.871-0.181-1.765-0.269-2.702-0.269c-3.435,0-6.734,1.24-9.385,2.238c-1.058,0.398-2.058,0.773-2.969,1.037
						c-12.451,3.61-17.081,19.885-21.559,35.623c-2.5,8.785-4.86,17.083-8.543,23.646c-2.602,4.633-8.467,12.01-15.257,20.553
						c-12.884,16.206-30.528,38.402-33.683,52.369c-2.186,9.677-1.803,41.888-1.432,73.038c0.332,27.848,0.645,54.151-0.876,63.884
						C47.272,367.448,12.913,414.914,5.527,424.916z"/>
				</g>
			</g>
		</g>
		<g>
			<g>
				<g>
					<path fill="#FFFFFF" d="M571.125,137.632c20.857-3.084,28.916,26.852,32.549,43.679c1.387,6.457,4.814,27.934,5.211,34.812
						c2.039,35.39,22.516,58.345,32.301,62.774c13.467,6.102,11.625-23.925,11.873-25.172c1.321-6.857,3.525-138.561,3.525-138.561
						V71.551c7.268-2.502,13.996,1.383,18.01,2.543c20.773,6.023,21.08,41.83,31.475,60.359
						c7.514,13.376,44.266,51.791,49.179,73.544c4.22,18.678-0.851,116.676,2.337,137.074c3.715,23.871,46.074,80.254,46.074,80.254
						l-78.375,62.848c0,0-38.75-64.974-68.187-78.264c-12.022-5.429-33.507-28.234-44.728-45.888
						c-20.535-32.314-57.527-84.746-58.725-125.58c-0.264-8.963,4.394-37.351,2.898-49.319
						C555.619,184.193,557.286,139.68,571.125,137.632z"/>
					<path fill="#999999" d="M725.283,490.484c-0.137,0-0.274-0.013-0.41-0.037c-0.658-0.118-1.232-0.517-1.575-1.091
						c-0.384-0.644-38.716-64.502-67.152-77.341c-12.852-5.803-34.741-29.47-45.727-46.754c-2.224-3.5-4.641-7.234-7.185-11.166
						c-21.444-33.144-50.813-78.535-51.9-115.587c-0.108-3.707,0.558-10.287,1.33-17.905c1.091-10.771,2.448-24.167,1.592-31.143
						c-0.698-4.242,0.115-36.471,8.979-48.905c2.164-3.036,4.705-4.789,7.553-5.21c1.104-0.164,2.204-0.246,3.273-0.246
						c22.001,0,29.431,34.414,31.873,45.723c1.353,6.299,4.849,28.051,5.259,35.167c1.933,33.537,21.428,56.492,30.946,60.802
						c0.896,0.405,1.7,0.611,2.391,0.611c2.94,0,4.438-4.467,5.175-8.214c1.018-5.173,1.016-11.062,1.014-13.891
						c0-1.269,0-1.651,0.074-2.024c1.05-5.449,2.869-101.571,3.481-138.147l-0.001-43.575c0-0.986,0.626-1.864,1.56-2.186
						c1.83-0.63,3.771-0.949,5.766-0.949c4.275,0,8.011,1.404,11.012,2.534c1.014,0.382,1.889,0.71,2.626,0.924
						c14.912,4.323,19.898,21.85,24.721,38.799c2.424,8.517,4.712,16.56,8.128,22.649c2.42,4.309,8.178,11.551,14.845,19.938
						c13.894,17.479,31.186,39.23,34.573,54.229c2.306,10.206,1.919,42.694,1.545,74.113c-0.329,27.648-0.641,53.763,0.82,63.113
						c3.584,23.029,45.219,78.663,45.639,79.222c0.75,0.998,0.572,2.411-0.401,3.191l-78.375,62.848
						C726.316,490.308,725.805,490.484,725.283,490.484z M574.061,139.723c-0.844,0-1.718,0.065-2.598,0.195
						c-1.556,0.23-3.058,1.348-4.465,3.32c-7.871,11.043-8.812,42.107-8.184,45.458c0.009,0.046,0.017,0.093,0.021,0.14
						c0.935,7.479-0.397,20.63-1.573,32.233c-0.724,7.147-1.408,13.898-1.308,17.304c1.048,35.761,30.012,80.526,51.16,113.212
						c2.551,3.942,4.975,7.688,7.205,11.197c11.582,18.222,32.833,40.101,43.728,45.021c26.958,12.171,60.571,65.082,67.844,76.919
						l74.582-59.806c-7.387-10.002-41.746-57.468-45.174-79.489c-1.521-9.73-1.207-36.033-0.876-63.88
						c0.371-31.151,0.755-63.364-1.432-73.04c-3.154-13.968-20.799-36.163-33.682-52.37c-6.791-8.543-12.655-15.92-15.258-20.552
						c-3.682-6.564-6.043-14.862-8.543-23.647c-4.478-15.738-9.108-32.013-21.56-35.623c-0.91-0.264-1.91-0.64-2.969-1.037
						c-2.65-0.998-5.949-2.238-9.384-2.238c-0.937,0-1.831,0.088-2.702,0.269v41.856c-0.09,5.398-2.202,130.758-3.547,138.884
						c-0.012,0.226-0.008,0.657-0.008,1.248c0.001,2.976,0.004,9.169-1.102,14.785c-1.56,7.926-4.826,11.944-9.71,11.944
						c-1.354,0-2.799-0.345-4.298-1.023c-10.713-4.85-31.584-28.821-33.654-64.747c-0.4-6.942-3.834-28.27-5.163-34.459
						C595.302,153.485,586.355,139.723,574.061,139.723z"/>
				</g>
			</g>
		</g>
	</g>
	<g>
		<g id="XMLID_5_">
			<g id="XMLID_14_">
				<g id="XMLID_42_">
					<path fill="#FFFFFF" d="M322.541,418.018h163.812c22.093,0,40.003-17.909,40.003-40.002V-47.787
						c0-22.093-17.91-40.002-40.003-40.002H322.541c-22.093,0-40.002,17.91-40.002,40.002v425.802
						C282.538,400.108,300.448,418.018,322.541,418.018z"/>
				</g>
				<g id="XMLID_41_">
					<rect x="282.538" y="-42.357" fill="#161922" width="243.817" height="414.943"/>
				</g>
				<g id="XMLID_40_">
					<path fill="#161922" d="M428.59-63.559h-54.344c-1.464,0-2.65-1.187-2.65-2.65l0,0c0-1.463,1.187-2.65,2.65-2.65h54.344
						c1.463,0,2.65,1.187,2.65,2.65l0,0C431.24-64.745,430.053-63.559,428.59-63.559z"/>
				</g>
				<g id="XMLID_39_" opacity="0.73">
					<path fill="#161922" d="M428.225,397.269h-47.557c-1.504,0-2.723-1.22-2.723-2.724l0,0c0-1.504,1.219-2.724,2.723-2.724h47.557
						c1.504,0,2.724,1.22,2.724,2.724l0,0C430.948,396.049,429.729,397.269,428.225,397.269z"/>
				</g>
				<g id="XMLID_30_">
					<path id="XMLID_26_" fill="#BCBDC2" d="M451.062-66.929c0,1.534-0.622,2.921-1.626,3.926c-1.006,1.005-2.394,1.626-3.927,1.626
						c-1.534,0-2.922-0.622-3.927-1.626s-1.626-2.393-1.626-3.926s0.621-2.921,1.626-3.926s2.393-1.626,3.927-1.626
						c1.533,0,2.921,0.622,3.927,1.626C450.44-69.851,451.062-68.463,451.062-66.929z"/>
					<path fill="#BBBCC1" d="M441.582-70.855c1.005-1.004,2.393-1.626,3.927-1.626c1.535,0,2.923,0.623,3.93,1.629
						c0.021,0.022,0.042,0.044,0.063,0.066c0.75,0.783,1.257,1.803,1.406,2.946c0.034,0.262,0.05,0.531,0.045,0.805
						c-0.026,1.5-0.656,2.866-1.659,3.859c-0.097,0.095-0.197,0.188-0.3,0.277c-0.967,0.836-2.222,1.346-3.586,1.366
						c-0.596,0.009-1.168-0.077-1.703-0.241c-0.669-0.207-1.285-0.535-1.809-0.968c-0.021-0.018-0.044-0.037-0.064-0.055
						c-0.097-0.081-0.189-0.165-0.279-0.252c-0.465-0.474-0.846-1.031-1.117-1.647c-0.309-0.699-0.475-1.472-0.469-2.283
						C439.977-68.493,440.589-69.862,441.582-70.855z"/>
					<path fill="#BABBC0" d="M441.582-70.855c1.005-1.005,2.393-1.626,3.927-1.626c1.536,0,2.926,0.624,3.932,1.631
						c0.021,0.021,0.041,0.043,0.061,0.065c0.716,0.754,1.191,1.743,1.314,2.858c0.028,0.255,0.038,0.518,0.028,0.785
						c-0.053,1.465-0.693,2.806-1.692,3.791c-0.097,0.095-0.196,0.187-0.299,0.275c-0.962,0.829-2.202,1.344-3.545,1.385
						c-0.586,0.018-1.149-0.056-1.675-0.208c-0.657-0.189-1.259-0.5-1.773-0.907c-0.021-0.017-0.043-0.034-0.063-0.051
						c-0.095-0.077-0.186-0.157-0.273-0.24c-0.459-0.477-0.833-1.035-1.099-1.653c-0.301-0.7-0.458-1.472-0.447-2.28
						C439.996-68.523,440.601-69.874,441.582-70.855z"/>
					<path fill="#B9BABF" d="M441.582-70.855c1.005-1.005,2.393-1.626,3.927-1.626c1.537,0,2.927,0.625,3.934,1.634
						c0.02,0.021,0.039,0.042,0.058,0.064c0.681,0.725,1.125,1.683,1.223,2.769c0.022,0.25,0.026,0.505,0.012,0.767
						c-0.078,1.431-0.729,2.748-1.725,3.723c-0.097,0.094-0.196,0.185-0.298,0.272c-0.957,0.824-2.184,1.344-3.506,1.405
						c-0.576,0.026-1.13-0.036-1.646-0.173c-0.646-0.173-1.236-0.459-1.738-0.847c-0.021-0.016-0.042-0.032-0.063-0.048
						c-0.092-0.073-0.181-0.148-0.267-0.227c-0.454-0.479-0.822-1.04-1.081-1.659c-0.294-0.702-0.441-1.473-0.426-2.277
						C440.015-68.553,440.613-69.886,441.582-70.855z"/>
					<path fill="#B8B9BF" d="M441.582-70.855c1.005-1.005,2.393-1.626,3.927-1.626c1.538,0,2.93,0.626,3.936,1.637
						c0.02,0.02,0.038,0.041,0.055,0.062c0.646,0.695,1.059,1.623,1.131,2.681c0.017,0.243,0.015,0.492-0.005,0.748
						c-0.104,1.397-0.765,2.689-1.758,3.656c-0.096,0.093-0.195,0.183-0.297,0.27c-0.955,0.814-2.164,1.344-3.465,1.424
						c-0.567,0.035-1.111-0.016-1.618-0.14c-0.633-0.157-1.207-0.429-1.702-0.787c-0.021-0.015-0.041-0.03-0.061-0.045
						c-0.091-0.068-0.178-0.139-0.262-0.213c-0.447-0.483-0.81-1.045-1.063-1.666c-0.286-0.704-0.425-1.474-0.404-2.274
						C440.033-68.583,440.624-69.897,441.582-70.855z"/>
					<path fill="#B7B9BE" d="M441.582-70.855c1.005-1.005,2.393-1.627,3.927-1.627c1.539,0,2.932,0.627,3.938,1.64
						c0.018,0.02,0.035,0.04,0.051,0.061c0.612,0.666,0.992,1.563,1.039,2.592c0.011,0.236,0.003,0.479-0.021,0.729
						c-0.135,1.362-0.8,2.631-1.79,3.587c-0.096,0.092-0.194,0.182-0.296,0.268c-0.951,0.808-2.146,1.343-3.425,1.443
						c-0.558,0.043-1.093,0.004-1.59-0.106c-0.621-0.14-1.188-0.385-1.667-0.726c-0.02-0.014-0.04-0.028-0.06-0.042
						c-0.088-0.064-0.174-0.131-0.256-0.201c-0.441-0.485-0.798-1.05-1.044-1.671c-0.278-0.706-0.408-1.474-0.382-2.272
						C440.054-68.613,440.635-69.909,441.582-70.855z"/>
					<path fill="#B6B8BD" d="M441.582-70.855c1.005-1.005,2.393-1.626,3.927-1.626c1.541,0,2.935,0.628,3.94,1.642
						c0.018,0.02,0.033,0.039,0.048,0.06c0.578,0.636,0.929,1.502,0.948,2.504c0.005,0.23-0.008,0.466-0.037,0.709
						c-0.156,1.329-0.84,2.57-1.825,3.52c-0.095,0.091-0.193,0.18-0.294,0.266c-0.946,0.802-2.127,1.342-3.385,1.462
						c-0.549,0.053-1.073,0.026-1.562-0.072c-0.608-0.122-1.164-0.346-1.632-0.665c-0.02-0.014-0.039-0.026-0.058-0.04
						c-0.087-0.06-0.17-0.122-0.249-0.187c-0.437-0.488-0.787-1.055-1.026-1.678c-0.271-0.707-0.393-1.475-0.361-2.269
						C440.073-68.643,440.648-69.92,441.582-70.855z"/>
					<path fill="#B5B7BC" d="M441.582-70.855c1.005-1.005,2.393-1.626,3.927-1.626c1.542,0,2.937,0.629,3.943,1.644
						c0.017,0.019,0.031,0.038,0.044,0.058c0.544,0.607,0.862,1.441,0.856,2.416c-0.001,0.223-0.02,0.454-0.054,0.69
						c-0.183,1.294-0.872,2.515-1.857,3.452c-0.096,0.09-0.193,0.178-0.294,0.264c-0.94,0.795-2.106,1.34-3.345,1.481
						c-0.539,0.061-1.054,0.046-1.532-0.038c-0.598-0.105-1.139-0.312-1.597-0.604c-0.02-0.013-0.038-0.025-0.057-0.037
						c-0.084-0.056-0.166-0.113-0.243-0.174c-0.43-0.491-0.774-1.06-1.008-1.685c-0.264-0.708-0.375-1.474-0.339-2.266
						C440.091-68.672,440.659-69.933,441.582-70.855z"/>
					<path fill="#B4B6BB" d="M441.582-70.855c1.005-1.005,2.393-1.627,3.927-1.627c1.543,0,2.938,0.63,3.945,1.647
						c0.016,0.018,0.029,0.037,0.041,0.057c0.509,0.577,0.796,1.381,0.765,2.326c-0.007,0.217-0.031,0.441-0.07,0.672
						c-0.208,1.26-0.908,2.457-1.891,3.384c-0.095,0.089-0.192,0.176-0.292,0.261c-0.937,0.789-2.089,1.34-3.305,1.501
						c-0.529,0.069-1.035,0.066-1.504-0.004c-0.585-0.088-1.113-0.276-1.562-0.544c-0.019-0.011-0.037-0.023-0.055-0.035
						c-0.082-0.051-0.162-0.104-0.238-0.16c-0.424-0.495-0.763-1.066-0.989-1.691c-0.256-0.71-0.358-1.476-0.317-2.263
						C440.11-68.702,440.671-69.944,441.582-70.855z"/>
					<path fill="#B3B5BA" d="M441.582-70.855c1.006-1.005,2.393-1.626,3.927-1.626c1.545,0,2.94,0.631,3.948,1.649
						c0.015,0.018,0.027,0.036,0.038,0.055c0.475,0.548,0.729,1.321,0.673,2.238c-0.013,0.21-0.044,0.428-0.087,0.652
						c-0.237,1.226-0.943,2.399-1.924,3.317c-0.095,0.088-0.192,0.175-0.291,0.258c-0.93,0.786-2.069,1.339-3.265,1.521
						c-0.521,0.078-1.016,0.086-1.476,0.029c-0.573-0.071-1.085-0.245-1.525-0.483c-0.019-0.01-0.037-0.021-0.055-0.031
						c-0.08-0.047-0.157-0.096-0.231-0.148c-0.418-0.497-0.75-1.07-0.971-1.697c-0.249-0.712-0.343-1.476-0.296-2.26
						C440.129-68.732,440.683-69.956,441.582-70.855z"/>
					<path fill="#B2B4BA" d="M441.582-70.855c1.005-1.005,2.393-1.626,3.927-1.626c1.546,0,2.942,0.632,3.95,1.651
						c0.015,0.017,0.025,0.036,0.035,0.054c0.439,0.52,0.665,1.261,0.581,2.15c-0.02,0.204-0.056,0.416-0.104,0.633
						c-0.264,1.192-0.979,2.341-1.957,3.249c-0.094,0.087-0.191,0.173-0.29,0.256c-0.926,0.779-2.05,1.338-3.224,1.54
						c-0.511,0.087-0.998,0.106-1.447,0.063c-0.562-0.054-1.068-0.196-1.491-0.423c-0.018-0.009-0.035-0.019-0.052-0.028
						c-0.078-0.043-0.154-0.088-0.226-0.135c-0.413-0.5-0.739-1.076-0.953-1.704c-0.242-0.713-0.326-1.476-0.274-2.257
						C440.147-68.762,440.695-69.968,441.582-70.855z"/>
					<path fill="#B1B3B9" d="M441.582-70.855c1.005-1.005,2.393-1.627,3.927-1.627c1.547,0,2.944,0.634,3.952,1.655
						c0.014,0.017,0.023,0.035,0.032,0.052c0.405,0.49,0.6,1.201,0.489,2.062c-0.025,0.197-0.067,0.402-0.12,0.614
						c-0.29,1.157-1.015,2.284-1.989,3.182c-0.094,0.087-0.191,0.171-0.29,0.254c-0.922,0.77-2.03,1.337-3.184,1.559
						c-0.501,0.096-0.978,0.127-1.419,0.097c-0.549-0.037-1.041-0.161-1.455-0.362c-0.017-0.008-0.034-0.017-0.051-0.025
						c-0.076-0.038-0.149-0.079-0.22-0.122c-0.407-0.503-0.727-1.08-0.935-1.71c-0.234-0.715-0.311-1.477-0.253-2.255
						C440.164-68.792,440.706-69.979,441.582-70.855z"/>
					<path fill="#B0B2B8" d="M441.582-70.855c1.005-1.005,2.393-1.626,3.927-1.626c1.548,0,2.946,0.635,3.954,1.657
						c0.014,0.016,0.021,0.033,0.029,0.051c0.371,0.46,0.533,1.141,0.397,1.973c-0.031,0.191-0.078,0.39-0.136,0.595
						c-0.316,1.123-1.051,2.226-2.023,3.114c-0.094,0.085-0.19,0.17-0.288,0.251c-0.916,0.766-2.012,1.336-3.144,1.578
						c-0.492,0.104-0.959,0.147-1.391,0.131c-0.536-0.02-1.016-0.126-1.42-0.302c-0.016-0.007-0.033-0.015-0.049-0.022
						c-0.074-0.034-0.146-0.071-0.215-0.109c-0.4-0.506-0.715-1.085-0.915-1.717c-0.228-0.717-0.295-1.477-0.231-2.251
						C440.183-68.821,440.717-69.991,441.582-70.855z"/>
					<path fill="#AFB2B7" d="M441.582-70.855c1.005-1.005,2.393-1.626,3.927-1.626c1.55,0,2.949,0.636,3.957,1.66
						c0.012,0.016,0.02,0.032,0.024,0.049c0.338,0.431,0.468,1.081,0.307,1.884c-0.037,0.185-0.09,0.377-0.152,0.576
						c-0.343,1.088-1.086,2.167-2.056,3.046c-0.094,0.085-0.19,0.168-0.288,0.249c-0.912,0.757-1.992,1.336-3.103,1.598
						c-0.483,0.112-0.94,0.167-1.362,0.165c-0.524-0.003-0.991-0.091-1.384-0.241c-0.017-0.006-0.033-0.013-0.049-0.02
						c-0.072-0.03-0.142-0.062-0.208-0.096c-0.395-0.509-0.703-1.09-0.897-1.723c-0.22-0.718-0.278-1.477-0.21-2.248
						C440.201-68.851,440.73-70.002,441.582-70.855z"/>
					<path fill="#AEB1B6" d="M441.582-70.855c1.005-1.005,2.393-1.626,3.927-1.626c1.551,0,2.951,0.637,3.96,1.662
						c0.011,0.015,0.018,0.031,0.021,0.048c0.303,0.401,0.4,1.021,0.214,1.795c-0.043,0.179-0.101,0.363-0.169,0.557
						c-0.37,1.053-1.122,2.109-2.088,2.978c-0.094,0.084-0.189,0.166-0.287,0.247c-0.908,0.751-1.974,1.335-3.063,1.617
						c-0.475,0.121-0.922,0.188-1.334,0.199c-0.513,0.014-0.97-0.046-1.349-0.18c-0.016-0.005-0.032-0.012-0.048-0.017
						c-0.069-0.025-0.137-0.053-0.201-0.083c-0.39-0.512-0.691-1.095-0.88-1.729c-0.212-0.72-0.263-1.478-0.188-2.246
						C440.218-68.881,440.74-70.014,441.582-70.855z"/>
					<path fill="#ADB0B5" d="M441.582-70.855c1.005-1.005,2.393-1.626,3.927-1.626c1.552,0,2.954,0.638,3.962,1.665
						c0.01,0.015,0.016,0.03,0.019,0.047c0.268,0.372,0.334,0.96,0.122,1.707c-0.049,0.172-0.112,0.351-0.185,0.538
						c-0.395,1.02-1.158,2.051-2.122,2.91c-0.094,0.083-0.188,0.165-0.285,0.244c-0.904,0.745-1.955,1.334-3.023,1.637
						c-0.464,0.13-0.902,0.208-1.305,0.232c-0.501,0.031-0.945-0.01-1.313-0.119c-0.016-0.005-0.031-0.01-0.046-0.015
						c-0.068-0.021-0.134-0.044-0.196-0.069c-0.383-0.515-0.68-1.1-0.86-1.735c-0.206-0.722-0.247-1.478-0.167-2.243
						C440.237-68.911,440.753-70.026,441.582-70.855z"/>
					<path fill="#ACAFB5" d="M441.582-70.855c1.005-1.005,2.393-1.626,3.927-1.626c1.554,0,2.956,0.639,3.964,1.667
						c0.009,0.014,0.014,0.029,0.016,0.045c0.233,0.342,0.271,0.9,0.031,1.619c-0.055,0.166-0.124,0.337-0.201,0.518
						c-0.422,0.986-1.192,1.996-2.155,2.843c-0.094,0.082-0.188,0.163-0.284,0.242c-0.899,0.738-1.937,1.333-2.983,1.655
						c-0.454,0.139-0.884,0.228-1.276,0.267c-0.488,0.048-0.922,0.032-1.279-0.059c-0.014-0.003-0.029-0.007-0.043-0.011
						c-0.066-0.017-0.131-0.036-0.191-0.056c-0.377-0.518-0.667-1.105-0.842-1.743c-0.198-0.723-0.23-1.478-0.146-2.24
						C440.253-68.941,440.764-70.037,441.582-70.855z"/>
					<path fill="#ABAEB4" d="M441.582-70.855c1.005-1.005,2.393-1.626,3.927-1.626c1.555,0,2.958,0.64,3.966,1.669
						c0.009,0.014,0.012,0.028,0.013,0.043c0.199,0.313,0.202,0.84-0.062,1.531c-0.061,0.159-0.135,0.325-0.217,0.5
						c-0.447,0.951-1.228,1.938-2.188,2.775c-0.093,0.081-0.188,0.161-0.283,0.239c-0.895,0.732-1.917,1.333-2.942,1.675
						c-0.445,0.147-0.865,0.248-1.248,0.3c-0.477,0.064-0.896,0.065-1.243,0.002c-0.015-0.002-0.029-0.005-0.043-0.008
						c-0.063-0.013-0.126-0.027-0.185-0.043c-0.371-0.521-0.655-1.11-0.824-1.749c-0.19-0.725-0.215-1.479-0.123-2.237
						C440.273-68.97,440.777-70.049,441.582-70.855z"/>
					<path fill="#AAADB3" d="M441.582-70.855c1.005-1.005,2.393-1.627,3.927-1.627c1.556,0,2.96,0.642,3.969,1.673
						c0.007,0.013,0.01,0.027,0.009,0.042c0.165,0.284,0.138,0.781-0.152,1.442c-0.066,0.152-0.146,0.312-0.234,0.48
						c-0.476,0.916-1.265,1.877-2.221,2.707c-0.093,0.08-0.188,0.16-0.282,0.237c-0.891,0.726-1.898,1.332-2.902,1.694
						c-0.437,0.156-0.846,0.268-1.221,0.334c-0.463,0.082-0.87,0.097-1.207,0.062c-0.015-0.001-0.028-0.003-0.042-0.005
						c-0.062-0.008-0.121-0.019-0.178-0.03c-0.366-0.523-0.644-1.115-0.806-1.755c-0.184-0.726-0.199-1.479-0.103-2.234
						C440.289-69,440.787-70.061,441.582-70.855z"/>
					<path fill="#A9ACB2" d="M441.582-70.855c1.005-1.005,2.393-1.626,3.927-1.626c1.557,0,2.962,0.643,3.971,1.675
						c0.007,0.013,0.008,0.027,0.006,0.041c0.131,0.254,0.071,0.72-0.244,1.354c-0.073,0.146-0.158,0.299-0.251,0.461
						c-0.501,0.881-1.301,1.819-2.254,2.64c-0.092,0.079-0.187,0.157-0.281,0.235c-0.884,0.721-1.879,1.331-2.861,1.713
						c-0.428,0.165-0.827,0.289-1.192,0.368c-0.451,0.099-0.846,0.134-1.172,0.122c-0.014,0-0.027-0.001-0.04-0.002
						c-0.061-0.004-0.118-0.01-0.173-0.017c-0.359-0.527-0.632-1.12-0.787-1.761c-0.176-0.729-0.185-1.479-0.081-2.231
						C440.306-69.03,440.799-70.072,441.582-70.855z"/>
					<path fill="#A8ABB1" d="M441.582-70.855c1.005-1.005,2.393-1.626,3.927-1.626c1.559,0,2.965,0.644,3.974,1.677
						c0.006,0.012,0.006,0.025,0.002,0.04c0.096,0.225,0.005,0.661-0.336,1.265c-0.079,0.14-0.169,0.286-0.267,0.442
						c-0.527,0.847-1.337,1.762-2.287,2.572c-0.093,0.079-0.187,0.157-0.28,0.233c-0.879,0.715-1.86,1.33-2.822,1.732
						c-0.418,0.174-0.808,0.309-1.163,0.402c-0.438,0.115-0.821,0.177-1.137,0.183c-0.013,0-0.026,0-0.039,0.001
						c-0.058,0-0.114-0.001-0.166-0.004c-0.354-0.529-0.62-1.125-0.769-1.767c-0.169-0.73-0.169-1.48-0.06-2.229
						C440.323-69.06,440.811-70.084,441.582-70.855z"/>
					<path fill="#A7AAB0" d="M441.582-70.855c1.005-1.005,2.393-1.626,3.927-1.626c1.56,0,2.967,0.645,3.976,1.68
						c0.005,0.011,0.004,0.025-0.001,0.039c0.062,0.195-0.062,0.601-0.428,1.176c-0.085,0.133-0.181,0.273-0.283,0.423
						c-0.554,0.812-1.374,1.702-2.32,2.504c-0.092,0.078-0.185,0.154-0.279,0.23c-0.876,0.707-1.841,1.329-2.781,1.752
						c-0.408,0.182-0.789,0.329-1.135,0.436c-0.427,0.132-0.797,0.214-1.102,0.244c-0.013,0.001-0.025,0.002-0.037,0.004
						c-0.056,0.004-0.11,0.007-0.161,0.008c-0.348-0.532-0.607-1.13-0.75-1.774c-0.161-0.731-0.152-1.479-0.037-2.225
						C440.341-69.089,440.823-70.096,441.582-70.855z"/>
					<path fill="#A7AAB0" d="M441.582-70.855c1.005-1.005,2.393-1.626,3.927-1.626c1.561,0,2.969,0.646,3.978,1.682
						c0.005,0.011,0.002,0.023-0.004,0.037c0.027,0.166-0.129,0.541-0.52,1.088c-0.091,0.127-0.192,0.261-0.299,0.404
						c-0.578,0.779-1.406,1.647-2.354,2.437c-0.092,0.076-0.185,0.152-0.278,0.228c-0.872,0.7-1.82,1.33-2.741,1.771
						c-0.399,0.191-0.77,0.349-1.106,0.47c-0.415,0.148-0.772,0.25-1.066,0.305c-0.012,0.002-0.025,0.004-0.036,0.006
						c-0.054,0.009-0.105,0.017-0.154,0.022c-0.343-0.536-0.597-1.135-0.732-1.78c-0.154-0.733-0.137-1.48-0.016-2.223
						C440.358-69.119,440.834-70.107,441.582-70.855z"/>
					<path fill="#A6A9AF" d="M441.582-70.855c1.005-1.005,2.393-1.626,3.927-1.626c1.563,0,2.972,0.647,3.98,1.685
						c0.003,0.011-0.001,0.022-0.008,0.035c-0.007,0.137-0.195,0.481-0.611,1c-0.097,0.12-0.203,0.247-0.315,0.385
						c-0.605,0.743-1.443,1.587-2.387,2.369c-0.092,0.076-0.184,0.151-0.277,0.226c-0.866,0.693-1.803,1.327-2.701,1.79
						c-0.389,0.2-0.75,0.369-1.077,0.503c-0.403,0.166-0.752,0.274-1.031,0.365c-0.011,0.003-0.024,0.007-0.034,0.01
						c-0.052,0.013-0.102,0.024-0.149,0.035c-0.336-0.539-0.584-1.141-0.714-1.787c-0.146-0.735-0.122-1.48,0.006-2.22
						C440.373-69.149,440.846-70.119,441.582-70.855z"/>
					<path fill="#A5A8AE" d="M441.582-70.855c1.005-1.005,2.393-1.627,3.927-1.627c1.563,0,2.974,0.648,3.982,1.688
						c0.003,0.01-0.002,0.021-0.011,0.033c-0.041,0.107-0.262,0.42-0.703,0.911c-0.103,0.114-0.215,0.235-0.331,0.366
						c-0.63,0.71-1.477,1.533-2.42,2.302c-0.092,0.075-0.184,0.148-0.276,0.223c-0.862,0.688-1.783,1.326-2.661,1.81
						c-0.38,0.208-0.73,0.389-1.049,0.537c-0.391,0.182-0.725,0.324-0.996,0.426c-0.011,0.004-0.023,0.008-0.033,0.013
						c-0.05,0.017-0.098,0.033-0.143,0.048c-0.331-0.541-0.573-1.146-0.696-1.793c-0.139-0.736-0.106-1.481,0.027-2.217
						C440.39-69.178,440.858-70.131,441.582-70.855z"/>
					<path fill="#A4A7AD" d="M441.582-70.855c1.005-1.005,2.393-1.626,3.927-1.626c1.564,0,2.976,0.648,3.984,1.689
						c0.002,0.01-0.003,0.021-0.014,0.033c-0.076,0.078-0.328,0.36-0.794,0.823c-0.108,0.107-0.227,0.222-0.349,0.347
						c-0.657,0.674-1.515,1.472-2.453,2.233c-0.091,0.074-0.183,0.147-0.274,0.221c-0.857,0.681-1.764,1.328-2.621,1.83
						c-0.371,0.217-0.712,0.408-1.021,0.571c-0.377,0.198-0.699,0.362-0.96,0.486c-0.011,0.005-0.022,0.01-0.032,0.015
						c-0.047,0.022-0.094,0.042-0.137,0.062c-0.324-0.544-0.561-1.15-0.677-1.8c-0.132-0.737-0.092-1.48,0.049-2.214
						C440.406-69.208,440.869-70.143,441.582-70.855z"/>
					<path fill="#A3A6AC" d="M441.582-70.855c1.005-1.005,2.393-1.626,3.927-1.626c1.565,0,2.978,0.65,3.987,1.693
						c0.001,0.009-0.006,0.02-0.018,0.031c-0.11,0.048-0.395,0.3-0.886,0.734c-0.115,0.102-0.238,0.209-0.365,0.328
						c-0.682,0.64-1.55,1.414-2.485,2.166c-0.091,0.073-0.183,0.146-0.274,0.218c-0.853,0.675-1.744,1.327-2.58,1.849
						c-0.361,0.226-0.693,0.428-0.993,0.604c-0.365,0.215-0.676,0.397-0.924,0.547c-0.011,0.006-0.022,0.012-0.031,0.018
						c-0.045,0.026-0.09,0.05-0.131,0.074c-0.318-0.547-0.549-1.155-0.659-1.806c-0.124-0.739-0.076-1.482,0.07-2.211
						C440.422-69.238,440.881-70.154,441.582-70.855z"/>
					<path fill="#A2A5AB" d="M441.582-70.855c1.005-1.005,2.393-1.627,3.927-1.627c1.567,0,2.979,0.652,3.989,1.696
						c0,0.008-0.008,0.018-0.02,0.029c-0.146,0.019-0.463,0.24-0.979,0.646c-0.12,0.095-0.25,0.196-0.381,0.309
						c-0.707,0.608-1.587,1.355-2.52,2.098c-0.09,0.072-0.182,0.144-0.273,0.216c-0.847,0.668-1.726,1.323-2.539,1.867
						c-0.353,0.234-0.675,0.449-0.965,0.639c-0.354,0.231-0.65,0.436-0.89,0.607c-0.01,0.007-0.021,0.014-0.028,0.021
						c-0.044,0.03-0.087,0.059-0.126,0.087c-0.313-0.55-0.536-1.16-0.64-1.812c-0.117-0.742-0.063-1.482,0.092-2.208
						C440.439-69.268,440.893-70.166,441.582-70.855z"/>
					<path fill="#A1A4AB" d="M441.582-70.855c1.005-1.005,2.393-1.626,3.927-1.626c1.568,0,2.982,0.652,3.991,1.697
						c0,0.008-0.01,0.018-0.023,0.028c-0.179-0.011-0.527,0.18-1.069,0.557c-0.127,0.088-0.261,0.183-0.397,0.29
						c-0.734,0.572-1.623,1.298-2.552,2.03c-0.091,0.071-0.182,0.143-0.272,0.214c-0.843,0.662-1.707,1.323-2.5,1.888
						c-0.343,0.242-0.654,0.468-0.936,0.672c-0.342,0.248-0.63,0.469-0.854,0.668c-0.009,0.008-0.02,0.016-0.027,0.024
						c-0.041,0.034-0.082,0.067-0.119,0.1c-0.308-0.553-0.525-1.165-0.622-1.818c-0.11-0.742-0.047-1.483,0.113-2.205
						C440.454-69.298,440.905-70.178,441.582-70.855z"/>
					<path fill="#A0A3AA" d="M441.582-70.855c1.005-1.005,2.393-1.626,3.927-1.626c1.569,0,2.984,0.654,3.994,1.7
						c-0.001,0.008-0.012,0.017-0.027,0.027c-0.213-0.04-0.595,0.119-1.161,0.469c-0.133,0.082-0.272,0.17-0.414,0.271
						c-0.759,0.538-1.658,1.24-2.585,1.963c-0.09,0.07-0.181,0.141-0.271,0.211c-0.839,0.656-1.688,1.322-2.46,1.907
						c-0.333,0.251-0.636,0.488-0.907,0.706c-0.33,0.264-0.609,0.503-0.819,0.729c-0.008,0.009-0.019,0.018-0.026,0.026
						c-0.039,0.039-0.078,0.077-0.113,0.113c-0.301-0.556-0.513-1.169-0.604-1.825c-0.103-0.744-0.032-1.483,0.135-2.202
						C440.469-69.328,440.916-70.189,441.582-70.855z"/>
					<path fill="#9FA2A9" d="M441.582-70.855c1.005-1.005,2.393-1.626,3.927-1.626c1.571,0,2.986,0.655,3.996,1.703
						c-0.002,0.007-0.014,0.016-0.03,0.025c-0.247-0.068-0.66,0.06-1.253,0.38c-0.139,0.075-0.283,0.158-0.43,0.252
						c-0.785,0.503-1.694,1.181-2.618,1.895c-0.09,0.069-0.18,0.139-0.27,0.209c-0.834,0.65-1.67,1.322-2.42,1.926
						c-0.324,0.26-0.617,0.508-0.879,0.74c-0.317,0.281-0.578,0.546-0.783,0.789c-0.009,0.01-0.019,0.02-0.025,0.03
						c-0.037,0.043-0.074,0.085-0.107,0.126c-0.295-0.559-0.501-1.175-0.586-1.832c-0.095-0.746-0.017-1.483,0.157-2.199
						C440.485-69.358,440.928-70.201,441.582-70.855z"/>
					<path fill="#9EA2A8" d="M441.582-70.855c1.005-1.005,2.393-1.627,3.927-1.627c1.572,0,2.988,0.656,3.998,1.706
						c-0.002,0.006-0.015,0.015-0.032,0.024c-0.283-0.099-0.729-0.002-1.346,0.292c-0.145,0.069-0.294,0.145-0.445,0.232
						c-0.811,0.471-1.73,1.124-2.651,1.827c-0.09,0.068-0.181,0.138-0.27,0.207c-0.829,0.643-1.65,1.32-2.379,1.944
						c-0.315,0.269-0.599,0.528-0.851,0.774c-0.306,0.298-0.556,0.583-0.748,0.85c-0.008,0.011-0.018,0.022-0.023,0.033
						c-0.036,0.047-0.07,0.093-0.102,0.14c-0.29-0.562-0.49-1.18-0.567-1.837c-0.088-0.748-0.004-1.484,0.178-2.197
						C440.499-69.388,440.94-70.213,441.582-70.855z"/>
					<path fill="#9DA1A7" d="M441.582-70.855c1.005-1.005,2.393-1.626,3.927-1.626c1.573,0,2.991,0.657,4.001,1.708
						c-0.004,0.006-0.018,0.014-0.036,0.023c-0.317-0.128-0.795-0.061-1.437,0.203c-0.151,0.063-0.308,0.132-0.463,0.213
						c-0.837,0.436-1.766,1.066-2.685,1.76c-0.089,0.067-0.179,0.135-0.268,0.204c-0.825,0.637-1.63,1.322-2.339,1.965
						c-0.306,0.278-0.58,0.547-0.822,0.808c-0.293,0.314-0.527,0.622-0.713,0.91c-0.008,0.012-0.017,0.023-0.022,0.035
						c-0.033,0.052-0.066,0.103-0.096,0.153c-0.284-0.564-0.478-1.185-0.549-1.844c-0.08-0.749,0.011-1.485,0.2-2.194
						C440.516-69.418,440.951-70.225,441.582-70.855z"/>
					<path fill="#9CA0A6" d="M441.582-70.855c1.005-1.005,2.393-1.626,3.927-1.626c1.574,0,2.993,0.658,4.003,1.71
						c-0.004,0.005-0.02,0.013-0.04,0.021c-0.351-0.157-0.86-0.122-1.527,0.115c-0.157,0.056-0.317,0.119-0.479,0.194
						c-0.862,0.401-1.798,1.012-2.717,1.692c-0.09,0.066-0.179,0.133-0.268,0.202c-0.82,0.63-1.612,1.319-2.299,1.983
						c-0.296,0.286-0.562,0.567-0.794,0.841c-0.28,0.331-0.508,0.657-0.678,0.971c-0.007,0.013-0.015,0.026-0.021,0.039
						c-0.031,0.056-0.063,0.11-0.089,0.166c-0.278-0.568-0.466-1.19-0.53-1.851c-0.074-0.751,0.024-1.485,0.221-2.19
						C440.531-69.448,440.963-70.236,441.582-70.855z"/>
					<path fill="#9B9FA6" d="M441.582-70.855c1.005-1.005,2.393-1.626,3.927-1.626c1.576,0,2.995,0.659,4.006,1.713
						c-0.006,0.004-0.021,0.012-0.044,0.02c-0.385-0.186-0.927-0.184-1.619,0.026c-0.163,0.049-0.329,0.107-0.495,0.176
						c-0.887,0.369-1.835,0.952-2.751,1.624c-0.089,0.065-0.178,0.132-0.266,0.199c-0.815,0.625-1.594,1.318-2.259,2.003
						c-0.287,0.294-0.542,0.587-0.766,0.875c-0.269,0.347-0.479,0.696-0.642,1.032c-0.007,0.014-0.015,0.027-0.02,0.042
						c-0.029,0.06-0.059,0.119-0.084,0.179c-0.271-0.571-0.453-1.195-0.512-1.857c-0.066-0.752,0.039-1.486,0.242-2.188
						C440.545-69.479,440.975-70.248,441.582-70.855z"/>
					<path fill="#9A9EA5" d="M441.582-70.855c1.005-1.005,2.393-1.626,3.927-1.626c1.577,0,2.997,0.66,4.008,1.715
						c-0.006,0.004-0.023,0.011-0.046,0.019c-0.42-0.216-0.994-0.244-1.712-0.063c-0.169,0.042-0.34,0.094-0.512,0.157
						c-0.913,0.335-1.872,0.892-2.783,1.556c-0.089,0.064-0.178,0.13-0.265,0.197c-0.809,0.622-1.575,1.317-2.219,2.022
						c-0.277,0.303-0.524,0.607-0.737,0.909c-0.257,0.364-0.463,0.73-0.606,1.092c-0.006,0.015-0.014,0.029-0.018,0.044
						c-0.027,0.064-0.055,0.128-0.078,0.192c-0.267-0.574-0.442-1.2-0.494-1.863c-0.059-0.754,0.053-1.486,0.265-2.185
						C440.561-69.508,440.987-70.26,441.582-70.855z"/>
					<path fill="#999DA4" d="M441.582-70.855c1.005-1.005,2.393-1.626,3.927-1.626c1.578,0,2.999,0.661,4.011,1.718
						c-0.008,0.004-0.025,0.01-0.05,0.017c-0.455-0.246-1.061-0.304-1.804-0.15c-0.175,0.036-0.352,0.08-0.528,0.137
						c-0.938,0.3-1.907,0.834-2.816,1.489c-0.089,0.064-0.177,0.129-0.264,0.195c-0.806,0.611-1.556,1.316-2.179,2.042
						c-0.268,0.312-0.504,0.627-0.708,0.943c-0.245,0.38-0.432,0.77-0.571,1.153c-0.006,0.016-0.013,0.031-0.018,0.047
						c-0.024,0.068-0.05,0.137-0.07,0.205c-0.262-0.576-0.431-1.205-0.476-1.869c-0.052-0.756,0.065-1.488,0.285-2.183
						C440.574-69.539,440.998-70.271,441.582-70.855z"/>
					<path fill="#989CA3" d="M441.582-70.855c1.005-1.005,2.393-1.626,3.927-1.626c1.579,0,3.002,0.663,4.013,1.72
						c-0.008,0.003-0.027,0.009-0.053,0.016c-0.489-0.275-1.127-0.366-1.896-0.239c-0.181,0.03-0.362,0.068-0.544,0.118
						c-0.966,0.265-1.944,0.776-2.85,1.421c-0.088,0.063-0.177,0.127-0.264,0.192c-0.803,0.603-1.535,1.316-2.138,2.061
						c-0.259,0.321-0.485,0.647-0.68,0.977c-0.233,0.396-0.413,0.806-0.536,1.213c-0.005,0.017-0.012,0.034-0.016,0.05
						c-0.023,0.073-0.046,0.145-0.065,0.218c-0.255-0.58-0.418-1.21-0.457-1.876c-0.044-0.757,0.079-1.488,0.307-2.179
						C440.588-69.57,441.01-70.283,441.582-70.855z"/>
					<path fill="#979BA2" d="M441.582-70.855c1.005-1.005,2.393-1.626,3.927-1.626c1.581,0,3.004,0.663,4.015,1.723
						c-0.009,0.002-0.029,0.008-0.056,0.014c-0.523-0.304-1.193-0.425-1.987-0.328c-0.187,0.023-0.374,0.055-0.561,0.099
						c-0.991,0.233-1.979,0.717-2.883,1.353c-0.088,0.062-0.176,0.125-0.262,0.19c-0.797,0.599-1.517,1.315-2.098,2.081
						c-0.25,0.329-0.467,0.667-0.651,1.011c-0.221,0.413-0.384,0.843-0.501,1.274c-0.005,0.018-0.011,0.035-0.014,0.053
						c-0.021,0.077-0.043,0.154-0.06,0.231c-0.249-0.582-0.407-1.214-0.439-1.882c-0.036-0.759,0.093-1.489,0.329-2.176
						C440.604-69.6,441.022-70.294,441.582-70.855z"/>
					<path fill="#969BA1" d="M441.582-70.855c1.005-1.005,2.393-1.626,3.927-1.626c1.582,0,3.006,0.665,4.017,1.726
						c-0.009,0.002-0.03,0.007-0.059,0.013c-0.558-0.333-1.26-0.485-2.078-0.416c-0.193,0.016-0.387,0.042-0.578,0.08
						c-1.016,0.199-2.015,0.66-2.915,1.285c-0.088,0.061-0.175,0.124-0.261,0.188c-0.792,0.592-1.498,1.314-2.058,2.1
						c-0.24,0.337-0.45,0.687-0.624,1.044c-0.21,0.43-0.365,0.88-0.465,1.335c-0.004,0.019-0.01,0.037-0.013,0.056
						c-0.019,0.081-0.038,0.162-0.054,0.244c-0.243-0.585-0.395-1.22-0.42-1.888c-0.029-0.761,0.104-1.491,0.35-2.173
						C440.617-69.631,441.033-70.307,441.582-70.855z"/>
					<path fill="#959AA1" d="M441.582-70.855c1.005-1.005,2.393-1.626,3.927-1.626c1.583,0,3.008,0.666,4.02,1.728
						c-0.011,0.002-0.033,0.006-0.063,0.011c-0.592-0.363-1.325-0.548-2.17-0.504c-0.199,0.01-0.397,0.03-0.594,0.061
						c-1.042,0.167-2.052,0.602-2.949,1.218c-0.087,0.06-0.174,0.122-0.26,0.185c-0.788,0.585-1.479,1.313-2.017,2.119
						c-0.231,0.346-0.431,0.707-0.596,1.078c-0.198,0.446-0.349,0.916-0.43,1.395c-0.003,0.02-0.009,0.04-0.012,0.059
						c-0.017,0.085-0.034,0.17-0.047,0.257c-0.238-0.588-0.383-1.225-0.402-1.895c-0.022-0.763,0.119-1.492,0.372-2.17
						C440.632-69.662,441.045-70.318,441.582-70.855z"/>
					<path fill="#9499A0" d="M441.582-70.855c1.005-1.005,2.393-1.626,3.927-1.626c1.584,0,3.011,0.667,4.021,1.731
						c-0.011,0.001-0.035,0.005-0.065,0.009c-0.626-0.393-1.392-0.608-2.262-0.593c-0.205,0.003-0.409,0.017-0.61,0.042
						c-1.068,0.13-2.087,0.544-2.981,1.15c-0.088,0.059-0.174,0.121-0.259,0.183c-0.783,0.58-1.46,1.312-1.978,2.138
						c-0.222,0.355-0.411,0.727-0.566,1.112c-0.186,0.463-0.318,0.955-0.395,1.456c-0.003,0.021-0.008,0.042-0.01,0.062
						c-0.015,0.09-0.03,0.18-0.042,0.27c-0.231-0.591-0.37-1.229-0.384-1.901c-0.015-0.763,0.131-1.493,0.394-2.167
						C440.646-69.692,441.057-70.33,441.582-70.855z"/>
					<path fill="#93989F" d="M441.582-70.855c1.005-1.005,2.393-1.626,3.927-1.626c1.586,0,3.013,0.668,4.024,1.733
						c-0.013,0-0.037,0.004-0.069,0.008c-0.661-0.422-1.458-0.669-2.354-0.682c-0.211-0.003-0.421,0.004-0.627,0.023
						c-1.094,0.099-2.122,0.486-3.015,1.083c-0.087,0.058-0.173,0.118-0.257,0.18c-0.778,0.574-1.441,1.312-1.938,2.158
						c-0.212,0.363-0.393,0.747-0.538,1.146c-0.174,0.479-0.301,0.991-0.359,1.516c-0.002,0.021-0.007,0.043-0.008,0.064
						c-0.013,0.094-0.027,0.188-0.036,0.284c-0.226-0.594-0.359-1.235-0.365-1.908c-0.008-0.766,0.143-1.495,0.414-2.165
						C440.659-69.724,441.069-70.341,441.582-70.855z"/>
					<path id="XMLID_17_" fill="#92979E" d="M440.333-65.312c0.001-0.022,0.005-0.045,0.007-0.067
						c0.059-0.547,0.162-1.081,0.324-1.577c0.45-1.375,1.3-2.545,2.406-3.356s2.47-1.262,3.947-1.197
						c0.921,0.041,1.75,0.319,2.445,0.77c0.033-0.004,0.06-0.007,0.072-0.007c-1.012-1.067-2.439-1.736-4.026-1.736
						c-1.534,0-2.922,0.622-3.927,1.626c-0.502,0.502-0.909,1.101-1.189,1.765c-0.281,0.665-0.437,1.395-0.437,2.162
						c0,0.674,0.127,1.317,0.347,1.914C440.311-65.115,440.323-65.213,440.333-65.312z"/>
				</g>
				<g id="XMLID_15_">
					<circle id="XMLID_58_" fill="#878B92" cx="445.55" cy="-66.97" r="2.288"/>
					<circle fill="#898D94" cx="445.55" cy="-66.971" r="2.274"/>
					<circle fill="#8A8F96" cx="445.552" cy="-66.971" r="2.261"/>
					<circle fill="#8C9198" cx="445.552" cy="-66.972" r="2.248"/>
					<circle fill="#8E929A" cx="445.553" cy="-66.973" r="2.234"/>
					<circle fill="#90949C" cx="445.553" cy="-66.974" r="2.221"/>
					<circle fill="#91969E" cx="445.554" cy="-66.975" r="2.208"/>
					<circle fill="#93989F" cx="445.555" cy="-66.976" r="2.195"/>
					<circle fill="#959AA1" cx="445.556" cy="-66.977" r="2.181"/>
					<circle fill="#969CA3" cx="445.557" cy="-66.977" r="2.168"/>
					<circle fill="#989EA5" cx="445.558" cy="-66.979" r="2.155"/>
					<circle fill="#9AA0A7" cx="445.559" cy="-66.979" r="2.142"/>
					<circle fill="#9CA1A9" cx="445.56" cy="-66.979" r="2.128"/>
					<circle fill="#9DA3AB" cx="445.56" cy="-66.981" r="2.115"/>
					<circle fill="#9FA5AD" cx="445.562" cy="-66.981" r="2.102"/>
					<circle fill="#A1A7AF" cx="445.562" cy="-66.982" r="2.088"/>
					<circle fill="#A2A9B1" cx="445.563" cy="-66.983" r="2.075"/>
					<circle fill="#A4ABB3" cx="445.564" cy="-66.984" r="2.062"/>
					<circle fill="#A6ADB5" cx="445.565" cy="-66.985" r="2.048"/>
					<circle fill="#A7AEB6" cx="445.566" cy="-66.986" r="2.035"/>
					<circle fill="#A9B0B8" cx="445.566" cy="-66.987" r="2.022"/>
					<circle fill="#ABB2BA" cx="445.568" cy="-66.987" r="2.009"/>
					<circle fill="#ADB4BC" cx="445.568" cy="-66.988" r="1.996"/>
					<circle fill="#AEB6BE" cx="445.569" cy="-66.989" r="1.982"/>
					<circle fill="#B0B8C0" cx="445.57" cy="-66.99" r="1.969"/>
					<circle fill="#B2BAC2" cx="445.571" cy="-66.991" r="1.956"/>
					<circle fill="#B3BCC4" cx="445.572" cy="-66.992" r="1.942"/>
					<circle fill="#B5BDC6" cx="445.573" cy="-66.993" r="1.929"/>
					<circle fill="#B7BFC8" cx="445.573" cy="-66.993" r="1.916"/>
					<circle fill="#B9C1CA" cx="445.574" cy="-66.994" r="1.902"/>
					<circle fill="#BAC3CC" cx="445.575" cy="-66.995" r="1.889"/>
					<circle fill="#BCC5CE" cx="445.576" cy="-66.996" r="1.875"/>
					<circle fill="#BEC7CF" cx="445.576" cy="-66.997" r="1.862"/>
					<circle fill="#BFC9D1" cx="445.578" cy="-66.998" r="1.849"/>
					<circle fill="#C1CBD3" cx="445.578" cy="-66.999" r="1.836"/>
					<circle fill="#C3CCD5" cx="445.579" cy="-66.999" r="1.822"/>
					<circle fill="#C5CED7" cx="445.58" cy="-67" r="1.81"/>
					<circle fill="#C6D0D9" cx="445.581" cy="-67.001" r="1.796"/>
					<circle id="XMLID_57_" fill="#C8D2DB" cx="445.582" cy="-67.002" r="1.783"/>
				</g>
			</g>
			<g id="XMLID_13_" opacity="0.1">
				<path fill="#FFFFFF" d="M516.989-81.311c-4.884-4.568-11.445-7.362-18.66-7.344l-189.363,0.486
					c-15.037,0.039-27.195,12.26-27.157,27.296l0.047,18.205l2.33,439.069L516.989-81.311z"/>
			</g>
		</g>
		<g>
			<g>
				<g>
					<g>
						<path fill="#FFFFFF" d="M545.462,318.426l-2.246-10.232c68.896-15.12,112.647-83.473,97.526-152.371
							c-7.701-35.092-29.986-65.508-61.14-83.45l5.229-9.077c33.702,19.41,57.811,52.316,66.144,90.283
							c7.924,36.107,1.313,73.141-18.615,104.276C612.431,288.989,581.57,310.501,545.462,318.426z"/>
					</g>
					<g>
						<g>
							<polygon fill="#FFFFFF" points="547.924,53.988 604.21,54.785 584.499,69.541 587.548,93.971 							"/>
						</g>
					</g>
				</g>
			</g>
		</g>
		<g>
			<g>
				<g>
					<g>
						<path fill="#FFFFFF" d="M219.167,298.266c-33.373-19.972-56.927-53.277-64.622-91.377
							c-15.107-74.803,33.458-147.949,108.259-163.058l2.074,10.268c-69.141,13.964-114.03,81.575-100.066,150.716
							c7.113,35.217,28.885,66.002,59.733,84.463L219.167,298.266z"/>
					</g>
					<g>
						<g>
							<polygon fill="#FFFFFF" points="255.914,308.189 199.649,306.45 219.604,292.026 216.965,267.55 							"/>
						</g>
					</g>
				</g>
			</g>
		</g>
	</g>
</g>
</svg>
