<?xml version="1.0" encoding="utf-8"?>
<!-- Generator: Adobe Illustrator 16.0.0, SVG Export Plug-In . SVG Version: 6.00 Build 0)  -->
<!DOCTYPE svg PUBLIC "-//W3C//DTD SVG 1.1//EN" "http://www.w3.org/Graphics/SVG/1.1/DTD/svg11.dtd">
<svg version="1.1" id="圖層_1" xmlns="http://www.w3.org/2000/svg" xmlns:xlink="http://www.w3.org/1999/xlink" x="0px" y="0px"
	 width="114px" height="114px" viewBox="0 0 114 114" enable-background="new 0 0 114 114" xml:space="preserve">
<g id="上一頁_6_">
	<g opacity="0.85">
		<path fill="#FFFFFF" d="M57,113.077C26.079,113.077,0.923,87.921,0.923,57S26.079,0.923,57,0.923S113.077,26.079,113.077,57
			S87.921,113.077,57,113.077z M57,5.077C28.37,5.077,5.077,28.37,5.077,57S28.37,108.923,57,108.923
			c28.631,0,51.923-23.293,51.923-51.923S85.631,5.077,57,5.077z"/>
	</g>
	<g opacity="0.85">
		<path fill="#FFFFFF" d="M66.465,90.595c-0.531,0-1.063-0.203-1.469-0.609l-30.821-30.82c-0.39-0.389-0.608-0.918-0.608-1.469
			s0.219-1.078,0.608-1.469l32.213-32.213c0.811-0.811,2.127-0.811,2.938,0s0.812,2.127,0,2.938L38.581,57.696l29.353,29.352
			c0.811,0.813,0.812,2.127,0,2.938C67.528,90.392,66.996,90.595,66.465,90.595z"/>
	</g>
</g>
</svg>
