<?xml version="1.0" encoding="utf-8"?>
<!-- Generator: Adobe Illustrator 16.0.0, SVG Export Plug-In . SVG Version: 6.00 Build 0)  -->
<!DOCTYPE svg PUBLIC "-//W3C//DTD SVG 1.1//EN" "http://www.w3.org/Graphics/SVG/1.1/DTD/svg11.dtd">
<svg version="1.1" id="圖層_1" xmlns="http://www.w3.org/2000/svg" xmlns:xlink="http://www.w3.org/1999/xlink" x="0px" y="0px"
	 width="878px" height="632px" viewBox="0 178 878 632" enable-background="new 0 178 878 632" xml:space="preserve">
<g>
	<g>
		<g id="XMLID_5_">
			<g id="XMLID_7_">
				<g id="XMLID_25_">
					<path fill="#FFFFFF" d="M714.943,454.645V276.448c0-24.033-19.482-43.516-43.516-43.516H208.232
						c-24.034,0-43.515,19.482-43.515,43.516v178.198c0,24.034,19.482,43.516,43.515,43.516h463.196
						C695.461,498.161,714.943,478.679,714.943,454.645z"/>
				</g>
				<g id="XMLID_24_">
					<rect x="214.139" y="232.932" fill="#161922" width="451.383" height="265.229"/>
				</g>
				<g id="XMLID_23_">
					<path fill="#161922" d="M191.075,339.284V398.4c0,1.592-1.291,2.882-2.883,2.882l0,0c-1.592,0-2.883-1.292-2.883-2.882v-59.116
						c0-1.593,1.292-2.884,2.883-2.884l0,0C189.784,336.401,191.075,337.691,191.075,339.284z"/>
				</g>
				<g id="XMLID_22_" opacity="0.73">
					<path fill="#161922" d="M692.371,339.681v51.733c0,1.637-1.327,2.962-2.963,2.962l0,0c-1.637,0-2.962-1.326-2.962-2.962
						v-51.733c0-1.636,1.325-2.963,2.962-2.963l0,0C691.044,336.718,692.371,338.045,692.371,339.681z"/>
				</g>
				<g id="XMLID_15_">
					<path id="XMLID_10_" fill="#BCBDC2" d="M187.408,314.838c1.667,0,3.178,0.677,4.271,1.769c1.093,1.093,1.77,2.604,1.77,4.272
						c0,1.668-0.676,3.178-1.77,4.271c-1.093,1.095-2.603,1.77-4.271,1.77s-3.178-0.675-4.271-1.77
						c-1.093-1.092-1.77-2.603-1.77-4.271c0-1.667,0.676-3.179,1.77-4.272C184.23,315.515,185.74,314.838,187.408,314.838z"/>
					<path fill="#BBBCC1" d="M183.14,316.605c0.023-0.022,0.047-0.045,0.071-0.066c0.853-0.818,1.963-1.371,3.206-1.533
						c0.285-0.037,0.577-0.055,0.875-0.049c1.63,0.027,3.115,0.715,4.197,1.805c0.104,0.104,0.205,0.213,0.302,0.326
						c0.906,1.054,1.464,2.417,1.485,3.9c0.01,0.648-0.083,1.271-0.262,1.854c-0.226,0.729-0.586,1.394-1.054,1.966
						c-0.02,0.024-0.04,0.048-0.059,0.072c-0.088,0.104-0.18,0.205-0.274,0.301c-0.516,0.506-1.122,0.92-1.791,1.216
						c-0.761,0.334-1.603,0.518-2.484,0.511c-1.646-0.008-3.137-0.678-4.217-1.759c-1.093-1.092-1.77-2.603-1.77-4.27
						C181.367,319.211,182.045,317.698,183.14,316.605z"/>
					<path fill="#BABBC0" d="M183.143,316.602c0.023-0.021,0.047-0.043,0.07-0.063c0.82-0.78,1.897-1.299,3.11-1.433
						c0.278-0.031,0.563-0.042,0.854-0.031c1.594,0.058,3.052,0.755,4.124,1.842c0.104,0.104,0.204,0.214,0.299,0.325
						c0.9,1.049,1.464,2.396,1.508,3.856c0.019,0.638-0.062,1.25-0.226,1.824c-0.208,0.716-0.542,1.371-0.986,1.928
						c-0.019,0.023-0.038,0.047-0.056,0.07c-0.084,0.102-0.17,0.201-0.261,0.294c-0.519,0.5-1.125,0.907-1.797,1.196
						c-0.763,0.326-1.603,0.498-2.481,0.486c-1.625-0.02-3.094-0.679-4.162-1.748c-1.093-1.092-1.77-2.603-1.77-4.271
						C181.367,319.209,182.046,317.696,183.143,316.602z"/>
					<path fill="#B9BABF" d="M183.146,316.6c0.022-0.021,0.045-0.041,0.068-0.061c0.789-0.743,1.832-1.227,3.013-1.333
						c0.271-0.024,0.55-0.029,0.834-0.014c1.556,0.085,2.989,0.792,4.049,1.877c0.103,0.105,0.202,0.213,0.297,0.324
						c0.893,1.043,1.462,2.374,1.528,3.813c0.028,0.627-0.039,1.229-0.188,1.792c-0.189,0.703-0.508,1.339-0.922,1.889
						c-0.017,0.023-0.035,0.046-0.053,0.069c-0.079,0.099-0.161,0.195-0.246,0.289c-0.522,0.492-1.131,0.894-1.805,1.176
						c-0.763,0.319-1.604,0.479-2.478,0.463c-1.603-0.03-3.052-0.681-4.107-1.737c-1.092-1.092-1.77-2.603-1.77-4.271
						C181.367,319.208,182.048,317.693,183.146,316.6z"/>
					<path fill="#B8B9BF" d="M183.149,316.597c0.021-0.021,0.043-0.039,0.066-0.057c0.757-0.706,1.767-1.155,2.917-1.233
						c0.265-0.018,0.536-0.017,0.813,0.004c1.52,0.113,2.926,0.833,3.978,1.913c0.102,0.104,0.199,0.212,0.294,0.323
						c0.886,1.039,1.46,2.353,1.548,3.768c0.038,0.618-0.016,1.209-0.152,1.762c-0.17,0.689-0.467,1.313-0.855,1.851
						c-0.016,0.022-0.033,0.045-0.049,0.068c-0.075,0.096-0.152,0.191-0.232,0.282c-0.526,0.487-1.138,0.882-1.812,1.156
						c-0.766,0.311-1.603,0.461-2.475,0.44c-1.58-0.04-3.011-0.683-4.053-1.726c-1.093-1.092-1.77-2.603-1.77-4.271
						C181.367,319.206,182.049,317.691,183.149,316.597z"/>
					<path fill="#B7B9BE" d="M183.151,316.594c0.021-0.021,0.043-0.037,0.065-0.053c0.725-0.668,1.701-1.083,2.82-1.133
						c0.257-0.011,0.522-0.004,0.792,0.022c1.483,0.141,2.863,0.872,3.904,1.949c0.101,0.104,0.197,0.212,0.292,0.322
						c0.879,1.033,1.46,2.333,1.569,3.725c0.047,0.607,0.006,1.189-0.114,1.729c-0.151,0.677-0.429,1.287-0.79,1.813
						c-0.015,0.022-0.031,0.045-0.047,0.066c-0.07,0.094-0.142,0.187-0.217,0.275c-0.529,0.48-1.143,0.869-1.818,1.135
						c-0.768,0.304-1.603,0.445-2.472,0.417c-1.558-0.05-2.968-0.684-3.998-1.714c-1.093-1.092-1.771-2.603-1.771-4.27
						C181.367,319.204,182.049,317.689,183.151,316.594z"/>
					<path fill="#B6B8BD" d="M183.154,316.593c0.021-0.02,0.042-0.036,0.063-0.05c0.693-0.631,1.634-1.011,2.725-1.033
						c0.25-0.005,0.508,0.008,0.772,0.04c1.444,0.169,2.799,0.91,3.83,1.984c0.1,0.104,0.196,0.211,0.289,0.32
						c0.873,1.029,1.459,2.313,1.59,3.682c0.057,0.598,0.028,1.168-0.078,1.699c-0.132,0.664-0.384,1.263-0.723,1.775
						c-0.014,0.021-0.029,0.042-0.043,0.063c-0.065,0.094-0.132,0.184-0.204,0.271c-0.531,0.474-1.147,0.856-1.826,1.116
						c-0.769,0.295-1.603,0.427-2.469,0.394c-1.535-0.059-2.926-0.686-3.942-1.704c-1.092-1.093-1.77-2.603-1.77-4.271
						C181.367,319.203,182.051,317.687,183.154,316.593z"/>
					<path fill="#B5B7BC" d="M183.156,316.59c0.021-0.019,0.041-0.033,0.063-0.046c0.661-0.594,1.568-0.938,2.628-0.935
						c0.243,0.001,0.494,0.021,0.751,0.059c1.409,0.198,2.736,0.949,3.756,2.021c0.099,0.104,0.194,0.21,0.287,0.319
						c0.865,1.023,1.458,2.291,1.611,3.637c0.066,0.587,0.051,1.149-0.041,1.668c-0.114,0.651-0.343,1.237-0.658,1.735
						c-0.013,0.021-0.027,0.042-0.041,0.063c-0.061,0.091-0.124,0.18-0.189,0.264c-0.535,0.468-1.153,0.843-1.833,1.095
						c-0.771,0.287-1.604,0.409-2.465,0.37c-1.514-0.069-2.884-0.688-3.889-1.693c-1.093-1.092-1.77-2.603-1.77-4.271
						C181.367,319.202,182.052,317.684,183.156,316.59z"/>
					<path fill="#B4B6BB" d="M183.16,316.588c0.019-0.018,0.04-0.031,0.06-0.043c0.629-0.557,1.503-0.869,2.532-0.834
						c0.236,0.008,0.48,0.035,0.731,0.077c1.371,0.23,2.676,0.984,3.683,2.057c0.097,0.103,0.192,0.21,0.283,0.319
						c0.858,1.017,1.458,2.27,1.633,3.592c0.074,0.577,0.071,1.127-0.004,1.637c-0.096,0.637-0.306,1.208-0.592,1.697
						c-0.012,0.021-0.024,0.041-0.037,0.062c-0.056,0.088-0.114,0.175-0.175,0.258c-0.539,0.461-1.16,0.829-1.839,1.075
						c-0.773,0.279-1.604,0.393-2.462,0.348c-1.491-0.078-2.842-0.69-3.833-1.682c-1.093-1.092-1.77-2.603-1.77-4.27
						C181.367,319.2,182.053,317.682,183.16,316.588z"/>
					<path fill="#B3B5BA" d="M183.163,316.586c0.019-0.018,0.039-0.029,0.059-0.04c0.597-0.519,1.438-0.797,2.436-0.734
						c0.229,0.015,0.466,0.046,0.709,0.094c1.333,0.261,2.611,1.027,3.609,2.094c0.096,0.103,0.19,0.209,0.281,0.316
						c0.852,1.015,1.458,2.25,1.653,3.55c0.085,0.567,0.094,1.107,0.033,1.607c-0.077,0.625-0.266,1.182-0.526,1.659
						c-0.011,0.02-0.022,0.04-0.034,0.06c-0.051,0.086-0.105,0.17-0.161,0.25c-0.542,0.455-1.164,0.817-1.846,1.057
						c-0.774,0.271-1.605,0.374-2.459,0.322c-1.47-0.087-2.8-0.69-3.779-1.67c-1.093-1.092-1.771-2.603-1.771-4.271
						C181.367,319.198,182.055,317.68,183.163,316.586z"/>
					<path fill="#B2B4BA" d="M183.165,316.583c0.019-0.017,0.038-0.026,0.058-0.036c0.564-0.481,1.374-0.726,2.339-0.634
						c0.223,0.021,0.452,0.059,0.689,0.111c1.295,0.289,2.547,1.065,3.535,2.129c0.095,0.104,0.188,0.208,0.278,0.316
						c0.844,1.009,1.457,2.229,1.674,3.507c0.094,0.555,0.116,1.085,0.069,1.576c-0.059,0.611-0.216,1.16-0.459,1.621
						c-0.01,0.019-0.021,0.039-0.031,0.058c-0.046,0.084-0.095,0.166-0.146,0.244c-0.543,0.449-1.169,0.804-1.853,1.036
						c-0.776,0.264-1.606,0.356-2.457,0.3c-1.446-0.096-2.758-0.692-3.725-1.659c-1.092-1.093-1.77-2.603-1.77-4.271
						C181.367,319.197,182.056,317.677,183.165,316.583z"/>
					<path fill="#B1B3B9" d="M183.168,316.58c0.018-0.015,0.037-0.024,0.056-0.033c0.533-0.443,1.308-0.652,2.243-0.534
						c0.215,0.027,0.438,0.071,0.668,0.129c1.257,0.317,2.484,1.104,3.46,2.165c0.094,0.103,0.187,0.208,0.276,0.315
						c0.837,1.002,1.455,2.208,1.695,3.462c0.104,0.545,0.138,1.065,0.106,1.544c-0.04,0.598-0.185,1.129-0.395,1.582
						c-0.009,0.02-0.018,0.039-0.027,0.057c-0.042,0.082-0.086,0.162-0.133,0.238c-0.546,0.441-1.174,0.791-1.859,1.016
						c-0.778,0.255-1.606,0.339-2.454,0.276c-1.424-0.105-2.717-0.695-3.669-1.649c-1.093-1.092-1.77-2.603-1.77-4.271
						C181.367,319.196,182.057,317.675,183.168,316.58z"/>
					<path fill="#B0B2B8" d="M183.171,316.578c0.018-0.015,0.036-0.022,0.055-0.029c0.5-0.406,1.242-0.581,2.146-0.436
						c0.208,0.034,0.424,0.084,0.647,0.147c1.221,0.345,2.421,1.143,3.388,2.201c0.094,0.102,0.185,0.207,0.272,0.313
						c0.831,0.999,1.455,2.189,1.718,3.419c0.113,0.536,0.161,1.044,0.143,1.514c-0.022,0.584-0.14,1.105-0.329,1.544
						c-0.008,0.018-0.017,0.037-0.024,0.055c-0.037,0.08-0.077,0.157-0.118,0.231c-0.55,0.437-1.181,0.777-1.866,0.997
						c-0.78,0.246-1.607,0.32-2.45,0.253c-1.402-0.114-2.674-0.697-3.615-1.638c-1.093-1.092-1.77-2.603-1.77-4.27
						C181.367,319.194,182.058,317.673,183.171,316.578z"/>
					<path fill="#AFB2B7" d="M183.174,316.574c0.017-0.013,0.035-0.021,0.053-0.024c0.469-0.368,1.177-0.508,2.051-0.334
						c0.201,0.04,0.41,0.096,0.626,0.165c1.184,0.374,2.357,1.182,3.314,2.236c0.092,0.103,0.183,0.206,0.271,0.313
						c0.824,0.993,1.454,2.167,1.738,3.375c0.122,0.526,0.182,1.024,0.18,1.482c-0.003,0.57-0.104,1.078-0.263,1.505
						c-0.006,0.018-0.014,0.036-0.021,0.054c-0.033,0.078-0.067,0.153-0.104,0.225c-0.554,0.431-1.187,0.766-1.874,0.977
						c-0.782,0.239-1.608,0.304-2.448,0.229c-1.379-0.123-2.632-0.697-3.56-1.625c-1.093-1.093-1.771-2.603-1.771-4.271
						C181.367,319.192,182.06,317.67,183.174,316.574z"/>
					<path fill="#AEB1B6" d="M183.176,316.571c0.017-0.012,0.034-0.018,0.052-0.021c0.437-0.331,1.11-0.438,1.954-0.235
						c0.193,0.046,0.395,0.109,0.604,0.184c1.146,0.402,2.295,1.22,3.241,2.271c0.091,0.103,0.181,0.206,0.268,0.313
						c0.816,0.988,1.456,2.146,1.759,3.331c0.132,0.516,0.204,1.005,0.216,1.452c0.016,0.559-0.051,1.056-0.196,1.468
						c-0.006,0.017-0.012,0.035-0.019,0.052c-0.028,0.075-0.058,0.148-0.089,0.218c-0.558,0.423-1.191,0.752-1.881,0.957
						c-0.783,0.231-1.607,0.287-2.443,0.206c-1.357-0.131-2.59-0.7-3.505-1.616c-1.093-1.092-1.77-2.603-1.77-4.271
						C181.367,319.191,182.061,317.668,183.176,316.571z"/>
					<path fill="#ADB0B5" d="M183.179,316.569c0.016-0.011,0.032-0.017,0.05-0.019c0.405-0.293,1.045-0.364,1.858-0.134
						c0.187,0.053,0.38,0.121,0.584,0.199c1.108,0.43,2.23,1.261,3.166,2.31c0.091,0.101,0.18,0.205,0.267,0.311
						c0.81,0.983,1.45,2.125,1.779,3.288c0.141,0.506,0.226,0.983,0.253,1.42c0.034,0.545-0.028,1.024-0.131,1.429
						c-0.004,0.017-0.01,0.033-0.015,0.051c-0.023,0.073-0.048,0.144-0.075,0.212c-0.561,0.417-1.198,0.74-1.888,0.936
						c-0.785,0.225-1.608,0.271-2.44,0.184c-1.334-0.139-2.548-0.702-3.451-1.605c-1.093-1.092-1.77-2.603-1.77-4.27
						C181.367,319.19,182.063,317.666,183.179,316.569z"/>
					<path fill="#ACAFB5" d="M183.182,316.567c0.015-0.01,0.031-0.014,0.048-0.015c0.373-0.256,0.979-0.293,1.761-0.035
						c0.18,0.06,0.368,0.134,0.563,0.219c1.071,0.459,2.168,1.298,3.093,2.346c0.09,0.101,0.177,0.203,0.264,0.309
						c0.805,0.976,1.451,2.105,1.801,3.244c0.15,0.496,0.248,0.962,0.29,1.39c0.052,0.531,0.028,1.001-0.064,1.391
						c-0.004,0.016-0.008,0.032-0.012,0.049c-0.019,0.071-0.039,0.141-0.061,0.206c-0.563,0.41-1.203,0.727-1.894,0.917
						c-0.787,0.215-1.609,0.252-2.437,0.159c-1.313-0.147-2.506-0.703-3.396-1.593c-1.092-1.093-1.77-2.603-1.77-4.271
						C181.367,319.189,182.063,317.664,183.182,316.567z"/>
					<path fill="#ABAEB4" d="M183.184,316.565c0.015-0.009,0.031-0.012,0.047-0.012c0.341-0.219,0.915-0.222,1.667,0.064
						c0.173,0.066,0.354,0.146,0.542,0.236c1.034,0.488,2.105,1.337,3.02,2.381c0.089,0.102,0.176,0.204,0.261,0.309
						c0.795,0.973,1.45,2.084,1.822,3.2c0.16,0.484,0.271,0.941,0.326,1.358c0.07,0.52,0.062,0.974,0.001,1.353
						c-0.002,0.016-0.005,0.031-0.008,0.048c-0.015,0.068-0.03,0.136-0.048,0.199c-0.565,0.403-1.208,0.713-1.901,0.895
						c-0.789,0.208-1.609,0.235-2.434,0.136c-1.291-0.154-2.464-0.705-3.342-1.583c-1.092-1.092-1.77-2.603-1.77-4.271
						C181.367,319.188,182.064,317.661,183.184,316.565z"/>
					<path fill="#AAADB3" d="M183.188,316.562c0.014-0.009,0.029-0.01,0.045-0.009c0.309-0.181,0.849-0.148,1.568,0.165
						c0.167,0.072,0.34,0.159,0.523,0.253c0.996,0.517,2.042,1.376,2.945,2.417c0.088,0.101,0.174,0.203,0.259,0.306
						c0.789,0.969,1.451,2.063,1.842,3.156c0.17,0.476,0.292,0.92,0.364,1.329c0.088,0.505,0.109,0.948,0.066,1.314
						c-0.002,0.015-0.004,0.03-0.006,0.046c-0.01,0.065-0.021,0.132-0.033,0.191c-0.57,0.398-1.213,0.701-1.909,0.876
						c-0.79,0.199-1.61,0.219-2.431,0.112c-1.269-0.163-2.422-0.707-3.286-1.572c-1.094-1.092-1.771-2.603-1.771-4.271
						C181.367,319.187,182.065,317.658,183.188,316.562z"/>
					<path fill="#A9ACB2" d="M183.19,316.56c0.013-0.008,0.028-0.008,0.043-0.005c0.277-0.144,0.783-0.077,1.474,0.265
						c0.159,0.079,0.326,0.17,0.502,0.271c0.958,0.544,1.979,1.416,2.872,2.454c0.086,0.1,0.172,0.202,0.256,0.305
						c0.783,0.963,1.45,2.042,1.863,3.112c0.18,0.465,0.314,0.899,0.4,1.296c0.107,0.492,0.146,0.92,0.133,1.276
						c0,0.014-0.001,0.029-0.002,0.044c-0.005,0.063-0.011,0.127-0.019,0.186c-0.573,0.392-1.219,0.688-1.916,0.857
						c-0.792,0.19-1.609,0.2-2.427,0.088c-1.246-0.171-2.38-0.708-3.232-1.56c-1.092-1.093-1.77-2.603-1.77-4.271
						C181.367,319.185,182.067,317.656,183.19,316.56z"/>
					<path fill="#A8ABB1" d="M183.193,316.557c0.013-0.007,0.027-0.006,0.043-0.001c0.244-0.106,0.719-0.006,1.376,0.364
						c0.152,0.085,0.312,0.184,0.481,0.289c0.92,0.572,1.916,1.455,2.798,2.488c0.086,0.102,0.17,0.202,0.253,0.306
						c0.776,0.958,1.446,2.022,1.884,3.067c0.188,0.455,0.336,0.878,0.438,1.267c0.126,0.478,0.192,0.894,0.199,1.236
						c0,0.016,0,0.029,0,0.044c0,0.062-0.001,0.122-0.004,0.18c-0.577,0.386-1.225,0.674-1.922,0.836
						c-0.793,0.183-1.61,0.184-2.425,0.064c-1.223-0.178-2.338-0.709-3.177-1.548c-1.093-1.092-1.77-2.603-1.77-4.271
						C181.367,319.184,182.068,317.653,183.193,316.557z"/>
					<path fill="#A7AAB0" d="M183.196,316.554c0.013-0.006,0.026-0.004,0.041,0.002c0.213-0.069,0.653,0.067,1.279,0.463
						c0.145,0.092,0.298,0.197,0.461,0.309c0.882,0.602,1.853,1.492,2.725,2.523c0.085,0.102,0.168,0.202,0.25,0.304
						c0.769,0.953,1.446,2.002,1.905,3.025c0.198,0.444,0.358,0.858,0.474,1.235c0.143,0.464,0.234,0.866,0.266,1.198
						c0.001,0.014,0.002,0.028,0.004,0.042c0.004,0.061,0.008,0.119,0.01,0.174c-0.58,0.38-1.229,0.663-1.93,0.816
						c-0.795,0.176-1.61,0.167-2.421,0.042c-1.2-0.185-2.296-0.711-3.123-1.539c-1.093-1.092-1.77-2.603-1.77-4.271
						C181.367,319.182,182.069,317.651,183.196,316.554z"/>
					<path fill="#A7AAB0" d="M183.198,316.552c0.012-0.005,0.025-0.002,0.039,0.005c0.181-0.031,0.587,0.14,1.185,0.564
						c0.138,0.098,0.283,0.209,0.439,0.324c0.846,0.63,1.791,1.533,2.651,2.562c0.083,0.1,0.166,0.2,0.248,0.302
						c0.762,0.948,1.447,1.981,1.926,2.981c0.208,0.434,0.38,0.837,0.512,1.205c0.162,0.449,0.269,0.84,0.331,1.159
						c0.002,0.014,0.004,0.027,0.007,0.04c0.009,0.058,0.018,0.114,0.024,0.167c-0.583,0.373-1.236,0.649-1.938,0.797
						c-0.797,0.167-1.611,0.149-2.418,0.018c-1.178-0.192-2.254-0.712-3.068-1.527c-1.093-1.092-1.77-2.603-1.77-4.271
						C181.367,319.181,182.07,317.65,183.198,316.552z"/>
					<path fill="#A6A9AF" d="M183.201,316.55c0.011-0.004,0.023,0,0.038,0.009c0.149,0.006,0.523,0.212,1.087,0.665
						c0.131,0.104,0.269,0.221,0.419,0.343c0.809,0.658,1.727,1.571,2.577,2.598c0.083,0.1,0.164,0.199,0.245,0.302
						c0.754,0.941,1.445,1.959,1.947,2.937c0.218,0.424,0.401,0.818,0.548,1.174c0.18,0.438,0.306,0.816,0.397,1.121
						c0.004,0.014,0.007,0.026,0.01,0.039c0.014,0.056,0.027,0.11,0.038,0.161c-0.586,0.366-1.24,0.636-1.942,0.777
						c-0.8,0.16-1.611,0.133-2.415-0.005c-1.157-0.2-2.212-0.714-3.014-1.516c-1.092-1.092-1.77-2.603-1.77-4.271
						C181.367,319.18,182.071,317.647,183.201,316.55z"/>
					<path fill="#A5A8AE" d="M183.204,316.548c0.01-0.003,0.023,0.002,0.037,0.012c0.116,0.044,0.457,0.285,0.992,0.764
						c0.125,0.111,0.255,0.234,0.398,0.361c0.771,0.687,1.667,1.608,2.504,2.632c0.081,0.101,0.162,0.2,0.243,0.3
						c0.748,0.938,1.443,1.94,1.968,2.895c0.226,0.414,0.423,0.795,0.584,1.142c0.198,0.424,0.345,0.791,0.463,1.083
						c0.005,0.013,0.009,0.025,0.013,0.037c0.019,0.054,0.036,0.106,0.053,0.154c-0.589,0.36-1.246,0.623-1.951,0.756
						c-0.801,0.151-1.611,0.117-2.412-0.028c-1.134-0.205-2.17-0.716-2.958-1.504c-1.093-1.092-1.77-2.603-1.77-4.271
						C181.367,319.178,182.072,317.645,183.204,316.548z"/>
					<path fill="#A4A7AD" d="M183.207,316.546c0.01-0.002,0.022,0.004,0.035,0.016c0.085,0.081,0.392,0.356,0.896,0.863
						c0.117,0.118,0.241,0.246,0.377,0.379c0.734,0.713,1.601,1.647,2.43,2.668c0.08,0.099,0.16,0.199,0.24,0.299
						c0.741,0.933,1.444,1.917,1.989,2.85c0.236,0.403,0.444,0.775,0.622,1.112c0.216,0.41,0.384,0.766,0.529,1.044
						c0.006,0.012,0.011,0.023,0.017,0.035c0.023,0.051,0.045,0.103,0.066,0.147c-0.593,0.354-1.25,0.609-1.958,0.736
						c-0.802,0.145-1.611,0.102-2.408-0.052c-1.112-0.212-2.129-0.717-2.904-1.494c-1.092-1.093-1.77-2.603-1.77-4.271
						C181.367,319.177,182.073,317.643,183.207,316.546z"/>
					<path fill="#A3A6AC" d="M183.209,316.543c0.01-0.002,0.021,0.006,0.033,0.019c0.053,0.119,0.328,0.427,0.8,0.963
						c0.109,0.125,0.227,0.258,0.356,0.396c0.696,0.742,1.538,1.687,2.356,2.705c0.079,0.099,0.158,0.197,0.237,0.298
						c0.734,0.927,1.444,1.896,2.011,2.805c0.246,0.395,0.466,0.755,0.658,1.081c0.234,0.397,0.43,0.737,0.595,1.006
						c0.007,0.012,0.013,0.023,0.02,0.034c0.028,0.049,0.055,0.097,0.081,0.142c-0.596,0.348-1.257,0.597-1.965,0.717
						c-0.804,0.135-1.612,0.084-2.405-0.076c-1.089-0.219-2.087-0.719-2.849-1.483c-1.093-1.092-1.771-2.603-1.771-4.27
						C181.367,319.176,182.075,317.64,183.209,316.543z"/>
					<path fill="#A2A5AB" d="M183.212,316.54c0.009,0,0.02,0.009,0.032,0.021c0.021,0.157,0.261,0.501,0.703,1.064
						c0.103,0.131,0.212,0.271,0.335,0.414c0.66,0.769,1.474,1.726,2.283,2.739c0.078,0.1,0.156,0.197,0.234,0.296
						c0.728,0.924,1.442,1.877,2.032,2.763c0.255,0.384,0.489,0.733,0.695,1.05c0.251,0.383,0.471,0.708,0.66,0.967
						c0.008,0.012,0.016,0.022,0.023,0.033c0.032,0.046,0.063,0.093,0.095,0.134c-0.599,0.342-1.262,0.584-1.971,0.698
						c-0.807,0.127-1.612,0.068-2.402-0.099c-1.067-0.226-2.045-0.722-2.795-1.472c-1.092-1.092-1.77-2.603-1.77-4.271
						C181.367,319.175,182.076,317.638,183.212,316.54z"/>
					<path fill="#A1A4AB" d="M183.215,316.538c0.008,0,0.019,0.01,0.03,0.025c-0.011,0.194,0.196,0.574,0.606,1.164
						c0.096,0.138,0.199,0.283,0.315,0.432c0.623,0.798,1.411,1.766,2.209,2.777c0.077,0.098,0.154,0.197,0.232,0.294
						c0.723,0.917,1.44,1.857,2.052,2.72c0.265,0.372,0.51,0.713,0.732,1.019c0.27,0.371,0.509,0.685,0.727,0.929
						c0.009,0.011,0.018,0.021,0.026,0.031c0.037,0.044,0.073,0.089,0.109,0.128c-0.603,0.335-1.268,0.572-1.979,0.677
						c-0.808,0.12-1.612,0.053-2.399-0.123c-1.045-0.231-2.002-0.722-2.74-1.459c-1.092-1.093-1.77-2.603-1.77-4.271
						C181.367,319.174,182.077,317.635,183.215,316.538z"/>
					<path fill="#A0A3AA" d="M183.218,316.534c0.008,0.002,0.018,0.014,0.028,0.03c-0.043,0.231,0.13,0.646,0.51,1.263
						c0.089,0.145,0.186,0.296,0.294,0.449c0.584,0.826,1.348,1.805,2.136,2.812c0.077,0.098,0.153,0.196,0.23,0.294
						c0.712,0.913,1.439,1.834,2.073,2.674c0.274,0.363,0.531,0.694,0.769,0.988c0.289,0.357,0.545,0.666,0.792,0.892
						c0.01,0.01,0.02,0.021,0.029,0.029c0.042,0.042,0.083,0.084,0.124,0.121c-0.605,0.329-1.272,0.559-1.985,0.658
						c-0.81,0.11-1.613,0.035-2.395-0.146c-1.022-0.238-1.96-0.724-2.685-1.451c-1.093-1.092-1.77-2.603-1.77-4.27
						C181.367,319.172,182.078,317.633,183.218,316.534z"/>
					<path fill="#9FA2A9" d="M183.22,316.531c0.007,0.002,0.017,0.016,0.027,0.034c-0.075,0.27,0.064,0.718,0.414,1.363
						c0.082,0.151,0.172,0.308,0.274,0.466c0.549,0.854,1.285,1.843,2.061,2.85c0.076,0.098,0.151,0.194,0.228,0.294
						c0.707,0.906,1.438,1.814,2.094,2.631c0.282,0.353,0.553,0.672,0.806,0.957c0.306,0.345,0.585,0.639,0.857,0.853
						c0.011,0.009,0.022,0.02,0.033,0.027c0.046,0.04,0.092,0.081,0.138,0.115c-0.608,0.321-1.278,0.545-1.993,0.637
						c-0.812,0.104-1.613,0.021-2.393-0.169c-1.001-0.244-1.919-0.727-2.63-1.439c-1.093-1.092-1.77-2.603-1.77-4.271
						C181.367,319.171,182.08,317.63,183.22,316.531z"/>
					<path fill="#9EA2A8" d="M183.223,316.529c0.007,0.003,0.016,0.018,0.026,0.036c-0.107,0.308-0.001,0.792,0.318,1.463
						c0.075,0.157,0.157,0.32,0.253,0.485c0.51,0.881,1.223,1.881,1.988,2.884c0.074,0.098,0.148,0.195,0.225,0.292
						c0.7,0.902,1.437,1.795,2.115,2.586c0.292,0.344,0.575,0.652,0.843,0.926c0.324,0.332,0.627,0.613,0.925,0.814
						c0.012,0.008,0.024,0.019,0.036,0.026c0.051,0.037,0.102,0.076,0.151,0.108c-0.611,0.315-1.284,0.533-1.999,0.617
						c-0.813,0.096-1.614,0.005-2.39-0.192c-0.979-0.25-1.877-0.728-2.575-1.427c-1.093-1.093-1.771-2.603-1.771-4.271
						C181.367,319.17,182.081,317.628,183.223,316.529z"/>
					<path fill="#9DA1A7" d="M183.226,316.526c0.006,0.004,0.014,0.02,0.024,0.04c-0.14,0.343-0.068,0.864,0.221,1.564
						c0.067,0.163,0.144,0.332,0.232,0.502c0.473,0.91,1.157,1.922,1.914,2.92c0.074,0.097,0.147,0.194,0.223,0.291
						c0.693,0.896,1.436,1.775,2.136,2.543c0.301,0.333,0.597,0.632,0.879,0.895c0.342,0.318,0.669,0.586,0.989,0.776
						c0.014,0.008,0.026,0.018,0.04,0.024c0.056,0.035,0.11,0.07,0.166,0.103c-0.615,0.31-1.29,0.521-2.006,0.598
						c-0.815,0.088-1.616-0.012-2.387-0.217c-0.958-0.254-1.835-0.729-2.521-1.417c-1.093-1.092-1.77-2.603-1.77-4.27
						C181.367,319.169,182.083,317.626,183.226,316.526z"/>
					<path fill="#9CA0A6" d="M183.229,316.525c0.005,0.004,0.014,0.021,0.022,0.043c-0.171,0.38-0.133,0.936,0.125,1.663
						c0.061,0.169,0.129,0.344,0.211,0.521c0.437,0.937,1.095,1.959,1.84,2.957c0.072,0.097,0.146,0.192,0.22,0.29
						c0.686,0.892,1.435,1.753,2.157,2.499c0.311,0.322,0.617,0.61,0.916,0.864c0.359,0.306,0.713,0.557,1.057,0.738
						c0.014,0.007,0.028,0.015,0.042,0.022c0.061,0.032,0.12,0.067,0.18,0.096c-0.618,0.302-1.294,0.506-2.013,0.578
						c-0.816,0.08-1.616-0.026-2.383-0.24c-0.936-0.26-1.793-0.73-2.466-1.406c-1.093-1.092-1.77-2.603-1.77-4.271
						C181.367,319.167,182.083,317.623,183.229,316.525z"/>
					<path fill="#9B9FA6" d="M183.232,316.522c0.005,0.006,0.013,0.023,0.021,0.047c-0.204,0.417-0.2,1.009,0.029,1.763
						c0.053,0.177,0.116,0.356,0.19,0.538c0.399,0.965,1.033,1.998,1.768,2.992c0.071,0.098,0.144,0.193,0.217,0.289
						c0.679,0.888,1.433,1.733,2.178,2.456c0.32,0.313,0.639,0.59,0.953,0.833c0.378,0.292,0.751,0.534,1.122,0.699
						c0.016,0.007,0.03,0.015,0.046,0.021c0.065,0.03,0.129,0.063,0.194,0.089c-0.622,0.296-1.3,0.495-2.02,0.557
						c-0.819,0.072-1.616-0.042-2.38-0.263c-0.914-0.266-1.75-0.734-2.412-1.395c-1.093-1.092-1.77-2.603-1.77-4.271
						C181.367,319.165,182.085,317.621,183.232,316.522z"/>
					<path fill="#9A9EA5" d="M183.234,316.519c0.004,0.006,0.012,0.025,0.02,0.05c-0.235,0.456-0.265,1.081-0.067,1.862
						c0.046,0.184,0.101,0.37,0.169,0.556c0.363,0.994,0.969,2.037,1.693,3.028c0.071,0.097,0.142,0.192,0.215,0.288
						c0.672,0.882,1.433,1.712,2.199,2.412c0.329,0.302,0.661,0.57,0.989,0.802c0.396,0.279,0.792,0.51,1.188,0.661
						c0.017,0.006,0.032,0.014,0.048,0.021c0.07,0.027,0.139,0.059,0.208,0.082c-0.624,0.291-1.306,0.482-2.026,0.538
						c-0.821,0.064-1.618-0.056-2.377-0.286c-0.892-0.271-1.708-0.735-2.357-1.384c-1.093-1.092-1.77-2.603-1.77-4.27
						C181.367,319.164,182.086,317.619,183.234,316.519z"/>
					<path fill="#999DA4" d="M183.238,316.517c0.004,0.007,0.01,0.027,0.018,0.054c-0.267,0.494-0.331,1.154-0.164,1.962
						c0.039,0.189,0.087,0.383,0.149,0.574c0.327,1.022,0.904,2.078,1.62,3.065c0.069,0.096,0.141,0.19,0.212,0.286
						c0.666,0.877,1.432,1.691,2.22,2.369c0.339,0.292,0.683,0.549,1.026,0.771c0.413,0.266,0.835,0.478,1.253,0.623
						c0.017,0.006,0.034,0.013,0.051,0.019c0.074,0.026,0.148,0.056,0.223,0.077c-0.627,0.284-1.312,0.469-2.034,0.518
						c-0.822,0.056-1.619-0.071-2.375-0.312c-0.871-0.275-1.667-0.735-2.302-1.373c-1.093-1.092-1.771-2.603-1.771-4.271
						C181.367,319.163,182.087,317.615,183.238,316.517z"/>
					<path fill="#989CA3" d="M183.24,316.514c0.003,0.008,0.009,0.029,0.016,0.058c-0.299,0.531-0.397,1.225-0.26,2.063
						c0.032,0.197,0.074,0.394,0.128,0.592c0.291,1.048,0.844,2.115,1.546,3.101c0.068,0.096,0.138,0.19,0.209,0.285
						c0.658,0.872,1.432,1.671,2.241,2.325c0.348,0.282,0.704,0.53,1.063,0.741c0.431,0.253,0.876,0.451,1.32,0.584
						c0.019,0.005,0.036,0.012,0.055,0.017c0.08,0.024,0.158,0.051,0.237,0.07c-0.63,0.278-1.315,0.456-2.041,0.498
						c-0.824,0.048-1.62-0.085-2.371-0.333c-0.849-0.28-1.625-0.738-2.248-1.362c-1.093-1.092-1.77-2.603-1.77-4.271
						C181.367,319.161,182.088,317.614,183.24,316.514z"/>
					<path fill="#979BA2" d="M183.243,316.511c0.003,0.009,0.008,0.031,0.015,0.061c-0.331,0.569-0.465,1.299-0.356,2.162
						c0.025,0.203,0.06,0.406,0.108,0.609c0.253,1.078,0.78,2.154,1.473,3.135c0.067,0.096,0.136,0.191,0.207,0.284
						c0.653,0.866,1.43,1.651,2.262,2.281c0.358,0.271,0.726,0.509,1.101,0.71c0.45,0.241,0.917,0.424,1.387,0.545
						c0.02,0.005,0.038,0.011,0.058,0.016c0.083,0.021,0.167,0.046,0.251,0.064c-0.634,0.27-1.322,0.442-2.047,0.477
						c-0.826,0.04-1.621-0.1-2.367-0.356c-0.828-0.285-1.583-0.74-2.193-1.35c-1.092-1.093-1.77-2.603-1.77-4.271
						C181.367,319.159,182.089,317.612,183.243,316.511z"/>
					<path fill="#969BA1" d="M183.245,316.51c0.002,0.009,0.007,0.033,0.014,0.063c-0.363,0.606-0.531,1.371-0.453,2.263
						c0.018,0.209,0.046,0.419,0.087,0.628c0.217,1.104,0.717,2.191,1.399,3.171c0.066,0.095,0.135,0.188,0.205,0.283
						c0.645,0.861,1.43,1.629,2.283,2.236c0.367,0.263,0.747,0.49,1.137,0.68c0.466,0.229,0.957,0.403,1.452,0.508
						c0.021,0.004,0.04,0.009,0.061,0.013c0.088,0.021,0.177,0.042,0.266,0.059c-0.636,0.264-1.327,0.429-2.054,0.458
						c-0.827,0.031-1.622-0.114-2.364-0.382c-0.806-0.289-1.542-0.741-2.139-1.338c-1.093-1.092-1.77-2.603-1.77-4.271
						C181.367,319.158,182.091,317.609,183.245,316.51z"/>
					<path fill="#959AA1" d="M183.248,316.507c0.002,0.011,0.006,0.035,0.012,0.067c-0.396,0.644-0.597,1.443-0.549,2.362
						c0.011,0.215,0.033,0.431,0.066,0.646c0.182,1.132,0.654,2.23,1.324,3.208c0.065,0.095,0.133,0.188,0.202,0.281
						c0.638,0.857,1.428,1.609,2.305,2.193c0.375,0.251,0.769,0.469,1.173,0.647c0.484,0.216,0.997,0.384,1.519,0.47
						c0.022,0.003,0.042,0.008,0.064,0.012c0.092,0.018,0.186,0.037,0.278,0.051c-0.64,0.259-1.332,0.417-2.062,0.438
						c-0.829,0.023-1.623-0.128-2.36-0.404c-0.785-0.292-1.5-0.744-2.083-1.329c-1.093-1.092-1.77-2.603-1.77-4.271
						C181.367,319.156,182.092,317.607,183.248,316.507z"/>
					<path fill="#9499A0" d="M183.251,316.505c0.001,0.012,0.005,0.038,0.01,0.071c-0.427,0.681-0.662,1.514-0.645,2.462
						c0.003,0.223,0.019,0.443,0.045,0.662c0.145,1.162,0.591,2.271,1.252,3.244c0.064,0.096,0.13,0.189,0.199,0.281
						c0.631,0.852,1.427,1.587,2.326,2.148c0.385,0.242,0.791,0.448,1.21,0.618c0.502,0.202,1.038,0.351,1.583,0.431
						c0.022,0.003,0.044,0.007,0.067,0.01c0.098,0.014,0.194,0.033,0.293,0.043c-0.644,0.252-1.337,0.404-2.068,0.418
						c-0.831,0.017-1.625-0.142-2.357-0.428c-0.764-0.297-1.458-0.745-2.03-1.317c-1.093-1.092-1.77-2.603-1.77-4.271
						C181.367,319.155,182.093,317.605,183.251,316.505z"/>
					<path fill="#93989F" d="M183.254,316.503c0,0.013,0.003,0.039,0.008,0.074c-0.459,0.719-0.728,1.587-0.74,2.563
						c-0.003,0.229,0.004,0.456,0.024,0.68c0.106,1.19,0.527,2.311,1.177,3.281c0.063,0.094,0.129,0.188,0.197,0.279
						c0.625,0.845,1.426,1.567,2.346,2.104c0.396,0.232,0.813,0.43,1.248,0.586c0.521,0.189,1.08,0.319,1.65,0.392
						c0.024,0.003,0.047,0.007,0.071,0.009c0.102,0.013,0.205,0.028,0.308,0.038c-0.646,0.246-1.344,0.391-2.075,0.398
						c-0.833,0.008-1.626-0.155-2.354-0.451c-0.744-0.302-1.416-0.747-1.975-1.307c-1.093-1.092-1.77-2.603-1.77-4.271
						C181.367,319.154,182.094,317.603,183.254,316.503z"/>
					<path id="XMLID_9_" fill="#92979E" d="M189.169,326.51c-0.025-0.002-0.049-0.005-0.074-0.007
						c-0.595-0.064-1.175-0.177-1.715-0.354c-1.496-0.489-2.769-1.414-3.65-2.617c-0.883-1.203-1.374-2.686-1.303-4.292
						c0.044-1.002,0.347-1.905,0.837-2.66c-0.004-0.037-0.007-0.065-0.007-0.078c-1.161,1.1-1.889,2.652-1.889,4.379
						c0,1.668,0.676,3.178,1.77,4.271c0.546,0.547,1.198,0.989,1.919,1.294c0.723,0.307,1.518,0.476,2.351,0.476
						c0.733,0,1.433-0.14,2.082-0.378C189.382,326.534,189.276,326.52,189.169,326.51z"/>
				</g>
				<g id="XMLID_8_">
					<circle id="XMLID_4_" fill="#878B92" cx="187.364" cy="320.834" r="2.488"/>
					<circle fill="#898D94" cx="187.363" cy="320.833" r="2.475"/>
					<circle fill="#8A8E96" cx="187.362" cy="320.833" r="2.462"/>
					<circle fill="#8C9097" cx="187.361" cy="320.833" r="2.448"/>
					<circle fill="#8D9299" cx="187.361" cy="320.832" r="2.435"/>
					<circle fill="#8F949B" cx="187.36" cy="320.831" r="2.422"/>
					<circle fill="#91959D" cx="187.359" cy="320.83" r="2.408"/>
					<circle fill="#92979E" cx="187.358" cy="320.829" r="2.395"/>
					<circle fill="#9499A0" cx="187.357" cy="320.828" r="2.382"/>
					<circle fill="#959BA2" cx="187.356" cy="320.827" r="2.367"/>
					<circle fill="#979CA4" cx="187.356" cy="320.826" r="2.354"/>
					<circle fill="#989EA6" cx="187.355" cy="320.826" r="2.342"/>
					<circle fill="#9AA0A7" cx="187.354" cy="320.824" r="2.327"/>
					<circle fill="#9CA2A9" cx="187.354" cy="320.824" r="2.314"/>
					<circle fill="#9DA3AB" cx="187.353" cy="320.823" r="2.302"/>
					<circle fill="#9FA5AD" cx="187.352" cy="320.821" r="2.287"/>
					<circle fill="#A0A7AE" cx="187.35" cy="320.821" r="2.274"/>
					<circle fill="#A2A8B0" cx="187.35" cy="320.82" r="2.261"/>
					<circle fill="#A4AAB2" cx="187.349" cy="320.819" r="2.247"/>
					<circle fill="#A5ACB4" cx="187.348" cy="320.818" r="2.233"/>
					<circle fill="#A7AEB6" cx="187.347" cy="320.817" r="2.22"/>
					<circle fill="#A8AFB7" cx="187.346" cy="320.816" r="2.207"/>
					<circle fill="#AAB1B9" cx="187.345" cy="320.816" r="2.193"/>
					<circle fill="#ABB3BB" cx="187.344" cy="320.815" r="2.18"/>
					<circle fill="#ADB5BD" cx="187.343" cy="320.813" r="2.167"/>
					<circle fill="#AFB6BF" cx="187.343" cy="320.814" r="2.153"/>
					<circle fill="#B0B8C0" cx="187.342" cy="320.813" r="2.14"/>
					<circle fill="#B2BAC2" cx="187.341" cy="320.811" r="2.126"/>
					<circle fill="#B3BBC4" cx="187.34" cy="320.811" r="2.114"/>
					<circle fill="#B5BDC6" cx="187.339" cy="320.81" r="2.099"/>
					<circle fill="#B7BFC7" cx="187.338" cy="320.809" r="2.086"/>
					<circle fill="#B8C1C9" cx="187.337" cy="320.808" r="2.073"/>
					<circle fill="#BAC2CB" cx="187.336" cy="320.807" r="2.059"/>
					<circle fill="#BBC4CD" cx="187.336" cy="320.807" r="2.046"/>
					<circle fill="#BDC6CF" cx="187.335" cy="320.806" r="2.033"/>
					<circle fill="#BEC8D0" cx="187.334" cy="320.804" r="2.02"/>
					<circle fill="#C0C9D2" cx="187.333" cy="320.804" r="2.006"/>
					<circle fill="#C2CBD4" cx="187.333" cy="320.803" r="1.992"/>
					<circle fill="#C3CDD6" cx="187.332" cy="320.801" r="1.979"/>
					<circle fill="#C5CFD7" cx="187.331" cy="320.801" r="1.965"/>
					<circle fill="#C6D0D9" cx="187.331" cy="320.8" r="1.952"/>
					<circle id="XMLID_3_" fill="#C8D2DB" cx="187.329" cy="320.799" r="1.939"/>
				</g>
			</g>
			<g id="XMLID_6_" opacity="0.1">
				<path fill="#FFFFFF" d="M171.764,243.122c-4.969,5.313-8.009,12.451-7.988,20.298l0.529,205.993
					c0.042,16.356,13.336,29.584,29.693,29.542l19.804-0.051l477.627-2.534L171.764,243.122z"/>
			</g>
		</g>
		<g>
			<g>
				<g>
					<path fill="#FFFFFF" d="M256.109,424.158c-22.688-3.354-31.454,29.211-35.407,47.515c-1.508,7.025-5.237,30.387-5.667,37.87
						c-2.219,38.497-24.494,63.468-35.137,68.287c-14.65,6.637-12.647-26.026-12.917-27.383
						c-1.438-7.459-3.835-150.729-3.835-150.729v-47.443c-7.904-2.723-15.225,1.504-19.59,2.766
						c-22.599,6.553-22.931,45.503-34.24,65.659c-8.173,14.552-48.152,56.34-53.496,80.004
						c-4.591,20.318,0.924,126.921-2.542,149.111c-4.042,25.968-50.121,87.303-50.121,87.303l85.259,68.367
						c0,0,42.153-70.68,74.174-85.137c13.079-5.903,36.45-30.714,48.656-49.917c22.338-35.152,62.579-92.188,63.88-136.609
						c0.288-9.75-4.778-40.63-3.153-53.65C272.979,474.809,271.164,426.387,256.109,424.158z"/>
					<path fill="#999999" d="M88.415,808c-0.568,0-1.124-0.192-1.574-0.555L1.583,739.08c-1.059-0.85-1.252-2.387-0.437-3.472
						C1.603,735,46.893,674.481,50.791,649.43c1.59-10.174,1.252-38.581,0.894-68.658c-0.407-34.177-0.828-69.519,1.681-80.621
						c3.685-16.315,22.494-39.978,37.608-58.99c7.252-9.124,13.516-17.003,16.149-21.691c3.716-6.623,6.206-15.375,8.842-24.64
						c5.246-18.436,10.67-37.5,26.889-42.204c0.805-0.233,1.756-0.59,2.86-1.005c3.264-1.229,7.326-2.756,11.977-2.756
						c2.17,0,4.281,0.348,6.272,1.033c1.014,0.35,1.695,1.305,1.695,2.378v47.443c0.666,39.746,2.645,144.309,3.791,150.253
						c0.078,0.391,0.078,0.807,0.077,2.185c-0.001,3.078-0.004,9.483,1.103,15.111c0.803,4.077,2.43,8.937,5.63,8.936
						c0.752,0,1.626-0.225,2.6-0.664c10.355-4.689,31.563-29.661,33.665-66.141c0.446-7.743,4.248-31.405,5.72-38.254
						c2.657-12.304,10.74-49.742,34.673-49.742c1.163,0,2.361,0.09,3.561,0.268c3.099,0.459,5.863,2.366,8.217,5.67
						c9.643,13.53,10.526,48.582,9.766,53.199c-0.93,7.586,0.545,22.157,1.731,33.871c0.84,8.29,1.566,15.45,1.447,19.485
						c-1.182,40.306-33.13,89.685-56.459,125.74c-2.767,4.274-5.395,8.338-7.813,12.143c-11.952,18.803-35.765,44.55-49.744,50.86
						c-30.943,13.971-72.631,83.433-73.049,84.133c-0.373,0.624-0.998,1.058-1.713,1.188C88.713,807.986,88.563,808,88.415,808z
						 M6.62,736.672l81.132,65.059c7.911-12.877,44.479-70.435,73.802-83.674c11.851-5.352,34.968-29.152,47.569-48.976
						c2.425-3.815,5.061-7.891,7.835-12.178c23.006-35.557,54.514-84.254,55.654-123.156c0.109-3.707-0.634-11.052-1.422-18.829
						c-1.278-12.62-2.728-26.923-1.711-35.058c0.006-0.051,0.014-0.102,0.023-0.151c0.684-3.645-0.337-37.432-8.901-49.448
						c-1.531-2.147-3.165-3.363-4.858-3.614c-0.958-0.142-1.907-0.213-2.825-0.213c-13.373,0-23.107,14.972-29.756,45.771
						c-1.445,6.729-5.18,29.93-5.615,37.484c-2.252,39.078-24.956,65.154-36.611,70.433c-1.629,0.737-3.203,1.112-4.674,1.112
						c-5.313,0-8.868-4.372-10.564-12.995c-1.203-6.108-1.2-12.846-1.198-16.084c0-0.646,0.004-1.115-0.008-1.36
						c-1.466-9.033-3.761-145.208-3.857-151.032v-45.576c-0.948-0.195-1.921-0.293-2.939-0.293c-3.736,0-7.324,1.35-10.207,2.435
						c-1.151,0.433-2.24,0.842-3.231,1.129c-13.543,3.926-18.581,21.629-23.452,38.75c-2.719,9.558-5.288,18.585-9.293,25.725
						c-2.831,5.041-9.21,13.066-16.598,22.358c-14.015,17.63-33.208,41.774-36.639,56.969c-2.378,10.526-1.962,45.566-1.559,79.454
						c0.361,30.292,0.702,58.904-0.954,69.491C52.033,674.157,14.656,725.792,6.62,736.672z"/>
				</g>
			</g>
		</g>
		<g>
			<g>
				<g>
					<path fill="#FFFFFF" d="M621.89,424.158c22.688-3.354,31.455,29.211,35.408,47.515c1.508,7.025,5.236,30.387,5.667,37.87
						c2.219,38.497,24.494,63.468,35.138,68.287c14.649,6.637,12.646-26.026,12.916-27.383c1.437-7.459,3.835-150.729,3.835-150.729
						v-47.443c7.905-2.723,15.225,1.504,19.591,2.766c22.599,6.553,22.932,45.503,34.24,65.659
						c8.174,14.552,48.152,56.34,53.498,80.004c4.59,20.318-0.927,126.921,2.541,149.111c4.042,25.968,50.12,87.303,50.12,87.303
						l-85.259,68.367c0,0-42.152-70.68-74.174-85.137c-13.078-5.903-36.449-30.714-48.656-49.917
						c-22.339-35.152-62.578-92.188-63.88-136.609c-0.288-9.75,4.778-40.63,3.153-53.65
						C605.021,474.809,606.835,426.387,621.89,424.158z"/>
					<path fill="#999999" d="M789.585,808c-0.147,0-0.298-0.015-0.446-0.04c-0.715-0.13-1.34-0.563-1.713-1.188
						c-0.418-0.7-42.116-70.167-73.049-84.133c-13.978-6.311-37.791-32.057-49.744-50.86c-2.418-3.804-5.046-7.866-7.811-12.14
						c-23.328-36.056-55.279-85.436-56.459-125.744c-0.12-4.035,0.605-11.196,1.445-19.488c1.188-11.712,2.663-26.281,1.732-33.866
						c-0.762-4.613,0.119-39.667,9.765-53.2c2.353-3.303,5.118-5.211,8.217-5.67c1.2-0.178,2.398-0.268,3.563-0.268
						c23.931,0,32.015,37.438,34.673,49.739c1.471,6.854,5.273,30.518,5.719,38.256c2.104,36.48,23.311,61.451,33.665,66.141
						c0.976,0.441,1.851,0.665,2.601,0.665c3.2,0,4.829-4.859,5.63-8.937c1.108-5.628,1.105-12.033,1.104-15.111
						c0-1.377-0.001-1.793,0.08-2.199c1.143-5.929,3.122-110.492,3.787-150.279l-0.002-47.401c0-1.073,0.683-2.028,1.696-2.377
						c1.991-0.686,4.103-1.034,6.272-1.034c4.649,0,8.713,1.528,11.977,2.756c1.104,0.415,2.056,0.772,2.857,1.004
						c16.222,4.705,21.646,23.769,26.892,42.205c2.637,9.265,5.126,18.016,8.843,24.641c2.633,4.686,8.896,12.567,16.149,21.691
						c15.114,19.012,33.923,42.673,37.607,58.989c2.509,11.103,2.088,46.447,1.682,80.627c-0.358,30.073-0.697,58.479,0.892,68.651
						c3.901,25.057,49.189,85.57,49.646,86.179c0.816,1.085,0.622,2.622-0.438,3.472l-85.258,68.366
						C790.709,807.807,790.152,808,789.585,808z M625.083,426.433c-0.918,0-1.869,0.072-2.825,0.213
						c-1.694,0.25-3.328,1.466-4.859,3.614c-8.564,12.017-9.583,45.805-8.899,49.448c0.011,0.05,0.019,0.101,0.024,0.151
						c1.015,8.134-0.434,22.436-1.713,35.054c-0.787,7.779-1.532,15.126-1.423,18.833c1.141,38.904,32.649,87.602,55.655,123.16
						c2.773,4.286,5.409,8.36,7.834,12.175c12.6,19.824,35.718,43.624,47.569,48.976c29.324,13.239,65.891,70.797,73.801,83.674
						l81.132-65.059c-8.035-10.881-45.411-62.515-49.141-86.47c-1.653-10.584-1.313-39.193-0.952-69.483
						c0.403-33.891,0.821-68.934-1.557-79.46c-3.434-15.194-22.625-39.338-36.64-56.967c-7.388-9.293-13.766-17.32-16.597-22.359
						c-4.008-7.142-6.575-16.168-9.294-25.725c-4.871-17.12-9.908-34.823-23.454-38.75c-0.989-0.286-2.078-0.695-3.229-1.128
						c-2.883-1.085-6.473-2.435-10.207-2.435c-1.02,0-1.992,0.098-2.938,0.293v45.534c-0.099,5.871-2.396,142.226-3.858,151.08
						c-0.014,0.245-0.01,0.714-0.01,1.354c0.002,3.237,0.006,9.976-1.195,16.083c-1.697,8.622-5.252,12.996-10.565,12.996
						c-1.472,0-3.044-0.375-4.675-1.114c-11.654-5.275-34.357-31.354-36.609-70.431c-0.436-7.55-4.17-30.752-5.615-37.487
						C648.189,441.405,638.456,426.433,625.083,426.433z"/>
				</g>
			</g>
		</g>
	</g>
	<g>
		<g id="XMLID_11865_">
			<g id="XMLID_11867_">
				<g id="XMLID_12443_">
					<path fill="#FFFFFF" d="M347.783,729.168H525.98c24.033,0,43.516-19.482,43.516-43.516V222.458
						c0-24.033-19.482-43.516-43.516-43.516H347.783c-24.033,0-43.516,19.482-43.516,43.516v463.194
						C304.269,709.686,323.75,729.168,347.783,729.168z"/>
				</g>
				<g id="XMLID_12442_">
					<rect x="304.269" y="228.365" fill="#161922" width="265.229" height="451.382"/>
				</g>
				<g id="XMLID_12441_">
					<path fill="#161922" d="M463.146,205.302H404.03c-1.593,0-2.883-1.292-2.883-2.883l0,0c0-1.593,1.292-2.884,2.883-2.884h59.116
						c1.593,0,2.883,1.292,2.883,2.884l0,0C466.028,204.01,464.738,205.302,463.146,205.302z"/>
				</g>
				<g id="XMLID_12440_" opacity="0.73">
					<path fill="#161922" d="M462.749,706.596h-51.733c-1.636,0-2.963-1.325-2.963-2.961l0,0c0-1.637,1.327-2.963,2.963-2.963
						h51.733c1.637,0,2.962,1.326,2.962,2.963l0,0C465.711,705.271,464.386,706.596,462.749,706.596z"/>
				</g>
				<g id="XMLID_12392_">
					<path id="XMLID_26_" fill="#BCBDC2" d="M487.591,201.634c0,1.667-0.678,3.178-1.77,4.271c-1.094,1.093-2.603,1.77-4.271,1.77
						c-3.336,0-6.039-2.704-6.039-6.04c0-3.335,2.703-6.04,6.039-6.04c1.669,0,3.179,0.675,4.271,1.769
						C486.914,198.456,487.591,199.966,487.591,201.634z"/>
					<path fill="#BBBCC1" d="M481.55,195.594c1.671,0,3.182,0.676,4.274,1.771c0.018,0.019,0.033,0.036,0.049,0.054
						c0.611,0.634,1.072,1.416,1.332,2.292c0.168,0.567,0.253,1.176,0.238,1.811c-0.02,0.932-0.253,1.816-0.648,2.606
						c-0.301,0.602-0.696,1.149-1.166,1.624c-0.598,0.6-1.313,1.08-2.104,1.397c-0.536,0.215-1.104,0.354-1.699,0.41
						c-0.024,0.002-0.051,0.004-0.075,0.006c-0.108,0.008-0.221,0.014-0.333,0.017c-1.53-0.016-2.925-0.612-3.972-1.58
						c-1.189-1.099-1.932-2.676-1.925-4.425c0.008-1.089,0.303-2.11,0.815-2.989C477.382,196.798,479.326,195.594,481.55,195.594z"
						/>
					<path fill="#BABBC0" d="M481.55,195.594c1.672,0,3.184,0.678,4.276,1.773c0.018,0.018,0.031,0.035,0.047,0.053
						c0.578,0.606,1.008,1.363,1.236,2.218c0.148,0.554,0.216,1.15,0.188,1.772c-0.041,0.913-0.287,1.786-0.691,2.571
						c-0.305,0.598-0.703,1.143-1.172,1.617c-0.594,0.601-1.303,1.088-2.082,1.418c-0.527,0.223-1.087,0.374-1.668,0.441
						c-0.024,0.003-0.048,0.005-0.072,0.008c-0.108,0.011-0.217,0.019-0.325,0.022c-1.501-0.029-2.865-0.629-3.887-1.59
						c-1.162-1.092-1.886-2.649-1.867-4.375c0.012-1.082,0.313-2.093,0.827-2.964C477.406,196.785,479.34,195.594,481.55,195.594z"
						/>
					<path fill="#B9BABF" d="M481.55,195.594c1.673,0,3.186,0.679,4.279,1.777c0.017,0.017,0.029,0.033,0.043,0.051
						c0.546,0.581,0.941,1.31,1.143,2.144c0.129,0.54,0.18,1.123,0.137,1.734c-0.061,0.896-0.321,1.757-0.732,2.536
						c-0.311,0.591-0.711,1.134-1.179,1.609c-0.592,0.604-1.293,1.098-2.061,1.44c-0.52,0.23-1.066,0.393-1.636,0.473
						c-0.023,0.003-0.048,0.006-0.071,0.01c-0.105,0.013-0.211,0.022-0.318,0.03c-1.47-0.045-2.803-0.645-3.801-1.602
						c-1.134-1.086-1.837-2.625-1.811-4.327c0.019-1.073,0.323-2.075,0.839-2.939C477.43,196.772,479.353,195.594,481.55,195.594z"
						/>
					<path fill="#B8B9BF" d="M481.55,195.594c1.674,0,3.188,0.68,4.281,1.78c0.016,0.016,0.028,0.032,0.041,0.049
						c0.515,0.554,0.876,1.257,1.046,2.069c0.109,0.525,0.144,1.096,0.087,1.695c-0.081,0.879-0.355,1.729-0.774,2.5
						c-0.316,0.585-0.718,1.127-1.184,1.606c-0.592,0.603-1.283,1.104-2.04,1.46c-0.511,0.237-1.049,0.401-1.604,0.502
						c-0.022,0.004-0.046,0.008-0.069,0.012c-0.103,0.015-0.206,0.027-0.311,0.038c-1.44-0.061-2.743-0.664-3.716-1.615
						c-1.105-1.08-1.789-2.6-1.753-4.275c0.022-1.064,0.335-2.06,0.851-2.915C477.453,196.76,479.365,195.594,481.55,195.594z"/>
					<path fill="#B7B9BE" d="M481.55,195.594c1.675,0,3.188,0.681,4.284,1.783c0.015,0.016,0.026,0.031,0.037,0.048
						c0.48,0.526,0.813,1.206,0.951,1.996c0.09,0.512,0.105,1.068,0.035,1.655c-0.102,0.863-0.391,1.698-0.816,2.466
						c-0.322,0.581-0.725,1.122-1.188,1.599c-0.589,0.606-1.273,1.115-2.02,1.482c-0.5,0.247-1.027,0.424-1.569,0.533
						c-0.023,0.006-0.046,0.01-0.068,0.014c-0.1,0.018-0.202,0.033-0.304,0.045c-1.409-0.076-2.684-0.682-3.63-1.626
						c-1.077-1.074-1.741-2.576-1.696-4.228c0.028-1.054,0.346-2.041,0.862-2.888C477.477,196.748,479.379,195.594,481.55,195.594z"
						/>
					<path fill="#B6B8BD" d="M481.55,195.594c1.677,0,3.191,0.683,4.288,1.786c0.013,0.016,0.023,0.032,0.033,0.047
						c0.448,0.5,0.747,1.154,0.856,1.92c0.069,0.497,0.068,1.042-0.016,1.617c-0.122,0.845-0.426,1.669-0.858,2.43
						c-0.328,0.576-0.732,1.114-1.195,1.592c-0.587,0.608-1.265,1.125-1.997,1.503c-0.491,0.255-1.009,0.442-1.538,0.565
						c-0.021,0.005-0.044,0.01-0.065,0.015c-0.1,0.021-0.198,0.038-0.297,0.053c-1.38-0.091-2.622-0.699-3.545-1.639
						c-1.05-1.066-1.693-2.551-1.64-4.177c0.035-1.047,0.355-2.024,0.873-2.863C477.501,196.734,479.393,195.594,481.55,195.594z"/>
					<path fill="#B5B7BC" d="M481.55,195.594c1.679,0,3.194,0.684,4.29,1.789c0.013,0.015,0.021,0.031,0.03,0.046
						c0.416,0.473,0.685,1.101,0.763,1.845c0.051,0.483,0.03,1.014-0.066,1.579c-0.142,0.829-0.457,1.642-0.899,2.396
						c-0.333,0.57-0.739,1.105-1.2,1.586c-0.586,0.608-1.257,1.132-1.978,1.523c-0.481,0.263-0.99,0.459-1.506,0.596
						c-0.021,0.006-0.043,0.011-0.064,0.017c-0.097,0.022-0.192,0.042-0.29,0.06c-1.348-0.104-2.562-0.716-3.459-1.649
						c-1.021-1.063-1.645-2.527-1.582-4.128c0.041-1.038,0.366-2.005,0.886-2.837C477.524,196.722,479.405,195.594,481.55,195.594z"
						/>
					<path fill="#B4B6BB" d="M481.55,195.594c1.68,0,3.196,0.685,4.292,1.791c0.013,0.015,0.021,0.03,0.027,0.046
						c0.385,0.446,0.618,1.047,0.666,1.77c0.031,0.47-0.004,0.987-0.116,1.541c-0.162,0.811-0.491,1.612-0.94,2.358
						c-0.338,0.566-0.747,1.099-1.207,1.581c-0.582,0.612-1.247,1.141-1.955,1.545c-0.474,0.271-0.97,0.481-1.474,0.626
						c-0.021,0.006-0.043,0.012-0.063,0.019c-0.093,0.023-0.188,0.047-0.282,0.066c-1.316-0.121-2.501-0.733-3.374-1.663
						c-0.992-1.055-1.597-2.5-1.523-4.079c0.047-1.029,0.377-1.988,0.896-2.812C477.548,196.71,479.418,195.594,481.55,195.594z"/>
					<path fill="#B3B5BA" d="M481.55,195.594c1.682,0,3.199,0.686,4.295,1.793c0.012,0.015,0.02,0.03,0.025,0.045
						c0.352,0.419,0.554,0.995,0.571,1.697c0.012,0.454-0.042,0.958-0.168,1.5c-0.184,0.793-0.526,1.583-0.983,2.323
						c-0.344,0.561-0.755,1.091-1.213,1.574c-0.581,0.613-1.236,1.15-1.934,1.566c-0.466,0.278-0.952,0.493-1.441,0.659
						c-0.021,0.007-0.042,0.012-0.063,0.018c-0.091,0.027-0.185,0.052-0.275,0.075c-1.286-0.135-2.439-0.751-3.288-1.675
						c-0.963-1.049-1.548-2.478-1.467-4.029c0.053-1.021,0.387-1.971,0.907-2.787C477.572,196.696,479.432,195.594,481.55,195.594z"
						/>
					<path fill="#B2B4BA" d="M481.55,195.594c1.683,0,3.201,0.687,4.298,1.797c0.011,0.014,0.017,0.029,0.021,0.043
						c0.317,0.393,0.488,0.943,0.478,1.623c-0.008,0.44-0.078,0.932-0.22,1.461c-0.203,0.777-0.561,1.554-1.024,2.288
						c-0.351,0.556-0.762,1.085-1.219,1.569c-0.578,0.614-1.229,1.159-1.912,1.587c-0.457,0.286-0.933,0.515-1.41,0.689
						c-0.021,0.007-0.04,0.015-0.061,0.021c-0.089,0.029-0.179,0.057-0.269,0.082c-1.256-0.151-2.379-0.77-3.202-1.687
						c-0.936-1.042-1.5-2.452-1.41-3.979c0.06-1.014,0.397-1.954,0.918-2.762C477.596,196.684,479.444,195.594,481.55,195.594z"/>
					<path fill="#B1B3B9" d="M481.55,195.594c1.684,0,3.204,0.688,4.301,1.8c0.01,0.013,0.015,0.027,0.019,0.042
						c0.285,0.366,0.424,0.89,0.382,1.547c-0.026,0.426-0.114,0.906-0.27,1.423c-0.225,0.761-0.597,1.524-1.067,2.252
						c-0.354,0.55-0.769,1.078-1.223,1.563c-0.578,0.616-1.22,1.168-1.892,1.609c-0.449,0.294-0.911,0.535-1.378,0.721
						c-0.021,0.008-0.04,0.015-0.06,0.021c-0.087,0.032-0.175,0.063-0.261,0.09c-1.227-0.166-2.319-0.787-3.118-1.699
						c-0.906-1.036-1.45-2.427-1.353-3.932c0.064-1.003,0.408-1.935,0.931-2.734C477.619,196.672,479.458,195.594,481.55,195.594z"
						/>
					<path fill="#B0B2B8" d="M481.55,195.594c1.685,0,3.207,0.689,4.303,1.802c0.009,0.013,0.014,0.027,0.016,0.041
						c0.254,0.339,0.359,0.838,0.287,1.473c-0.047,0.412-0.152,0.879-0.32,1.384c-0.244,0.744-0.629,1.498-1.107,2.218
						c-0.36,0.544-0.776,1.07-1.229,1.556c-0.577,0.618-1.211,1.178-1.871,1.629c-0.439,0.303-0.896,0.543-1.347,0.752
						c-0.018,0.009-0.037,0.018-0.056,0.024c-0.085,0.034-0.17,0.066-0.255,0.096c-1.193-0.181-2.259-0.805-3.03-1.71
						c-0.879-1.028-1.402-2.401-1.296-3.881c0.07-0.995,0.419-1.917,0.939-2.71C477.643,196.659,479.472,195.594,481.55,195.594z"/>
					<path fill="#AFB2B7" d="M481.55,195.594c1.687,0,3.209,0.691,4.305,1.805c0.009,0.014,0.013,0.027,0.014,0.04
						c0.222,0.313,0.294,0.786,0.191,1.399c-0.066,0.397-0.188,0.851-0.371,1.345c-0.266,0.726-0.665,1.465-1.15,2.181
						c-0.365,0.54-0.781,1.063-1.234,1.551c-0.574,0.62-1.2,1.186-1.849,1.649c-0.431,0.311-0.872,0.574-1.313,0.783
						c-0.02,0.009-0.037,0.017-0.057,0.025c-0.082,0.037-0.163,0.07-0.245,0.104c-1.164-0.196-2.198-0.822-2.946-1.722
						c-0.851-1.024-1.354-2.378-1.239-3.832c0.078-0.987,0.431-1.901,0.953-2.686C477.666,196.647,479.484,195.594,481.55,195.594z"
						/>
					<path fill="#AEB1B6" d="M481.55,195.594c1.688,0,3.211,0.692,4.308,1.808c0.007,0.014,0.011,0.026,0.011,0.039
						c0.188,0.286,0.229,0.733,0.097,1.325c-0.087,0.383-0.227,0.824-0.423,1.306c-0.284,0.709-0.696,1.439-1.19,2.147
						c-0.371,0.535-0.79,1.055-1.241,1.544c-0.572,0.621-1.191,1.195-1.827,1.671c-0.422,0.318-0.853,0.591-1.282,0.814
						c-0.018,0.009-0.036,0.018-0.054,0.026c-0.079,0.039-0.16,0.076-0.239,0.111c-1.133-0.212-2.138-0.84-2.859-1.735
						c-0.822-1.017-1.306-2.353-1.183-3.783c0.083-0.977,0.44-1.882,0.964-2.658C477.689,196.635,479.498,195.594,481.55,195.594z"
						/>
					<path fill="#ADB0B5" d="M481.55,195.594c1.688,0,3.214,0.694,4.311,1.811c0.006,0.013,0.008,0.025,0.007,0.038
						c0.155,0.259,0.163,0.681,0.001,1.25c-0.104,0.37-0.263,0.797-0.473,1.269c-0.308,0.69-0.732,1.409-1.233,2.111
						c-0.376,0.529-0.797,1.049-1.246,1.539c-0.57,0.623-1.183,1.203-1.807,1.693c-0.413,0.325-0.838,0.601-1.25,0.844
						c-0.017,0.01-0.034,0.021-0.052,0.029c-0.077,0.041-0.156,0.08-0.232,0.118c-1.102-0.228-2.076-0.857-2.773-1.747
						c-0.795-1.01-1.257-2.328-1.126-3.734c0.09-0.968,0.451-1.866,0.978-2.633C477.713,196.622,479.511,195.594,481.55,195.594z"/>
					<path fill="#ACAFB5" d="M481.55,195.594c1.689,0,3.216,0.695,4.312,1.813c0.006,0.012,0.007,0.024,0.004,0.037
						c0.123,0.232,0.1,0.628-0.094,1.174c-0.125,0.355-0.3,0.77-0.523,1.229c-0.326,0.673-0.768,1.378-1.274,2.075
						c-0.381,0.523-0.805,1.042-1.252,1.533c-0.569,0.625-1.173,1.211-1.783,1.713c-0.406,0.333-0.817,0.624-1.22,0.875
						c-0.018,0.011-0.033,0.021-0.051,0.03c-0.073,0.044-0.15,0.086-0.226,0.125c-1.071-0.241-2.016-0.875-2.688-1.758
						c-0.766-1.004-1.207-2.303-1.066-3.684c0.096-0.96,0.461-1.848,0.985-2.607C477.736,196.609,479.524,195.594,481.55,195.594z"
						/>
					<path fill="#ABAEB4" d="M481.55,195.594c1.69,0,3.219,0.697,4.314,1.815c0.005,0.012,0.005,0.023,0.001,0.035
						c0.09,0.205,0.033,0.576-0.188,1.102c-0.146,0.34-0.336,0.742-0.574,1.19c-0.349,0.656-0.801,1.351-1.315,2.04
						c-0.388,0.52-0.813,1.034-1.26,1.526c-0.567,0.627-1.164,1.22-1.762,1.735c-0.397,0.341-0.799,0.641-1.188,0.906
						c-0.017,0.013-0.033,0.022-0.05,0.032c-0.071,0.046-0.146,0.09-0.218,0.133c-1.04-0.257-1.955-0.892-2.604-1.77
						c-0.735-0.998-1.155-2.279-1.01-3.633c0.104-0.952,0.472-1.831,0.998-2.582C477.76,196.596,479.538,195.594,481.55,195.594z"/>
					<path fill="#AAADB3" d="M481.55,195.594c1.692,0,3.221,0.698,4.316,1.819c0.005,0.01,0.003,0.021-0.002,0.033
						c0.059,0.18-0.031,0.522-0.284,1.026c-0.164,0.327-0.372,0.714-0.625,1.152c-0.367,0.639-0.835,1.32-1.356,2.004
						c-0.394,0.514-0.819,1.026-1.266,1.52c-0.564,0.628-1.154,1.229-1.74,1.755c-0.39,0.35-0.778,0.662-1.154,0.938
						c-0.017,0.012-0.032,0.021-0.047,0.033c-0.07,0.049-0.144,0.095-0.212,0.141c-1.01-0.271-1.895-0.91-2.519-1.784
						c-0.708-0.992-1.105-2.254-0.952-3.584c0.108-0.943,0.482-1.812,1.01-2.557C477.783,196.584,479.551,195.594,481.55,195.594z"
						/>
					<path fill="#A9ACB2" d="M481.55,195.594c1.693,0,3.223,0.699,4.319,1.821c0.004,0.011,0.001,0.021-0.005,0.033
						c0.024,0.152-0.098,0.471-0.38,0.952c-0.184,0.313-0.409,0.688-0.676,1.113c-0.39,0.622-0.869,1.292-1.399,1.969
						c-0.398,0.509-0.826,1.021-1.27,1.515c-0.564,0.631-1.146,1.238-1.721,1.777c-0.38,0.356-0.753,0.688-1.122,0.97
						c-0.017,0.012-0.031,0.021-0.047,0.034c-0.066,0.052-0.137,0.1-0.203,0.147c-0.979-0.288-1.834-0.927-2.433-1.794
						c-0.681-0.986-1.058-2.229-0.896-3.537c0.115-0.935,0.493-1.794,1.021-2.531C477.808,196.571,479.564,195.594,481.55,195.594z"
						/>
					<path fill="#A8ABB1" d="M481.55,195.594c1.695,0,3.226,0.7,4.322,1.824c0.003,0.01-0.001,0.021-0.009,0.032
						c-0.008,0.124-0.162,0.417-0.475,0.876c-0.203,0.299-0.446,0.661-0.728,1.075c-0.409,0.605-0.899,1.265-1.439,1.935
						c-0.403,0.504-0.834,1.013-1.276,1.508c-0.562,0.632-1.136,1.247-1.698,1.797c-0.371,0.364-0.737,0.699-1.091,1
						c-0.015,0.013-0.029,0.024-0.044,0.037c-0.065,0.053-0.133,0.104-0.196,0.155c-0.946-0.303-1.772-0.946-2.347-1.807
						c-0.652-0.979-1.009-2.206-0.84-3.486c0.123-0.927,0.505-1.777,1.033-2.507C477.831,196.558,479.577,195.594,481.55,195.594z"
						/>
					<path fill="#A7AAB0" d="M481.55,195.594c1.696,0,3.228,0.702,4.325,1.827c0.002,0.01-0.004,0.021-0.012,0.03
						c-0.041,0.1-0.228,0.365-0.57,0.804c-0.223,0.285-0.482,0.632-0.776,1.036c-0.429,0.588-0.938,1.233-1.482,1.898
						c-0.409,0.499-0.841,1.005-1.281,1.502c-0.561,0.633-1.128,1.255-1.678,1.819c-0.362,0.372-0.722,0.715-1.059,1.032
						c-0.015,0.013-0.028,0.025-0.042,0.039c-0.063,0.056-0.128,0.108-0.19,0.161c-0.916-0.316-1.712-0.962-2.261-1.817
						c-0.623-0.974-0.958-2.181-0.782-3.438c0.129-0.917,0.516-1.759,1.045-2.479C477.854,196.547,479.591,195.594,481.55,195.594z"
						/>
					<path fill="#A7AAB0" d="M481.55,195.594c1.697,0,3.229,0.703,4.327,1.83c0.003,0.009-0.005,0.02-0.015,0.03
						c-0.073,0.07-0.293,0.312-0.665,0.728c-0.243,0.271-0.519,0.607-0.827,0.998c-0.448,0.572-0.97,1.207-1.523,1.864
						c-0.414,0.494-0.85,0.998-1.288,1.496c-0.559,0.634-1.117,1.263-1.655,1.84c-0.354,0.38-0.699,0.736-1.027,1.062
						c-0.014,0.015-0.026,0.026-0.041,0.04c-0.061,0.059-0.123,0.114-0.182,0.169c-0.886-0.333-1.651-0.979-2.175-1.83
						c-0.597-0.967-0.91-2.156-0.728-3.388c0.138-0.91,0.526-1.743,1.058-2.455C477.878,196.533,479.604,195.594,481.55,195.594z"/>
					<path fill="#A6A9AF" d="M481.55,195.594c1.699,0,3.231,0.704,4.329,1.833c0.003,0.009-0.006,0.019-0.017,0.029
						c-0.104,0.044-0.356,0.261-0.76,0.652c-0.263,0.256-0.558,0.579-0.88,0.958c-0.471,0.553-1.005,1.175-1.565,1.828
						c-0.42,0.488-0.855,0.991-1.293,1.49c-0.556,0.636-1.109,1.271-1.635,1.861c-0.346,0.387-0.684,0.753-0.995,1.094
						c-0.013,0.014-0.026,0.026-0.039,0.042c-0.058,0.059-0.118,0.118-0.175,0.175c-0.855-0.347-1.591-0.998-2.09-1.842
						c-0.566-0.96-0.859-2.131-0.668-3.339c0.144-0.901,0.535-1.725,1.066-2.43C477.901,196.521,479.617,195.594,481.55,195.594z"/>
					<path fill="#A5A8AE" d="M481.55,195.594c1.7,0,3.233,0.705,4.333,1.835c0,0.008-0.009,0.018-0.021,0.028
						c-0.139,0.018-0.422,0.208-0.854,0.578c-0.282,0.242-0.594,0.554-0.931,0.92c-0.487,0.536-1.039,1.146-1.607,1.792
						c-0.427,0.482-0.862,0.983-1.299,1.483c-0.556,0.639-1.102,1.28-1.613,1.882c-0.336,0.396-0.665,0.77-0.963,1.125
						c-0.013,0.015-0.024,0.029-0.037,0.043c-0.057,0.063-0.113,0.123-0.167,0.184c-0.825-0.362-1.531-1.015-2.005-1.854
						c-0.538-0.955-0.811-2.106-0.611-3.29c0.15-0.892,0.547-1.708,1.079-2.403C477.926,196.509,479.63,195.594,481.55,195.594z"/>
					<path fill="#A4A7AD" d="M481.55,195.594c1.701,0,3.236,0.706,4.336,1.838c-0.001,0.008-0.011,0.017-0.023,0.027
						c-0.171-0.01-0.488,0.153-0.951,0.504c-0.302,0.228-0.629,0.525-0.979,0.88c-0.51,0.521-1.072,1.12-1.649,1.757
						c-0.43,0.479-0.87,0.977-1.304,1.478c-0.554,0.639-1.093,1.289-1.593,1.903c-0.328,0.403-0.646,0.788-0.933,1.156
						c-0.011,0.016-0.022,0.03-0.034,0.045c-0.055,0.065-0.108,0.128-0.16,0.191c-0.794-0.378-1.471-1.033-1.919-1.868
						c-0.511-0.948-0.759-2.082-0.555-3.24c0.156-0.883,0.558-1.689,1.09-2.378C477.949,196.495,479.644,195.594,481.55,195.594z"/>
					<path fill="#A3A6AC" d="M481.55,195.594c1.703,0,3.239,0.708,4.338,1.841c-0.001,0.008-0.013,0.017-0.026,0.026
						c-0.203-0.036-0.553,0.102-1.045,0.429c-0.321,0.214-0.666,0.499-1.03,0.841c-0.529,0.503-1.106,1.09-1.691,1.722
						c-0.438,0.472-0.878,0.968-1.311,1.471c-0.552,0.642-1.083,1.296-1.571,1.924c-0.318,0.41-0.63,0.804-0.896,1.187
						c-0.011,0.016-0.023,0.03-0.035,0.047c-0.051,0.066-0.104,0.132-0.153,0.198c-0.764-0.394-1.408-1.051-1.833-1.879
						c-0.48-0.94-0.708-2.057-0.497-3.189c0.164-0.875,0.568-1.672,1.103-2.354C477.973,196.483,479.657,195.594,481.55,195.594z"/>
					<path fill="#A2A5AB" d="M481.55,195.594c1.704,0,3.241,0.708,4.341,1.844c-0.003,0.007-0.015,0.017-0.029,0.024
						c-0.236-0.063-0.618,0.05-1.141,0.354c-0.342,0.199-0.703,0.472-1.081,0.802c-0.551,0.486-1.143,1.063-1.733,1.687
						c-0.44,0.468-0.884,0.962-1.314,1.465c-0.551,0.645-1.074,1.307-1.551,1.946c-0.311,0.417-0.604,0.826-0.865,1.217
						c-0.012,0.018-0.022,0.032-0.032,0.048c-0.049,0.07-0.102,0.139-0.147,0.206c-0.731-0.408-1.349-1.067-1.748-1.89
						c-0.453-0.936-0.656-2.032-0.438-3.143c0.171-0.866,0.579-1.653,1.113-2.326C477.996,196.47,479.67,195.594,481.55,195.594z"/>
					<path fill="#A1A4AB" d="M481.55,195.594c1.705,0,3.243,0.709,4.343,1.847c-0.003,0.007-0.016,0.016-0.032,0.023
						c-0.269-0.089-0.684-0.004-1.235,0.279c-0.36,0.186-0.739,0.444-1.132,0.766c-0.57,0.469-1.175,1.033-1.774,1.649
						c-0.446,0.464-0.892,0.955-1.321,1.459c-0.548,0.646-1.064,1.315-1.528,1.967c-0.303,0.426-0.581,0.847-0.834,1.25
						c-0.011,0.017-0.021,0.032-0.031,0.05c-0.046,0.072-0.095,0.142-0.14,0.213c-0.701-0.423-1.288-1.085-1.662-1.903
						c-0.426-0.928-0.605-2.007-0.383-3.092c0.178-0.859,0.59-1.636,1.125-2.302C478.02,196.459,479.683,195.594,481.55,195.594z"/>
					<path fill="#A0A3AA" d="M481.55,195.594c1.708,0,3.245,0.71,4.346,1.85c-0.004,0.006-0.018,0.015-0.035,0.022
						c-0.301-0.116-0.749-0.058-1.331,0.206c-0.381,0.171-0.775,0.417-1.183,0.726c-0.592,0.452-1.21,1.002-1.817,1.615
						c-0.45,0.458-0.897,0.948-1.326,1.454c-0.547,0.646-1.057,1.323-1.508,1.988c-0.293,0.433-0.571,0.859-0.802,1.28
						c-0.009,0.018-0.021,0.034-0.029,0.052c-0.044,0.073-0.091,0.146-0.133,0.22c-0.671-0.438-1.229-1.103-1.576-1.915
						c-0.396-0.921-0.556-1.982-0.325-3.042c0.187-0.85,0.601-1.619,1.136-2.276C478.043,196.445,479.696,195.594,481.55,195.594z"
						/>
					<path fill="#9FA2A9" d="M481.55,195.594c1.709,0,3.249,0.712,4.348,1.853c-0.004,0.005-0.02,0.014-0.038,0.021
						c-0.333-0.144-0.813-0.109-1.426,0.131c-0.4,0.157-0.813,0.39-1.233,0.688c-0.61,0.434-1.243,0.974-1.857,1.579
						c-0.456,0.453-0.905,0.94-1.333,1.448c-0.545,0.648-1.048,1.332-1.485,2.008c-0.284,0.441-0.55,0.88-0.771,1.312
						c-0.009,0.018-0.019,0.035-0.027,0.053c-0.041,0.077-0.085,0.152-0.125,0.229c-0.641-0.453-1.166-1.12-1.49-1.927
						c-0.369-0.917-0.506-1.957-0.269-2.992c0.192-0.841,0.609-1.603,1.146-2.251C478.066,196.433,479.71,195.594,481.55,195.594z"
						/>
					<path fill="#9EA2A8" d="M481.55,195.594c1.71,0,3.251,0.712,4.351,1.854c-0.005,0.006-0.021,0.014-0.042,0.021
						c-0.365-0.17-0.879-0.162-1.521,0.056c-0.421,0.144-0.85,0.363-1.284,0.649c-0.633,0.417-1.277,0.944-1.899,1.543
						c-0.462,0.448-0.914,0.933-1.339,1.441c-0.543,0.651-1.038,1.34-1.464,2.029c-0.277,0.449-0.526,0.901-0.738,1.342
						c-0.009,0.02-0.018,0.036-0.026,0.056c-0.04,0.079-0.082,0.155-0.117,0.233c-0.61-0.469-1.106-1.138-1.406-1.938
						c-0.339-0.91-0.454-1.934-0.211-2.944c0.201-0.833,0.621-1.583,1.159-2.226C478.091,196.421,479.724,195.594,481.55,195.594z"
						/>
					<path fill="#9DA1A7" d="M481.55,195.594c1.712,0,3.254,0.714,4.353,1.857c-0.006,0.005-0.021,0.013-0.045,0.02
						c-0.398-0.196-0.943-0.214-1.615-0.019c-0.439,0.129-0.887,0.336-1.336,0.609c-0.652,0.401-1.312,0.917-1.939,1.508
						c-0.469,0.442-0.923,0.926-1.347,1.436c-0.54,0.651-1.028,1.348-1.441,2.05c-0.27,0.456-0.511,0.917-0.706,1.374
						c-0.009,0.019-0.019,0.037-0.025,0.056c-0.036,0.081-0.076,0.161-0.11,0.242c-0.578-0.482-1.046-1.156-1.319-1.951
						c-0.313-0.903-0.402-1.908-0.153-2.894c0.208-0.823,0.631-1.567,1.17-2.201C478.113,196.407,479.736,195.594,481.55,195.594z"
						/>
					<path fill="#9CA0A6" d="M481.55,195.594c1.713,0,3.256,0.715,4.354,1.861c-0.006,0.004-0.023,0.011-0.048,0.018
						c-0.431-0.224-1.009-0.266-1.711-0.093c-0.458,0.113-0.922,0.309-1.385,0.57c-0.675,0.384-1.348,0.888-1.983,1.474
						c-0.474,0.438-0.929,0.918-1.351,1.429c-0.539,0.653-1.021,1.356-1.423,2.071c-0.261,0.464-0.484,0.938-0.674,1.405
						c-0.008,0.02-0.016,0.037-0.022,0.058c-0.034,0.084-0.071,0.166-0.104,0.249c-0.549-0.498-0.983-1.172-1.233-1.962
						c-0.282-0.897-0.353-1.882-0.098-2.844c0.217-0.815,0.644-1.55,1.182-2.176C478.137,196.395,479.749,195.594,481.55,195.594z"
						/>
					<path fill="#9B9FA6" d="M481.55,195.594c1.715,0,3.258,0.716,4.357,1.863c-0.007,0.004-0.025,0.01-0.051,0.017
						c-0.464-0.25-1.074-0.32-1.807-0.167c-0.479,0.1-0.959,0.281-1.438,0.532c-0.693,0.366-1.38,0.857-2.024,1.437
						c-0.479,0.433-0.936,0.912-1.355,1.422c-0.537,0.656-1.01,1.366-1.399,2.094c-0.252,0.471-0.471,0.954-0.643,1.435
						c-0.007,0.021-0.015,0.04-0.021,0.06c-0.031,0.086-0.066,0.171-0.097,0.257c-0.517-0.514-0.924-1.19-1.147-1.975
						c-0.255-0.891-0.302-1.858-0.04-2.795c0.225-0.806,0.652-1.532,1.191-2.148C478.16,196.383,479.763,195.594,481.55,195.594z"/>
					<path fill="#9A9EA5" d="M481.55,195.594c1.716,0,3.261,0.718,4.359,1.866c-0.008,0.004-0.026,0.01-0.054,0.017
						c-0.496-0.277-1.139-0.373-1.901-0.242c-0.497,0.085-0.996,0.254-1.485,0.493c-0.716,0.349-1.414,0.83-2.066,1.403
						c-0.484,0.427-0.943,0.903-1.362,1.417c-0.534,0.657-1.002,1.374-1.379,2.115c-0.243,0.478-0.458,0.97-0.609,1.466
						c-0.008,0.021-0.015,0.041-0.021,0.061c-0.029,0.088-0.063,0.176-0.09,0.265c-0.486-0.529-0.863-1.208-1.063-1.986
						c-0.226-0.885-0.247-1.833,0.019-2.746c0.231-0.797,0.663-1.513,1.204-2.124C478.185,196.37,479.776,195.594,481.55,195.594z"
						/>
					<path fill="#999DA4" d="M481.55,195.594c1.718,0,3.263,0.719,4.362,1.869c-0.009,0.003-0.028,0.009-0.057,0.015
						c-0.529-0.303-1.204-0.424-1.996-0.315c-0.518,0.071-1.033,0.226-1.538,0.454c-0.734,0.333-1.448,0.801-2.108,1.368
						c-0.488,0.422-0.949,0.897-1.367,1.412c-0.532,0.659-0.993,1.381-1.357,2.134c-0.235,0.486-0.433,0.992-0.578,1.498
						c-0.006,0.021-0.013,0.042-0.018,0.063c-0.028,0.091-0.06,0.18-0.083,0.271c-0.455-0.543-0.804-1.225-0.978-1.998
						c-0.196-0.878-0.196-1.807,0.074-2.696c0.241-0.788,0.674-1.497,1.216-2.099C478.208,196.358,479.789,195.594,481.55,195.594z"
						/>
					<path fill="#989CA3" d="M481.55,195.594c1.719,0,3.266,0.72,4.365,1.871c-0.01,0.003-0.03,0.008-0.061,0.014
						c-0.563-0.33-1.27-0.476-2.09-0.389c-0.538,0.057-1.07,0.199-1.59,0.415c-0.756,0.314-1.482,0.771-2.149,1.333
						c-0.495,0.417-0.958,0.89-1.374,1.405c-0.531,0.66-0.984,1.391-1.336,2.157c-0.228,0.494-0.418,1.007-0.547,1.529
						c-0.006,0.021-0.011,0.042-0.018,0.063c-0.023,0.094-0.053,0.185-0.074,0.278c-0.426-0.558-0.741-1.243-0.892-2.01
						c-0.17-0.872-0.145-1.783,0.131-2.647c0.25-0.779,0.686-1.478,1.228-2.073C478.231,196.345,479.803,195.594,481.55,195.594z"/>
					<path fill="#979BA2" d="M481.55,195.594c1.72,0,3.268,0.721,4.367,1.874c-0.01,0.003-0.032,0.007-0.063,0.013
						c-0.595-0.356-1.334-0.53-2.187-0.464c-0.558,0.043-1.106,0.172-1.641,0.376c-0.775,0.298-1.516,0.742-2.191,1.296
						c-0.5,0.412-0.965,0.883-1.38,1.399c-0.528,0.663-0.978,1.397-1.313,2.177c-0.22,0.5-0.404,1.026-0.516,1.56
						c-0.005,0.022-0.01,0.044-0.015,0.066c-0.022,0.095-0.049,0.19-0.068,0.286c-0.394-0.574-0.681-1.261-0.806-2.022
						c-0.141-0.865-0.094-1.757,0.188-2.598c0.259-0.771,0.694-1.46,1.237-2.047C478.256,196.333,479.815,195.594,481.55,195.594z"
						/>
					<path fill="#969BA1" d="M481.55,195.594c1.721,0,3.27,0.722,4.37,1.877c-0.011,0.002-0.034,0.007-0.065,0.012
						c-0.626-0.383-1.399-0.583-2.28-0.54c-0.577,0.029-1.145,0.146-1.69,0.338c-0.796,0.281-1.551,0.713-2.233,1.262
						c-0.506,0.406-0.972,0.875-1.384,1.393c-0.529,0.665-0.971,1.407-1.295,2.198c-0.21,0.51-0.377,1.046-0.482,1.591
						c-0.004,0.022-0.009,0.044-0.013,0.067c-0.021,0.098-0.044,0.193-0.063,0.292c-0.362-0.588-0.62-1.279-0.719-2.034
						c-0.113-0.86-0.043-1.732,0.245-2.549c0.268-0.762,0.705-1.444,1.249-2.022C478.279,196.319,479.829,195.594,481.55,195.594z"
						/>
					<path fill="#959AA1" d="M481.55,195.594c1.723,0,3.271,0.724,4.373,1.88c-0.012,0.001-0.036,0.006-0.068,0.011
						c-0.659-0.411-1.465-0.635-2.376-0.613c-0.597,0.014-1.181,0.117-1.742,0.299c-0.815,0.263-1.584,0.683-2.274,1.225
						c-0.512,0.401-0.979,0.868-1.391,1.386c-0.526,0.666-0.96,1.416-1.271,2.22c-0.202,0.517-0.353,1.065-0.45,1.623
						c-0.004,0.022-0.01,0.045-0.013,0.067c-0.019,0.102-0.04,0.2-0.054,0.301c-0.333-0.604-0.561-1.296-0.635-2.046
						c-0.085-0.853,0.012-1.707,0.303-2.499c0.276-0.752,0.717-1.426,1.261-1.997C478.303,196.307,479.842,195.594,481.55,195.594z"
						/>
					<path fill="#9499A0" d="M481.55,195.594c1.724,0,3.273,0.725,4.376,1.883c-0.013,0.001-0.039,0.005-0.072,0.009
						c-0.691-0.437-1.529-0.687-2.471-0.688c-0.616,0-1.219,0.091-1.793,0.261c-0.836,0.247-1.618,0.655-2.316,1.19
						c-0.517,0.395-0.985,0.86-1.396,1.381c-0.524,0.667-0.951,1.423-1.252,2.24c-0.192,0.523-0.35,1.081-0.419,1.653
						c-0.003,0.023-0.006,0.046-0.01,0.07c-0.016,0.103-0.034,0.204-0.046,0.308c-0.302-0.62-0.499-1.312-0.549-2.058
						c-0.058-0.846,0.062-1.68,0.358-2.45c0.286-0.743,0.729-1.409,1.272-1.971C478.326,196.296,479.855,195.594,481.55,195.594z"/>
					<path fill="#93989F" d="M481.55,195.594c1.726,0,3.276,0.726,4.379,1.885c-0.015,0.001-0.041,0.004-0.076,0.009
						c-0.724-0.464-1.594-0.74-2.565-0.762c-0.636-0.015-1.254,0.063-1.844,0.222c-0.855,0.229-1.652,0.625-2.357,1.155
						c-0.521,0.391-0.992,0.854-1.4,1.375c-0.523,0.668-0.943,1.433-1.231,2.262c-0.185,0.532-0.313,1.102-0.386,1.685
						c-0.003,0.023-0.006,0.048-0.009,0.072c-0.014,0.104-0.029,0.209-0.039,0.314c-0.271-0.635-0.438-1.332-0.463-2.071
						c-0.028-0.84,0.116-1.654,0.416-2.399c0.296-0.733,0.737-1.392,1.284-1.946C478.35,196.282,479.869,195.594,481.55,195.594z"/>
					<path id="XMLID_2_" fill="#92979E" d="M475.92,203.394c0.002-0.024,0.006-0.049,0.008-0.074
						c0.063-0.595,0.178-1.175,0.354-1.715c0.489-1.496,1.413-2.769,2.616-3.65c1.203-0.883,2.687-1.374,4.294-1.303
						c1.002,0.045,1.904,0.348,2.661,0.837c0.036-0.004,0.063-0.007,0.078-0.007c-1.103-1.161-2.654-1.888-4.381-1.888
						c-1.669,0-3.179,0.675-4.271,1.769c-0.547,0.546-0.989,1.198-1.295,1.919c-0.305,0.723-0.474,1.518-0.474,2.352
						c0,0.733,0.138,1.432,0.377,2.083C475.895,203.608,475.909,203.502,475.92,203.394z"/>
				</g>
				<g id="XMLID_11868_">
					<circle id="XMLID_28_" fill="#878B92" cx="481.595" cy="201.591" r="2.488"/>
					<circle fill="#898D94" cx="481.595" cy="201.589" r="2.475"/>
					<circle fill="#8A8E96" cx="481.596" cy="201.589" r="2.461"/>
					<circle fill="#8C9097" cx="481.598" cy="201.588" r="2.448"/>
					<circle fill="#8D9299" cx="481.598" cy="201.586" r="2.435"/>
					<circle fill="#8F949B" cx="481.599" cy="201.587" r="2.421"/>
					<circle fill="#91959D" cx="481.6" cy="201.585" r="2.407"/>
					<circle fill="#92979E" cx="481.601" cy="201.584" r="2.395"/>
					<circle fill="#9499A0" cx="481.601" cy="201.583" r="2.382"/>
					<circle fill="#959BA2" cx="481.603" cy="201.583" r="2.367"/>
					<circle fill="#979CA4" cx="481.604" cy="201.583" r="2.354"/>
					<circle fill="#989EA6" cx="481.604" cy="201.581" r="2.342"/>
					<circle fill="#9AA0A7" cx="481.604" cy="201.58" r="2.327"/>
					<circle fill="#9CA2A9" cx="481.605" cy="201.58" r="2.313"/>
					<circle fill="#9DA3AB" cx="481.606" cy="201.579" r="2.302"/>
					<circle fill="#9FA5AD" cx="481.607" cy="201.578" r="2.287"/>
					<circle fill="#A0A7AE" cx="481.607" cy="201.577" r="2.273"/>
					<circle fill="#A2A8B0" cx="481.609" cy="201.576" r="2.26"/>
					<circle fill="#A4AAB2" cx="481.609" cy="201.574" r="2.247"/>
					<circle fill="#A5ACB4" cx="481.61" cy="201.574" r="2.233"/>
					<circle fill="#A7AEB6" cx="481.611" cy="201.573" r="2.22"/>
					<circle fill="#A8AFB7" cx="481.612" cy="201.572" r="2.207"/>
					<circle fill="#AAB1B9" cx="481.613" cy="201.572" r="2.193"/>
					<circle fill="#ABB3BB" cx="481.613" cy="201.571" r="2.18"/>
					<circle fill="#ADB5BD" cx="481.614" cy="201.569" r="2.166"/>
					<circle fill="#AFB6BF" cx="481.615" cy="201.569" r="2.153"/>
					<circle fill="#B0B8C0" cx="481.616" cy="201.568" r="2.14"/>
					<circle fill="#B2BAC2" cx="481.617" cy="201.566" r="2.126"/>
					<circle fill="#B3BBC4" cx="481.618" cy="201.567" r="2.113"/>
					<circle fill="#B5BDC6" cx="481.619" cy="201.566" r="2.1"/>
					<circle fill="#B7BFC7" cx="481.62" cy="201.565" r="2.086"/>
					<circle fill="#B8C1C9" cx="481.62" cy="201.564" r="2.073"/>
					<circle fill="#BAC2CB" cx="481.621" cy="201.564" r="2.059"/>
					<circle fill="#BBC4CD" cx="481.622" cy="201.563" r="2.046"/>
					<circle fill="#BDC6CF" cx="481.623" cy="201.562" r="2.033"/>
					<circle fill="#BEC8D0" cx="481.624" cy="201.561" r="2.02"/>
					<circle fill="#C0C9D2" cx="481.625" cy="201.56" r="2.006"/>
					<circle fill="#C2CBD4" cx="481.626" cy="201.559" r="1.993"/>
					<circle fill="#C3CDD6" cx="481.627" cy="201.559" r="1.979"/>
					<circle fill="#C5CFD7" cx="481.628" cy="201.558" r="1.966"/>
					<circle fill="#C6D0D9" cx="481.629" cy="201.557" r="1.952"/>
					<circle id="XMLID_27_" fill="#C8D2DB" cx="481.629" cy="201.556" r="1.94"/>
				</g>
			</g>
			<g id="XMLID_11866_" opacity="0.1">
				<path fill="#FFFFFF" d="M559.308,185.989c-5.312-4.969-12.451-8.008-20.299-7.988l-205.993,0.529
					c-16.357,0.042-29.583,13.336-29.542,29.693l0.051,19.805l2.534,477.628L559.308,185.989z"/>
			</g>
		</g>
		<g>
			<g>
				<g>
					<g>
						<path fill="#FFFFFF" d="M590.28,620.83l-2.442-11.13c36.307-7.969,67.336-29.598,87.374-60.905
							c20.039-31.305,26.686-68.541,18.719-104.847c-8.379-38.174-32.62-71.262-66.508-90.779l5.687-9.875
							c36.662,21.115,62.887,56.91,71.952,98.212c8.62,39.278,1.429,79.564-20.25,113.433
							C663.131,588.81,629.56,612.21,590.28,620.83z"/>
					</g>
					<g>
						<g>
							<polygon fill="#FFFFFF" points="592.959,333.172 654.188,334.038 632.747,350.09 636.063,376.664 							"/>
						</g>
					</g>
				</g>
			</g>
		</g>
		<g>
			<g>
				<g>
					<g>
						<path fill="#FFFFFF" d="M235.332,598.901c-36.303-21.725-61.926-57.956-70.297-99.401
							c-16.434-81.371,36.396-160.943,117.767-177.377l2.256,11.169c-75.212,15.192-124.043,88.74-108.853,163.952
							c7.738,38.31,31.422,71.799,64.979,91.882L235.332,598.901z"/>
					</g>
					<g>
						<g>
							<polygon fill="#FFFFFF" points="275.306,609.696 214.1,607.804 235.807,592.115 232.936,565.487 							"/>
						</g>
					</g>
				</g>
			</g>
		</g>
	</g>
</g>
</svg>
