<?xml version="1.0" encoding="utf-8"?>
<!-- Generator: Adobe Illustrator 16.0.0, SVG Export Plug-In . SVG Version: 6.00 Build 0)  -->
<!DOCTYPE svg PUBLIC "-//W3C//DTD SVG 1.1//EN" "http://www.w3.org/Graphics/SVG/1.1/DTD/svg11.dtd">
<svg version="1.1" id="圖層_1" xmlns="http://www.w3.org/2000/svg" xmlns:xlink="http://www.w3.org/1999/xlink" x="0px" y="0px"
	 width="734px" height="140px" viewBox="0 0 734 140" enable-background="new 0 0 734 140" xml:space="preserve">
<g>
	<g>
		<path d="M29.804,6.798H17.351v38.808h-4.764V6.798H0.161V2.452h29.643V6.798z"/>
	</g>
	<g>
		<path d="M61.313,45.607h-4.625V27.833c0-6.539-2.441-9.808-7.327-9.808c-2.47,0-4.54,0.948-6.212,2.841
			c-1.672,1.895-2.508,4.328-2.508,7.299v17.44h-4.652V0h4.652v19.946h0.14c2.358-3.917,5.739-5.877,10.141-5.877
			c6.928,0,10.392,4.188,10.392,12.565V45.607z"/>
	</g>
	<g>
		<path d="M95.302,31.342H73.46c0.093,3.548,1.031,6.268,2.814,8.163c1.783,1.896,4.225,2.842,7.327,2.842
			c3.473,0,6.676-1.161,9.611-3.484v4.458c-2.693,2.005-6.26,3.009-10.696,3.009c-4.291,0-7.677-1.403-10.155-4.208
			c-2.479-2.803-3.719-6.751-3.719-11.839c0-4.681,1.341-8.554,4.025-11.618c2.684-3.064,6.041-4.596,10.071-4.596
			c3.955,0,7.038,1.299,9.25,3.9c2.209,2.601,3.314,6.223,3.314,10.865v2.507H95.302z M90.509,27.247
			c-0.019-2.897-0.716-5.149-2.089-6.755c-1.375-1.607-3.298-2.41-5.768-2.41c-2.247,0-4.22,0.807-5.92,2.423
			c-1.699,1.615-2.772,3.863-3.218,6.742H90.509z"/>
	</g>
	<g>
		<path d="M138.01,44.158c-2.396,1.45-5.181,2.174-8.357,2.174c-4.365,0-7.889-1.425-10.572-4.276
			c-2.685-2.851-4.026-6.561-4.026-11.13c0-5.107,1.449-9.193,4.346-12.258c2.897-3.064,6.752-4.595,11.563-4.595
			c2.655,0,5.024,0.501,7.104,1.503v4.876c-2.304-1.615-4.765-2.424-7.383-2.424c-3.157,0-5.763,1.138-7.814,3.413
			c-2.053,2.275-3.079,5.297-3.079,9.067c0,3.678,0.956,6.575,2.869,8.693c1.913,2.117,4.485,3.175,7.717,3.175
			c2.73,0,5.274-0.899,7.633-2.703L138.01,44.158L138.01,44.158z"/>
	</g>
	<g>
		<path d="M143.442,30.59c0-5.125,1.396-9.162,4.192-12.105c2.795-2.945,6.598-4.417,11.409-4.417c4.531,0,8.083,1.42,10.655,4.263
			c2.573,2.841,3.859,6.77,3.859,11.784c0,4.867-1.392,8.786-4.179,11.756c-2.786,2.973-6.474,4.459-11.06,4.459
			c-4.44,0-8.029-1.43-10.77-4.292C144.812,39.179,143.442,35.365,143.442,30.59z M148.179,30.396c0,3.64,0.951,6.548,2.855,8.719
			c1.902,2.173,4.444,3.259,7.619,3.259c3.231,0,5.734-1.058,7.508-3.175c1.774-2.118,2.66-5.089,2.66-8.915
			c0-3.919-0.877-6.942-2.633-9.07c-1.755-2.126-4.267-3.189-7.535-3.189c-3.194,0-5.739,1.101-7.633,3.302
			C149.125,23.528,148.179,26.55,148.179,30.396z"/>
	</g>
	<g>
		<path d="M206.851,45.607h-4.653V28c0-6.648-2.434-9.974-7.299-9.974c-2.545,0-4.635,0.952-6.269,2.855
			c-1.635,1.905-2.452,4.285-2.452,7.146v17.58h-4.652V14.793h4.652v5.154h0.14c2.303-3.917,5.674-5.877,10.112-5.877
			c3.381,0,5.962,1.086,7.745,3.26c1.783,2.172,2.675,5.321,2.675,9.444L206.851,45.607L206.851,45.607z"/>
	</g>
	<g>
		<path d="M230.252,45.301c-1.133,0.649-2.628,0.973-4.485,0.973c-5.294,0-7.94-2.98-7.94-8.942V18.806h-5.349v-4.013h5.349V7.217
			l4.625-1.504v9.081h7.801v4.013h-7.801v17.692c0,2.099,0.353,3.593,1.059,4.485c0.706,0.891,1.886,1.336,3.539,1.336
			c1.281,0,2.349-0.343,3.204-1.03L230.252,45.301L230.252,45.301z"/>
	</g>
	<g>
		<path d="M261.036,31.342h-21.842c0.094,3.548,1.031,6.268,2.814,8.163c1.783,1.896,4.225,2.842,7.327,2.842
			c3.473,0,6.677-1.161,9.612-3.484v4.458c-2.693,2.005-6.26,3.009-10.698,3.009c-4.289,0-7.675-1.403-10.154-4.208
			c-2.479-2.803-3.719-6.751-3.719-11.839c0-4.681,1.342-8.554,4.025-11.618c2.685-3.064,6.041-4.596,10.071-4.596
			c3.957,0,7.039,1.299,9.249,3.9s3.315,6.223,3.315,10.865v2.507H261.036z M256.245,27.247c-0.02-2.897-0.716-5.149-2.09-6.755
			c-1.375-1.607-3.297-2.41-5.767-2.41c-2.246,0-4.221,0.807-5.92,2.423c-1.7,1.615-2.773,3.863-3.219,6.742H256.245z"/>
	</g>
	<g>
		<path d="M293.938,45.607h-4.653V28c0-6.648-2.433-9.974-7.299-9.974c-2.545,0-4.634,0.952-6.269,2.855
			c-1.634,1.905-2.452,4.285-2.452,7.146v17.58h-4.652V14.793h4.652v5.154h0.14c2.303-3.917,5.674-5.877,10.112-5.877
			c3.381,0,5.962,1.086,7.745,3.26c1.783,2.172,2.675,5.321,2.675,9.444L293.938,45.607L293.938,45.607z"/>
	</g>
	<g>
		<path d="M317.34,45.301c-1.133,0.649-2.628,0.973-4.484,0.973c-5.294,0-7.94-2.98-7.94-8.942V18.806h-5.35v-4.013h5.35V7.217
			l4.625-1.504v9.081h7.8v4.013h-7.8v17.692c0,2.099,0.352,3.593,1.058,4.485c0.706,0.891,1.887,1.336,3.539,1.336
			c1.281,0,2.349-0.343,3.204-1.03L317.34,45.301L317.34,45.301z"/>
	</g>
	<g>
		<path d="M337.678,3.706c0-0.874,0.292-1.611,0.879-2.215c0.585-0.604,1.295-0.905,2.131-0.905c0.873,0,1.61,0.307,2.215,0.92
			c0.602,0.612,0.905,1.347,0.905,2.199c0,0.819-0.304,1.532-0.905,2.146c-0.604,0.613-1.343,0.919-2.215,0.919
			c-0.875,0-1.593-0.298-2.16-0.892S337.678,4.56,337.678,3.706z M338.318,45.607V14.794h4.625v30.813H338.318z"/>
	</g>
	<g>
		<path d="M351.161,39.338c2.692,1.988,5.646,2.981,8.859,2.981c4.383,0,6.573-1.476,6.573-4.43c0-1.299-0.477-2.357-1.434-3.176
			c-0.957-0.817-2.838-1.755-5.641-2.813c-3.344-1.319-5.563-2.647-6.659-3.983c-1.097-1.338-1.644-3.001-1.644-4.987
			c0-2.637,1.128-4.772,3.384-6.408c2.258-1.634,5.03-2.452,8.317-2.452c2.637,0,4.995,0.465,7.075,1.394v4.846
			c-2.266-1.485-4.875-2.227-7.827-2.227c-1.821,0-3.302,0.408-4.444,1.226s-1.713,1.894-1.713,3.232
			c0,1.336,0.393,2.358,1.184,3.064c0.789,0.706,2.566,1.625,5.334,2.757c3.51,1.337,5.863,2.689,7.063,4.054
			c1.198,1.366,1.797,3.041,1.797,5.03c0,2.748-1.127,4.917-3.385,6.505c-2.256,1.587-5.15,2.382-8.677,2.382
			c-3.177,0-5.896-0.624-8.164-1.867L351.161,39.338L351.161,39.338z"/>
	</g>
	<g>
		<path d="M392.756,3.706c0-0.874,0.293-1.611,0.878-2.215c0.585-0.604,1.295-0.905,2.132-0.905c0.872,0,1.611,0.307,2.214,0.92
			c0.604,0.612,0.906,1.347,0.906,2.199c0,0.819-0.302,1.532-0.906,2.146c-0.603,0.613-1.342,0.919-2.214,0.919
			c-0.874,0-1.594-0.298-2.159-0.892C393.039,5.284,392.756,4.56,392.756,3.706z M393.397,45.607V14.794h4.623v30.813H393.397z"/>
	</g>
	<g>
		<path d="M433.485,45.607h-4.651V28c0-6.648-2.433-9.974-7.298-9.974c-2.547,0-4.635,0.952-6.271,2.855
			c-1.634,1.905-2.451,4.285-2.451,7.146v17.58h-4.651V14.793h4.651v5.154h0.141c2.303-3.917,5.674-5.877,10.113-5.877
			c3.379,0,5.961,1.086,7.744,3.26c1.783,2.172,2.674,5.321,2.674,9.444L433.485,45.607L433.485,45.607z"/>
	</g>
	<g>
		<path d="M482.462,45.607h-4.624V27.833c0-6.539-2.443-9.808-7.328-9.808c-2.469,0-4.541,0.948-6.212,2.841
			c-1.672,1.895-2.508,4.328-2.508,7.299v17.44h-4.651V0h4.651v19.946h0.139c2.359-3.917,5.739-5.877,10.142-5.877
			c6.927,0,10.391,4.188,10.391,12.565L482.462,45.607L482.462,45.607z"/>
	</g>
	<g>
		<path d="M489.789,30.59c0-5.125,1.397-9.162,4.193-12.105c2.796-2.945,6.597-4.417,11.408-4.417c4.532,0,8.085,1.42,10.656,4.263
			c2.573,2.842,3.858,6.77,3.858,11.784c0,4.867-1.392,8.786-4.179,11.756c-2.786,2.973-6.473,4.459-11.059,4.459
			c-4.439,0-8.028-1.43-10.769-4.292C491.159,39.179,489.789,35.365,489.789,30.59z M494.525,30.396c0,3.64,0.953,6.548,2.855,8.719
			c1.904,2.173,4.444,3.259,7.619,3.259c3.231,0,5.735-1.058,7.509-3.175c1.773-2.118,2.66-5.089,2.66-8.915
			c0-3.919-0.877-6.942-2.632-9.07c-1.756-2.126-4.268-3.189-7.537-3.189c-3.194,0-5.738,1.101-7.633,3.302
			C495.473,23.527,494.525,26.55,494.525,30.396z"/>
	</g>
	<g>
		<path d="M543.698,19.559c-0.854-0.649-2.091-0.975-3.706-0.975c-2.174,0-3.961,1.036-5.363,3.106
			c-1.402,2.071-2.103,4.788-2.103,8.149v15.768h-4.652V14.794h4.652v6.381h0.141c0.705-2.19,1.781-3.89,3.23-5.097
			c1.449-1.208,3.046-1.813,4.793-1.813c1.318,0,2.322,0.141,3.009,0.418L543.698,19.559L543.698,19.559z"/>
	</g>
	<g>
		<path d="M548.489,3.706c0-0.874,0.294-1.611,0.878-2.215c0.586-0.604,1.296-0.905,2.132-0.905c0.873,0,1.611,0.307,2.215,0.92
			c0.604,0.612,0.905,1.347,0.905,2.199c0,0.819-0.302,1.532-0.905,2.146c-0.604,0.613-1.342,0.919-2.215,0.919
			s-1.593-0.298-2.159-0.892S548.489,4.56,548.489,3.706z M549.13,45.607V14.794h4.625v30.813H549.13z"/>
	</g>
	<g>
		<path d="M585.012,45.607h-25.129v-1.366l18.388-25.435h-16.688v-4.014h23.624v1.2l-18.471,25.603h18.275V45.607L585.012,45.607z"
			/>
	</g>
	<g>
		<path d="M589.555,30.59c0-5.125,1.396-9.162,4.192-12.105c2.794-2.945,6.597-4.417,11.407-4.417c4.533,0,8.085,1.42,10.657,4.263
			c2.572,2.842,3.859,6.77,3.859,11.784c0,4.867-1.394,8.786-4.18,11.756c-2.786,2.973-6.473,4.459-11.06,4.459
			c-4.439,0-8.028-1.43-10.768-4.292C590.924,39.179,589.555,35.365,589.555,30.59z M594.29,30.396c0,3.64,0.952,6.548,2.856,8.719
			c1.903,2.173,4.442,3.259,7.618,3.259c3.232,0,5.734-1.058,7.509-3.175c1.774-2.118,2.66-5.089,2.66-8.915
			c0-3.919-0.878-6.942-2.633-9.07c-1.756-2.126-4.266-3.189-7.536-3.189c-3.195,0-5.737,1.101-7.633,3.302
			C595.237,23.527,594.29,26.55,594.29,30.396z"/>
	</g>
	<g>
		<path d="M652.961,45.607h-4.651V28c0-6.648-2.434-9.974-7.3-9.974c-2.545,0-4.632,0.952-6.268,2.855
			c-1.635,1.905-2.452,4.285-2.452,7.146v17.58h-4.651V14.793h4.651v5.154h0.141c2.302-3.917,5.674-5.877,10.112-5.877
			c3.381,0,5.962,1.086,7.744,3.26c1.783,2.172,2.675,5.321,2.675,9.444L652.961,45.607L652.961,45.607z"/>
	</g>
	<g>
		<path d="M676.364,45.301c-1.134,0.649-2.628,0.973-4.484,0.973c-5.293,0-7.94-2.98-7.94-8.942V18.806h-5.35v-4.013h5.35V7.217
			l4.624-1.504v9.081h7.801v4.013h-7.801v17.692c0,2.099,0.353,3.593,1.059,4.485c0.705,0.891,1.886,1.336,3.538,1.336
			c1.282,0,2.35-0.343,3.204-1.03V45.301L676.364,45.301z"/>
	</g>
	<g>
		<path d="M683.774,16.994c3.028-1.95,6.492-2.924,10.392-2.924c7.15,0,10.725,3.798,10.725,11.396v20.142h-4.653v-4.848h-0.165
			c-2.137,3.715-5.294,5.573-9.472,5.573c-3.048,0-5.448-0.813-7.204-2.438c-1.756-1.625-2.633-3.776-2.633-6.449
			c0-5.702,3.38-9.036,10.141-10.002l9.306-1.338c0-5.348-2.136-8.022-6.407-8.022c-3.733,0-7.076,1.272-10.029,3.816
			L683.774,16.994L683.774,16.994z M692.661,30.981c-2.636,0.352-4.47,0.989-5.501,1.908c-1.031,0.92-1.546,2.336-1.546,4.248
			c0,1.542,0.552,2.797,1.657,3.762c1.105,0.965,2.55,1.45,4.332,1.45c2.471,0,4.521-0.883,6.157-2.647
			c1.634-1.765,2.451-3.966,2.451-6.602v-3.122L692.661,30.981z"/>
	</g>
	<g>
		<path d="M714.31,45.607V0.001h4.624v45.606H714.31z"/>
	</g>
	<g>
		<path d="M727.376,43.015c0-0.909,0.323-1.685,0.974-2.327c0.65-0.639,1.403-0.96,2.259-0.96c0.89,0,1.652,0.321,2.283,0.96
			c0.633,0.642,0.947,1.417,0.947,2.327c0,0.892-0.319,1.657-0.961,2.3c-0.641,0.64-1.397,0.959-2.27,0.959
			c-0.854,0-1.607-0.31-2.258-0.933C727.699,44.72,727.376,43.944,727.376,43.015z"/>
	</g>
	<g>
		<path d="M14.635,109.104v16.382H9.898V82.331h11.646c4.513,0,8.042,1.124,10.587,3.371c2.544,2.247,3.816,5.404,3.816,9.472
			c0,4.235-1.496,7.652-4.485,10.253c-2.99,2.6-6.677,3.825-11.06,3.677H14.635L14.635,109.104z M14.635,86.705v17.971h5.404
			c3.548,0,6.255-0.805,8.122-2.411c1.866-1.606,2.799-3.896,2.799-6.868c0-5.794-3.417-8.691-10.252-8.691H14.635L14.635,86.705z"
			/>
	</g>
	<g>
		<path d="M43.552,125.485V79.879h4.626v45.606H43.552z"/>
	</g>
	<g>
		<path d="M82.891,111.222H61.048c0.094,3.549,1.031,6.268,2.814,8.163c1.783,1.895,4.226,2.841,7.328,2.841
			c3.473,0,6.676-1.161,9.611-3.483v4.458c-2.693,2.005-6.259,3.009-10.697,3.009c-4.29,0-7.675-1.401-10.155-4.207
			c-2.479-2.804-3.718-6.751-3.718-11.84c0-4.682,1.342-8.554,4.025-11.618s6.041-4.595,10.071-4.595c3.955,0,7.038,1.3,9.249,3.899
			c2.21,2.601,3.315,6.223,3.315,10.865v2.508H82.891z M78.098,107.127c-0.019-2.898-0.716-5.15-2.089-6.758
			c-1.376-1.605-3.299-2.408-5.768-2.408c-2.246,0-4.22,0.807-5.921,2.422c-1.698,1.616-2.771,3.864-3.217,6.744H78.098z"/>
	</g>
	<g>
		<path d="M91.192,96.872c3.026-1.948,6.491-2.923,10.391-2.923c7.15,0,10.726,3.799,10.726,11.394v20.144h-4.653v-4.848h-0.167
			c-2.137,3.715-5.293,5.572-9.473,5.572c-3.045,0-5.446-0.812-7.201-2.437s-2.633-3.776-2.633-6.451c0-5.7,3.38-9.035,10.141-10
			l9.306-1.338c0-5.349-2.137-8.022-6.408-8.022c-3.734,0-7.077,1.271-10.029,3.815v-4.906H91.192z M100.079,110.858
			c-2.637,0.354-4.471,0.989-5.502,1.908c-1.031,0.918-1.546,2.335-1.546,4.248c0,1.542,0.552,2.796,1.657,3.762
			c1.104,0.966,2.55,1.449,4.331,1.449c2.472,0,4.523-0.881,6.157-2.646c1.634-1.766,2.452-3.967,2.452-6.604v-3.12L100.079,110.858
			z"/>
	</g>
	<g>
		<path d="M119.775,119.217c2.692,1.987,5.646,2.982,8.859,2.982c4.383,0,6.574-1.479,6.574-4.432c0-1.299-0.478-2.358-1.434-3.176
			s-2.838-1.755-5.642-2.813c-3.344-1.32-5.563-2.646-6.658-3.985c-1.097-1.336-1.644-2.998-1.644-4.986
			c0-2.636,1.128-4.773,3.384-6.408c2.258-1.633,5.03-2.45,8.317-2.45c2.638,0,4.996,0.464,7.076,1.393v4.847
			c-2.267-1.486-4.875-2.227-7.828-2.227c-1.82,0-3.301,0.408-4.443,1.224c-1.143,0.818-1.714,1.896-1.714,3.232
			c0,1.337,0.394,2.359,1.184,3.064c0.79,0.707,2.567,1.627,5.336,2.758c3.51,1.337,5.864,2.689,7.062,4.054
			c1.198,1.366,1.798,3.042,1.798,5.028c0,2.751-1.129,4.92-3.386,6.507c-2.257,1.589-5.15,2.382-8.679,2.382
			c-3.176,0-5.896-0.622-8.163-1.867V119.217z"/>
	</g>
	<g>
		<path d="M172.29,111.222h-21.842c0.093,3.549,1.031,6.268,2.814,8.163c1.782,1.895,4.226,2.841,7.327,2.841
			c3.473,0,6.676-1.161,9.611-3.483v4.458c-2.693,2.005-6.259,3.009-10.697,3.009c-4.29,0-7.675-1.401-10.154-4.207
			c-2.479-2.804-3.719-6.751-3.719-11.84c0-4.682,1.342-8.554,4.025-11.618s6.041-4.595,10.071-4.595c3.956,0,7.039,1.3,9.249,3.899
			c2.21,2.601,3.315,6.223,3.315,10.865v2.508H172.29z M167.498,107.127c-0.019-2.898-0.715-5.15-2.089-6.758
			c-1.374-1.605-3.297-2.408-5.767-2.408c-2.247,0-4.221,0.807-5.92,2.422c-1.7,1.616-2.772,3.864-3.219,6.744H167.498z"/>
	</g>
	<g>
		<path d="M208.145,125.18c-1.132,0.65-2.628,0.974-4.484,0.974c-5.293,0-7.939-2.98-7.939-8.941V98.685h-5.35v-4.012h5.35v-7.578
			l4.624-1.505v9.084h7.8v4.012h-7.8v17.691c0,2.101,0.353,3.594,1.06,4.485c0.705,0.891,1.885,1.338,3.538,1.338
			c1.281,0,2.349-0.345,3.203-1.031L208.145,125.18L208.145,125.18z"/>
	</g>
	<g>
		<path d="M239.487,125.485h-4.652v-4.876h-0.112c-2.024,3.732-5.191,5.6-9.5,5.6c-7.354,0-11.032-4.373-11.032-13.122V94.672h4.597
			v17.635c0,6.631,2.526,9.945,7.577,9.945c2.489,0,4.522-0.919,6.101-2.758c1.579-1.839,2.369-4.196,2.369-7.076V94.672h4.652
			L239.487,125.485L239.487,125.485z"/>
	</g>
	<g>
		<path d="M265.37,99.436c-0.855-0.648-2.09-0.975-3.706-0.975c-2.173,0-3.961,1.037-5.363,3.107
			c-1.401,2.07-2.103,4.787-2.103,8.147v15.77h-4.651V94.673h4.651v6.381h0.14c0.705-2.192,1.782-3.892,3.231-5.098
			c1.45-1.209,3.046-1.812,4.792-1.812c1.318,0,2.321,0.139,3.01,0.417L265.37,99.436L265.37,99.436z"/>
	</g>
	<g>
		<path d="M295.986,125.485h-4.652v-17.607c0-6.649-2.434-9.975-7.3-9.975c-2.545,0-4.634,0.952-6.269,2.856
			c-1.634,1.902-2.451,4.286-2.451,7.146v17.579h-4.653V94.672h4.653v5.154h0.139c2.303-3.918,5.674-5.878,10.113-5.878
			c3.381,0,5.962,1.086,7.744,3.26c1.784,2.173,2.675,5.32,2.675,9.444L295.986,125.485L295.986,125.485z"/>
	</g>
	<g>
		<path d="M343.85,94.673l-14.265,35.909c-2.489,6.278-5.981,9.418-10.476,9.418c-1.132,0-2.145-0.121-3.036-0.362v-4.235
			c1.039,0.334,1.987,0.502,2.842,0.502c2.507,0,4.383-1.503,5.627-4.512l2.508-5.962l-12.006-30.758h5.153l8.497,24.043
			c0.111,0.333,0.324,1.068,0.641,2.2h0.166c0.075-0.39,0.27-1.105,0.586-2.145l8.942-24.099H343.85z"/>
	</g>
	<g>
		<path d="M346.83,110.469c0-5.126,1.397-9.161,4.193-12.104c2.795-2.943,6.597-4.416,11.408-4.416
			c4.531,0,8.083,1.421,10.656,4.263c2.57,2.842,3.858,6.77,3.858,11.783c0,4.867-1.393,8.786-4.179,11.757
			c-2.787,2.973-6.472,4.458-11.06,4.458c-4.438,0-8.028-1.43-10.768-4.29C348.199,119.058,346.83,115.242,346.83,110.469z
			 M351.566,110.275c0,3.64,0.951,6.546,2.854,8.718c1.903,2.175,4.444,3.26,7.62,3.26c3.231,0,5.734-1.059,7.509-3.176
			c1.772-2.117,2.66-5.087,2.66-8.915c0-3.919-0.878-6.94-2.634-9.067c-1.754-2.127-4.266-3.191-7.535-3.191
			c-3.194,0-5.739,1.101-7.633,3.303C352.513,103.407,351.566,106.429,351.566,110.275z"/>
	</g>
	<g>
		<path d="M409.569,125.485h-4.652v-4.876h-0.112c-2.023,3.732-5.19,5.6-9.5,5.6c-7.354,0-11.032-4.373-11.032-13.122V94.672h4.597
			v17.635c0,6.631,2.525,9.945,7.576,9.945c2.489,0,4.523-0.919,6.104-2.758c1.577-1.839,2.368-4.196,2.368-7.076V94.672h4.652
			V125.485L409.569,125.485z"/>
	</g>
	<g>
		<path d="M435.45,99.436c-0.854-0.648-2.092-0.975-3.705-0.975c-2.174,0-3.961,1.037-5.364,3.107
			c-1.402,2.07-2.104,4.787-2.104,8.147v15.77h-4.651V94.673h4.651v6.381h0.14c0.707-2.192,1.783-3.892,3.231-5.098
			c1.451-1.209,3.047-1.812,4.794-1.812c1.318,0,2.321,0.139,3.009,0.417L435.45,99.436L435.45,99.436z"/>
	</g>
	<g>
		<path d="M481.166,125.485h-4.624v-5.292h-0.112c-2.283,4.01-5.832,6.017-10.641,6.017c-3.899,0-7.002-1.389-9.305-4.164
			c-2.305-2.776-3.454-6.524-3.454-11.241c0-5.053,1.29-9.125,3.873-12.219c2.58-3.091,5.989-4.637,10.223-4.637
			c4.236,0,7.337,1.681,9.305,5.042h0.112V79.879h4.624L481.166,125.485L481.166,125.485z M476.542,106.932
			c0-2.525-0.858-4.663-2.575-6.408c-1.72-1.745-3.823-2.619-6.312-2.619c-3.082,0-5.501,1.139-7.258,3.413
			c-1.755,2.275-2.633,5.353-2.633,9.236c0,3.546,0.84,6.384,2.521,8.51c1.681,2.128,3.942,3.19,6.783,3.19
			c2.73,0,4.992-0.998,6.784-2.994c1.792-1.998,2.688-4.547,2.688-7.649V106.932L476.542,106.932z"/>
	</g>
	<g>
		<path d="M515.852,111.222h-21.841c0.092,3.549,1.03,6.268,2.813,8.163c1.781,1.895,4.225,2.841,7.327,2.841
			c3.474,0,6.678-1.161,9.612-3.483v4.458c-2.692,2.005-6.259,3.009-10.697,3.009c-4.292,0-7.676-1.401-10.153-4.207
			c-2.48-2.804-3.72-6.751-3.72-11.84c0-4.682,1.341-8.554,4.023-11.618c2.684-3.064,6.04-4.595,10.071-4.595
			c3.956,0,7.039,1.3,9.25,3.899c2.209,2.601,3.314,6.223,3.314,10.865V111.222L515.852,111.222z M511.061,107.127
			c-0.02-2.898-0.714-5.15-2.091-6.758c-1.373-1.605-3.296-2.408-5.767-2.408c-2.247,0-4.221,0.807-5.92,2.422
			c-1.698,1.616-2.771,3.864-3.217,6.744H511.061z"/>
	</g>
	<g>
		<path d="M547.333,94.673l-12.342,30.813h-4.459l-11.698-30.813h5.125l7.94,22.622c0.612,1.746,0.975,3.148,1.085,4.206h0.141
			c0.241-1.69,0.557-3.054,0.947-4.096l8.357-22.732H547.333z"/>
	</g>
	<g>
		<path d="M552.069,83.585c0-0.872,0.293-1.61,0.877-2.216c0.586-0.602,1.296-0.905,2.132-0.905c0.874,0,1.611,0.308,2.216,0.919
			c0.604,0.613,0.905,1.348,0.905,2.201c0,0.818-0.302,1.53-0.905,2.145c-0.604,0.613-1.342,0.92-2.216,0.92
			c-0.872,0-1.593-0.297-2.158-0.893C552.354,85.163,552.069,84.439,552.069,83.585z M552.71,125.485V94.673h4.625v30.813H552.71z"
			/>
	</g>
	<g>
		<path d="M588.341,124.038c-2.393,1.448-5.181,2.172-8.355,2.172c-4.365,0-7.891-1.425-10.573-4.275
			c-2.684-2.853-4.025-6.562-4.025-11.129c0-5.107,1.45-9.194,4.346-12.261c2.897-3.064,6.754-4.595,11.563-4.595
			c2.656,0,5.023,0.5,7.104,1.504v4.875c-2.304-1.614-4.765-2.424-7.384-2.424c-3.158,0-5.763,1.139-7.816,3.413
			c-2.052,2.275-3.078,5.297-3.078,9.067c0,3.678,0.958,6.575,2.871,8.692s4.484,3.176,7.716,3.176c2.73,0,5.275-0.901,7.633-2.702
			L588.341,124.038L588.341,124.038z"/>
	</g>
	<g>
		<path d="M620.437,111.222h-21.842c0.095,3.549,1.031,6.268,2.813,8.163c1.782,1.895,4.226,2.841,7.328,2.841
			c3.474,0,6.676-1.161,9.611-3.483v4.458c-2.692,2.005-6.259,3.009-10.697,3.009c-4.291,0-7.675-1.401-10.155-4.207
			c-2.478-2.804-3.72-6.751-3.72-11.84c0-4.682,1.342-8.554,4.026-11.618c2.683-3.064,6.04-4.595,10.07-4.595
			c3.956,0,7.04,1.3,9.25,3.899c2.21,2.601,3.314,6.223,3.314,10.865V111.222L620.437,111.222z M615.645,107.127
			c-0.02-2.898-0.715-5.15-2.089-6.758c-1.375-1.605-3.297-2.408-5.768-2.408c-2.249,0-4.222,0.807-5.921,2.422
			c-1.698,1.616-2.771,3.864-3.216,6.744H615.645z"/>
	</g>
	<g>
		<path d="M642.444,120.22c2.434,1.355,4.969,2.033,7.606,2.033c3.919,0,6.984-1.603,9.194-4.806
			c2.21-3.204,3.315-7.76,3.315-13.664l-0.055,0.026l-0.058-0.026c-1.856,3.751-5.089,5.628-9.695,5.628
			c-3.715,0-6.752-1.272-9.109-3.819c-2.36-2.543-3.539-5.746-3.539-9.61c0-4.104,1.258-7.526,3.777-10.268
			c2.514-2.737,5.843-4.107,9.985-4.107c4.327,0,7.643,1.693,9.946,5.084c2.303,3.39,3.453,8.259,3.453,14.611
			c0,7.839-1.51,13.948-4.526,18.332c-3.019,4.384-7.314,6.574-12.886,6.574c-2.879,0-5.348-0.482-7.411-1.45L642.444,120.22
			L642.444,120.22z M644.868,95.287c0,3.006,0.79,5.417,2.369,7.229c1.577,1.811,3.75,2.716,6.517,2.716
			c2.452,0,4.481-0.813,6.088-2.438c1.607-1.625,2.411-3.589,2.411-5.894c0-3.212-0.804-5.9-2.411-8.064
			c-1.606-2.162-3.745-3.247-6.421-3.247c-2.508,0-4.561,0.944-6.156,2.829C645.667,90.305,644.868,92.594,644.868,95.287z"/>
	</g>
	<g>
		<path d="M672.924,104.785c0-7.614,1.239-13.382,3.718-17.3c2.48-3.92,6.061-5.879,10.74-5.879c8.972,0,13.456,7.373,13.456,22.12
			c0,7.17-1.231,12.711-3.69,16.618c-2.462,3.91-6.042,5.864-10.741,5.864c-4.383,0-7.726-1.876-10.028-5.628
			C674.075,116.83,672.924,111.564,672.924,104.785z M677.66,104.534c0,11.813,3.082,17.719,9.248,17.719
			c6.11,0,9.167-5.989,9.167-17.969c0-12.463-2.981-18.695-8.944-18.695C680.816,85.589,677.66,91.905,677.66,104.534z"/>
	</g>
	<g>
		<path d="M729.198,93.976c0,1.859-0.632,3.386-1.895,4.584s-2.739,1.796-4.43,1.796c-1.635,0-3.106-0.598-4.415-1.796
			c-1.311-1.198-1.965-2.724-1.965-4.584c0-1.819,0.636-3.338,1.909-4.554c1.271-1.217,2.808-1.824,4.61-1.824
			c1.634,0,3.074,0.612,4.316,1.838C728.576,90.66,729.198,92.175,729.198,93.976z M722.847,97.514c0.948,0,1.765-0.334,2.452-1.002
			c0.687-0.669,1.03-1.524,1.03-2.563c0-1.004-0.348-1.833-1.044-2.493c-0.697-0.66-1.528-0.99-2.494-0.99
			c-0.909,0-1.709,0.325-2.396,0.975c-0.686,0.651-1.031,1.478-1.031,2.479c0,1.003,0.349,1.853,1.046,2.551
			C721.106,97.167,721.918,97.514,722.847,97.514z"/>
	</g>
</g>
</svg>
